  0
SECTION
  2
HEADER
  9
$ACADVER
  1
AC1009
  9
$FILLMODE
 70
 0
  9
$SPLFRAME
 70
 1
  9
$EXTMIN
 10
0
 20
0
 30
0.0
  9
$EXTMAX
 10
1058.33
 20
1058.33
 30
0.0
  0
ENDSEC
  0
SECTION
  2
TABLES
  0
TABLE
  2
LAYER
 70
1
  0
LAYER
  2
0
 70
     0
 62
     7
  6
CONTINUOUS
  0
ENDTAB
  0
ENDSEC
  0
SECTION
  2
ENTITIES
  0
LINE
  8
0
 62
     0
 10
304.038
 20
106.535
 30
0.0
 11
304.038
 21
106.358
 31
0.0
  0
LINE
  8
0
 62
     0
 10
304.038
 20
106.358
 30
0.0
 11
304.33
 21
105.829
 31
0.0
  0
LINE
  8
0
 62
     0
 10
304.33
 20
105.829
 30
0.0
 11
304.859
 21
105.536
 31
0.0
  0
LINE
  8
0
 62
     0
 10
304.859
 20
105.536
 30
0.0
 11
305.037
 21
105.536
 31
0.0
  0
LINE
  8
0
 62
     0
 10
304.038
 20
106.535
 30
0.0
 11
304.038
 21
108.536
 31
0.0
  0
LINE
  8
0
 62
     0
 10
305.037
 20
109.535
 30
0.0
 11
304.859
 21
109.535
 31
0.0
  0
LINE
  8
0
 62
     0
 10
304.859
 20
109.535
 30
0.0
 11
304.33
 21
109.243
 31
0.0
  0
LINE
  8
0
 62
     0
 10
304.33
 20
109.243
 30
0.0
 11
304.038
 21
108.713
 31
0.0
  0
LINE
  8
0
 62
     0
 10
304.038
 20
108.713
 30
0.0
 11
304.038
 21
108.536
 31
0.0
  0
LINE
  8
0
 62
     0
 10
305.037
 20
109.535
 30
0.0
 11
346.087
 21
109.535
 31
0.0
  0
LINE
  8
0
 62
     0
 10
347.088
 20
108.536
 30
0.0
 11
347.088
 21
108.713
 31
0.0
  0
LINE
  8
0
 62
     0
 10
347.088
 20
108.713
 30
0.0
 11
346.794
 21
109.243
 31
0.0
  0
LINE
  8
0
 62
     0
 10
346.794
 20
109.243
 30
0.0
 11
346.264
 21
109.535
 31
0.0
  0
LINE
  8
0
 62
     0
 10
346.264
 20
109.535
 30
0.0
 11
346.087
 21
109.535
 31
0.0
  0
LINE
  8
0
 62
     0
 10
347.088
 20
108.536
 30
0.0
 11
347.088
 21
106.535
 31
0.0
  0
LINE
  8
0
 62
     0
 10
346.087
 20
105.536
 30
0.0
 11
346.264
 21
105.536
 31
0.0
  0
LINE
  8
0
 62
     0
 10
346.264
 20
105.536
 30
0.0
 11
346.794
 21
105.829
 31
0.0
  0
LINE
  8
0
 62
     0
 10
346.794
 20
105.829
 30
0.0
 11
347.088
 21
106.358
 31
0.0
  0
LINE
  8
0
 62
     0
 10
347.088
 20
106.358
 30
0.0
 11
347.088
 21
106.535
 31
0.0
  0
LINE
  8
0
 62
     0
 10
346.087
 20
105.536
 30
0.0
 11
305.037
 21
105.536
 31
0.0
  0
LINE
  8
0
 62
     0
 10
289.699
 20
108.536
 30
0.0
 11
289.699
 21
108.713
 31
0.0
  0
LINE
  8
0
 62
     0
 10
289.699
 20
108.713
 30
0.0
 11
289.406
 21
109.243
 31
0.0
  0
LINE
  8
0
 62
     0
 10
289.406
 20
109.243
 30
0.0
 11
288.877
 21
109.535
 31
0.0
  0
LINE
  8
0
 62
     0
 10
288.877
 20
109.535
 30
0.0
 11
288.7
 21
109.535
 31
0.0
  0
LINE
  8
0
 62
     0
 10
289.699
 20
108.536
 30
0.0
 11
289.699
 21
107.535
 31
0.0
  0
LINE
  8
0
 62
     0
 10
288.7
 20
106.535
 30
0.0
 11
288.877
 21
106.535
 31
0.0
  0
LINE
  8
0
 62
     0
 10
288.877
 20
106.535
 30
0.0
 11
289.406
 21
106.828
 31
0.0
  0
LINE
  8
0
 62
     0
 10
289.406
 20
106.828
 30
0.0
 11
289.699
 21
107.359
 31
0.0
  0
LINE
  8
0
 62
     0
 10
289.699
 20
107.359
 30
0.0
 11
289.699
 21
107.535
 31
0.0
  0
LINE
  8
0
 62
     0
 10
288.7
 20
106.535
 30
0.0
 11
257.651
 21
106.535
 31
0.0
  0
LINE
  8
0
 62
     0
 10
256.65
 20
107.535
 30
0.0
 11
256.65
 21
107.359
 31
0.0
  0
LINE
  8
0
 62
     0
 10
256.65
 20
107.359
 30
0.0
 11
256.942
 21
106.828
 31
0.0
  0
LINE
  8
0
 62
     0
 10
256.942
 20
106.828
 30
0.0
 11
257.473
 21
106.535
 31
0.0
  0
LINE
  8
0
 62
     0
 10
257.473
 20
106.535
 30
0.0
 11
257.651
 21
106.535
 31
0.0
  0
LINE
  8
0
 62
     0
 10
256.65
 20
107.535
 30
0.0
 11
256.65
 21
108.536
 31
0.0
  0
LINE
  8
0
 62
     0
 10
257.651
 20
109.535
 30
0.0
 11
257.473
 21
109.535
 31
0.0
  0
LINE
  8
0
 62
     0
 10
257.473
 20
109.535
 30
0.0
 11
256.942
 21
109.243
 31
0.0
  0
LINE
  8
0
 62
     0
 10
256.942
 20
109.243
 30
0.0
 11
256.65
 21
108.713
 31
0.0
  0
LINE
  8
0
 62
     0
 10
256.65
 20
108.713
 30
0.0
 11
256.65
 21
108.536
 31
0.0
  0
LINE
  8
0
 62
     0
 10
257.651
 20
109.535
 30
0.0
 11
288.7
 21
109.535
 31
0.0
  0
LINE
  8
0
 62
     0
 10
210.263
 20
122.441
 30
0.0
 11
210.085
 21
122.441
 31
0.0
  0
LINE
  8
0
 62
     0
 10
210.085
 20
122.441
 30
0.0
 11
209.554
 21
122.149
 31
0.0
  0
LINE
  8
0
 62
     0
 10
209.554
 20
122.149
 30
0.0
 11
209.262
 21
121.619
 31
0.0
  0
LINE
  8
0
 62
     0
 10
209.262
 20
121.619
 30
0.0
 11
209.262
 21
121.441
 31
0.0
  0
LINE
  8
0
 62
     0
 10
210.263
 20
122.441
 30
0.0
 11
212.262
 21
122.441
 31
0.0
  0
LINE
  8
0
 62
     0
 10
213.262
 20
121.441
 30
0.0
 11
213.262
 21
121.619
 31
0.0
  0
LINE
  8
0
 62
     0
 10
213.262
 20
121.619
 30
0.0
 11
212.969
 21
122.149
 31
0.0
  0
LINE
  8
0
 62
     0
 10
212.969
 20
122.149
 30
0.0
 11
212.439
 21
122.441
 31
0.0
  0
LINE
  8
0
 62
     0
 10
212.439
 20
122.441
 30
0.0
 11
212.262
 21
122.441
 31
0.0
  0
LINE
  8
0
 62
     0
 10
213.262
 20
121.441
 30
0.0
 11
213.262
 21
111.536
 31
0.0
  0
LINE
  8
0
 62
     0
 10
213.262
 20
111.536
 30
0.0
 11
213.262
 21
111.341
 31
0.0
  0
LINE
  8
0
 62
     0
 10
213.262
 20
111.341
 30
0.0
 11
213.42
 21
110.757
 31
0.0
  0
LINE
  8
0
 62
     0
 10
213.42
 20
110.757
 30
0.0
 11
213.848
 21
110.122
 31
0.0
  0
LINE
  8
0
 62
     0
 10
213.848
 20
110.122
 30
0.0
 11
214.483
 21
109.693
 31
0.0
  0
LINE
  8
0
 62
     0
 10
214.483
 20
109.693
 30
0.0
 11
215.066
 21
109.535
 31
0.0
  0
LINE
  8
0
 62
     0
 10
215.066
 20
109.535
 30
0.0
 11
215.262
 21
109.535
 31
0.0
  0
LINE
  8
0
 62
     0
 10
215.262
 20
109.535
 30
0.0
 11
241.85
 21
109.535
 31
0.0
  0
LINE
  8
0
 62
     0
 10
242.85
 20
108.536
 30
0.0
 11
242.85
 21
108.713
 31
0.0
  0
LINE
  8
0
 62
     0
 10
242.85
 20
108.713
 30
0.0
 11
242.557
 21
109.243
 31
0.0
  0
LINE
  8
0
 62
     0
 10
242.557
 20
109.243
 30
0.0
 11
242.026
 21
109.535
 31
0.0
  0
LINE
  8
0
 62
     0
 10
242.026
 20
109.535
 30
0.0
 11
241.85
 21
109.535
 31
0.0
  0
LINE
  8
0
 62
     0
 10
242.85
 20
108.536
 30
0.0
 11
242.85
 21
106.535
 31
0.0
  0
LINE
  8
0
 62
     0
 10
241.85
 20
105.536
 30
0.0
 11
242.026
 21
105.536
 31
0.0
  0
LINE
  8
0
 62
     0
 10
242.026
 20
105.536
 30
0.0
 11
242.557
 21
105.829
 31
0.0
  0
LINE
  8
0
 62
     0
 10
242.557
 20
105.829
 30
0.0
 11
242.85
 21
106.358
 31
0.0
  0
LINE
  8
0
 62
     0
 10
242.85
 20
106.358
 30
0.0
 11
242.85
 21
106.535
 31
0.0
  0
LINE
  8
0
 62
     0
 10
241.85
 20
105.536
 30
0.0
 11
180.174
 21
105.536
 31
0.0
  0
LINE
  8
0
 62
     0
 10
179.175
 20
106.535
 30
0.0
 11
179.175
 21
106.358
 31
0.0
  0
LINE
  8
0
 62
     0
 10
179.175
 20
106.358
 30
0.0
 11
179.468
 21
105.829
 31
0.0
  0
LINE
  8
0
 62
     0
 10
179.468
 20
105.829
 30
0.0
 11
179.997
 21
105.536
 31
0.0
  0
LINE
  8
0
 62
     0
 10
179.997
 20
105.536
 30
0.0
 11
180.174
 21
105.536
 31
0.0
  0
LINE
  8
0
 62
     0
 10
179.175
 20
106.535
 30
0.0
 11
179.175
 21
108.536
 31
0.0
  0
LINE
  8
0
 62
     0
 10
180.174
 20
109.535
 30
0.0
 11
179.997
 21
109.535
 31
0.0
  0
LINE
  8
0
 62
     0
 10
179.997
 20
109.535
 30
0.0
 11
179.468
 21
109.243
 31
0.0
  0
LINE
  8
0
 62
     0
 10
179.468
 20
109.243
 30
0.0
 11
179.175
 21
108.713
 31
0.0
  0
LINE
  8
0
 62
     0
 10
179.175
 20
108.713
 30
0.0
 11
179.175
 21
108.536
 31
0.0
  0
LINE
  8
0
 62
     0
 10
180.174
 20
109.535
 30
0.0
 11
207.263
 21
109.535
 31
0.0
  0
LINE
  8
0
 62
     0
 10
207.263
 20
109.535
 30
0.0
 11
207.457
 21
109.535
 31
0.0
  0
LINE
  8
0
 62
     0
 10
207.457
 20
109.535
 30
0.0
 11
208.041
 21
109.693
 31
0.0
  0
LINE
  8
0
 62
     0
 10
208.041
 20
109.693
 30
0.0
 11
208.676
 21
110.122
 31
0.0
  0
LINE
  8
0
 62
     0
 10
208.676
 20
110.122
 30
0.0
 11
209.105
 21
110.757
 31
0.0
  0
LINE
  8
0
 62
     0
 10
209.105
 20
110.757
 30
0.0
 11
209.262
 21
111.341
 31
0.0
  0
LINE
  8
0
 62
     0
 10
209.262
 20
111.341
 30
0.0
 11
209.262
 21
111.536
 31
0.0
  0
LINE
  8
0
 62
     0
 10
209.262
 20
111.536
 30
0.0
 11
209.262
 21
121.441
 31
0.0
  0
LINE
  8
0
 62
     0
 10
124.538
 20
122.441
 30
0.0
 11
124.36
 21
122.441
 31
0.0
  0
LINE
  8
0
 62
     0
 10
124.36
 20
122.441
 30
0.0
 11
123.829
 21
122.149
 31
0.0
  0
LINE
  8
0
 62
     0
 10
123.829
 20
122.149
 30
0.0
 11
123.537
 21
121.619
 31
0.0
  0
LINE
  8
0
 62
     0
 10
123.537
 20
121.619
 30
0.0
 11
123.537
 21
121.441
 31
0.0
  0
LINE
  8
0
 62
     0
 10
124.538
 20
122.441
 30
0.0
 11
126.537
 21
122.441
 31
0.0
  0
LINE
  8
0
 62
     0
 10
127.537
 20
121.441
 30
0.0
 11
127.537
 21
121.619
 31
0.0
  0
LINE
  8
0
 62
     0
 10
127.537
 20
121.619
 30
0.0
 11
127.244
 21
122.149
 31
0.0
  0
LINE
  8
0
 62
     0
 10
127.244
 20
122.149
 30
0.0
 11
126.714
 21
122.441
 31
0.0
  0
LINE
  8
0
 62
     0
 10
126.714
 20
122.441
 30
0.0
 11
126.537
 21
122.441
 31
0.0
  0
LINE
  8
0
 62
     0
 10
127.537
 20
121.441
 30
0.0
 11
127.537
 21
111.536
 31
0.0
  0
LINE
  8
0
 62
     0
 10
127.537
 20
111.536
 30
0.0
 11
127.537
 21
111.341
 31
0.0
  0
LINE
  8
0
 62
     0
 10
127.537
 20
111.341
 30
0.0
 11
127.695
 21
110.757
 31
0.0
  0
LINE
  8
0
 62
     0
 10
127.695
 20
110.757
 30
0.0
 11
128.123
 21
110.122
 31
0.0
  0
LINE
  8
0
 62
     0
 10
128.123
 20
110.122
 30
0.0
 11
128.758
 21
109.693
 31
0.0
  0
LINE
  8
0
 62
     0
 10
128.758
 20
109.693
 30
0.0
 11
129.341
 21
109.535
 31
0.0
  0
LINE
  8
0
 62
     0
 10
129.341
 20
109.535
 30
0.0
 11
129.537
 21
109.535
 31
0.0
  0
LINE
  8
0
 62
     0
 10
129.537
 20
109.535
 30
0.0
 11
156.125
 21
109.535
 31
0.0
  0
LINE
  8
0
 62
     0
 10
157.125
 20
108.536
 30
0.0
 11
157.125
 21
108.713
 31
0.0
  0
LINE
  8
0
 62
     0
 10
157.125
 20
108.713
 30
0.0
 11
156.832
 21
109.243
 31
0.0
  0
LINE
  8
0
 62
     0
 10
156.832
 20
109.243
 30
0.0
 11
156.301
 21
109.535
 31
0.0
  0
LINE
  8
0
 62
     0
 10
156.301
 20
109.535
 30
0.0
 11
156.125
 21
109.535
 31
0.0
  0
LINE
  8
0
 62
     0
 10
157.125
 20
108.536
 30
0.0
 11
157.125
 21
106.535
 31
0.0
  0
LINE
  8
0
 62
     0
 10
156.125
 20
105.536
 30
0.0
 11
156.301
 21
105.536
 31
0.0
  0
LINE
  8
0
 62
     0
 10
156.301
 20
105.536
 30
0.0
 11
156.832
 21
105.829
 31
0.0
  0
LINE
  8
0
 62
     0
 10
156.832
 20
105.829
 30
0.0
 11
157.125
 21
106.358
 31
0.0
  0
LINE
  8
0
 62
     0
 10
157.125
 20
106.358
 30
0.0
 11
157.125
 21
106.535
 31
0.0
  0
LINE
  8
0
 62
     0
 10
156.125
 20
105.536
 30
0.0
 11
94.4492
 21
105.536
 31
0.0
  0
LINE
  8
0
 62
     0
 10
93.4501
 20
106.535
 30
0.0
 11
93.4501
 21
106.358
 31
0.0
  0
LINE
  8
0
 62
     0
 10
93.4501
 20
106.358
 30
0.0
 11
93.7426
 21
105.829
 31
0.0
  0
LINE
  8
0
 62
     0
 10
93.7426
 20
105.829
 30
0.0
 11
94.2717
 21
105.536
 31
0.0
  0
LINE
  8
0
 62
     0
 10
94.2717
 20
105.536
 30
0.0
 11
94.4492
 21
105.536
 31
0.0
  0
LINE
  8
0
 62
     0
 10
93.4501
 20
106.535
 30
0.0
 11
93.4501
 21
108.536
 31
0.0
  0
LINE
  8
0
 62
     0
 10
94.4492
 20
109.535
 30
0.0
 11
94.2717
 21
109.535
 31
0.0
  0
LINE
  8
0
 62
     0
 10
94.2717
 20
109.535
 30
0.0
 11
93.7426
 21
109.243
 31
0.0
  0
LINE
  8
0
 62
     0
 10
93.7426
 20
109.243
 30
0.0
 11
93.4501
 21
108.713
 31
0.0
  0
LINE
  8
0
 62
     0
 10
93.4501
 20
108.713
 30
0.0
 11
93.4501
 21
108.536
 31
0.0
  0
LINE
  8
0
 62
     0
 10
94.4492
 20
109.535
 30
0.0
 11
121.538
 21
109.535
 31
0.0
  0
LINE
  8
0
 62
     0
 10
121.538
 20
109.535
 30
0.0
 11
121.732
 21
109.535
 31
0.0
  0
LINE
  8
0
 62
     0
 10
121.732
 20
109.535
 30
0.0
 11
122.316
 21
109.693
 31
0.0
  0
LINE
  8
0
 62
     0
 10
122.316
 20
109.693
 30
0.0
 11
122.951
 21
110.122
 31
0.0
  0
LINE
  8
0
 62
     0
 10
122.951
 20
110.122
 30
0.0
 11
123.38
 21
110.757
 31
0.0
  0
LINE
  8
0
 62
     0
 10
123.38
 20
110.757
 30
0.0
 11
123.537
 21
111.341
 31
0.0
  0
LINE
  8
0
 62
     0
 10
123.537
 20
111.341
 30
0.0
 11
123.537
 21
111.536
 31
0.0
  0
LINE
  8
0
 62
     0
 10
123.537
 20
111.536
 30
0.0
 11
123.537
 21
121.441
 31
0.0
  0
LINE
  8
0
 62
     0
 10
31.6687
 20
122.441
 30
0.0
 11
31.4909
 21
122.441
 31
0.0
  0
LINE
  8
0
 62
     0
 10
31.4909
 20
122.441
 30
0.0
 11
30.9604
 21
122.149
 31
0.0
  0
LINE
  8
0
 62
     0
 10
30.9604
 20
122.149
 30
0.0
 11
30.6682
 21
121.619
 31
0.0
  0
LINE
  8
0
 62
     0
 10
30.6682
 20
121.619
 30
0.0
 11
30.6682
 21
121.441
 31
0.0
  0
LINE
  8
0
 62
     0
 10
31.6687
 20
122.441
 30
0.0
 11
38.4309
 21
122.441
 31
0.0
  0
LINE
  8
0
 62
     0
 10
39.431
 20
121.441
 30
0.0
 11
39.431
 21
121.619
 31
0.0
  0
LINE
  8
0
 62
     0
 10
39.431
 20
121.619
 30
0.0
 11
39.1375
 21
122.149
 31
0.0
  0
LINE
  8
0
 62
     0
 10
39.1375
 20
122.149
 30
0.0
 11
38.6073
 21
122.441
 31
0.0
  0
LINE
  8
0
 62
     0
 10
38.6073
 20
122.441
 30
0.0
 11
38.4309
 21
122.441
 31
0.0
  0
LINE
  8
0
 62
     0
 10
39.431
 20
121.441
 30
0.0
 11
39.431
 21
111.536
 31
0.0
  0
LINE
  8
0
 62
     0
 10
39.431
 20
111.536
 30
0.0
 11
39.431
 21
111.341
 31
0.0
  0
LINE
  8
0
 62
     0
 10
39.431
 20
111.341
 30
0.0
 11
39.5884
 21
110.757
 31
0.0
  0
LINE
  8
0
 62
     0
 10
39.5884
 20
110.757
 30
0.0
 11
40.017
 21
110.122
 31
0.0
  0
LINE
  8
0
 62
     0
 10
40.017
 20
110.122
 30
0.0
 11
40.652
 21
109.693
 31
0.0
  0
LINE
  8
0
 62
     0
 10
40.652
 20
109.693
 30
0.0
 11
41.2351
 21
109.535
 31
0.0
  0
LINE
  8
0
 62
     0
 10
41.2351
 20
109.535
 30
0.0
 11
41.4306
 21
109.535
 31
0.0
  0
LINE
  8
0
 62
     0
 10
41.4306
 20
109.535
 30
0.0
 11
68.0187
 21
109.535
 31
0.0
  0
LINE
  8
0
 62
     0
 10
69.0192
 20
108.536
 30
0.0
 11
69.0192
 21
108.713
 31
0.0
  0
LINE
  8
0
 62
     0
 10
69.0192
 20
108.713
 30
0.0
 11
68.7257
 21
109.243
 31
0.0
  0
LINE
  8
0
 62
     0
 10
68.7257
 20
109.243
 30
0.0
 11
68.1951
 21
109.535
 31
0.0
  0
LINE
  8
0
 62
     0
 10
68.1951
 20
109.535
 30
0.0
 11
68.0187
 21
109.535
 31
0.0
  0
LINE
  8
0
 62
     0
 10
69.0192
 20
108.536
 30
0.0
 11
69.0192
 21
106.535
 31
0.0
  0
LINE
  8
0
 62
     0
 10
68.0187
 20
105.536
 30
0.0
 11
68.1951
 21
105.536
 31
0.0
  0
LINE
  8
0
 62
     0
 10
68.1951
 20
105.536
 30
0.0
 11
68.7257
 21
105.829
 31
0.0
  0
LINE
  8
0
 62
     0
 10
68.7257
 20
105.829
 30
0.0
 11
69.0192
 21
106.358
 31
0.0
  0
LINE
  8
0
 62
     0
 10
69.0192
 20
106.358
 30
0.0
 11
69.0192
 21
106.535
 31
0.0
  0
LINE
  8
0
 62
     0
 10
68.0187
 20
105.536
 30
0.0
 11
17.2627
 21
105.536
 31
0.0
  0
LINE
  8
0
 62
     0
 10
16.2622
 20
106.535
 30
0.0
 11
16.2622
 21
106.358
 31
0.0
  0
LINE
  8
0
 62
     0
 10
16.2622
 20
106.358
 30
0.0
 11
16.5544
 21
105.829
 31
0.0
  0
LINE
  8
0
 62
     0
 10
16.5544
 20
105.829
 30
0.0
 11
17.0849
 21
105.536
 31
0.0
  0
LINE
  8
0
 62
     0
 10
17.0849
 20
105.536
 30
0.0
 11
17.2627
 21
105.536
 31
0.0
  0
LINE
  8
0
 62
     0
 10
16.2622
 20
106.535
 30
0.0
 11
16.2622
 21
108.536
 31
0.0
  0
LINE
  8
0
 62
     0
 10
17.2627
 20
109.535
 30
0.0
 11
17.0849
 21
109.535
 31
0.0
  0
LINE
  8
0
 62
     0
 10
17.0849
 20
109.535
 30
0.0
 11
16.5544
 21
109.243
 31
0.0
  0
LINE
  8
0
 62
     0
 10
16.5544
 20
109.243
 30
0.0
 11
16.2622
 21
108.713
 31
0.0
  0
LINE
  8
0
 62
     0
 10
16.2622
 20
108.713
 30
0.0
 11
16.2622
 21
108.536
 31
0.0
  0
LINE
  8
0
 62
     0
 10
17.2627
 20
109.535
 30
0.0
 11
28.6687
 21
109.535
 31
0.0
  0
LINE
  8
0
 62
     0
 10
28.6687
 20
109.535
 30
0.0
 11
28.863
 21
109.535
 31
0.0
  0
LINE
  8
0
 62
     0
 10
28.863
 20
109.535
 30
0.0
 11
29.4473
 21
109.693
 31
0.0
  0
LINE
  8
0
 62
     0
 10
29.4473
 20
109.693
 30
0.0
 11
30.0826
 21
110.122
 31
0.0
  0
LINE
  8
0
 62
     0
 10
30.0826
 20
110.122
 30
0.0
 11
30.5111
 21
110.757
 31
0.0
  0
LINE
  8
0
 62
     0
 10
30.5111
 20
110.757
 30
0.0
 11
30.6682
 21
111.341
 31
0.0
  0
LINE
  8
0
 62
     0
 10
30.6682
 20
111.341
 30
0.0
 11
30.6682
 21
111.536
 31
0.0
  0
LINE
  8
0
 62
     0
 10
30.6682
 20
111.536
 30
0.0
 11
30.6682
 21
121.441
 31
0.0
  0
LINE
  8
0
 62
     0
 10
314.512
 20
50.5284
 30
0.0
 11
314.335
 21
50.5284
 31
0.0
  0
LINE
  8
0
 62
     0
 10
314.335
 20
50.5284
 30
0.0
 11
313.804
 21
50.2363
 31
0.0
  0
LINE
  8
0
 62
     0
 10
313.804
 20
50.2363
 30
0.0
 11
313.512
 21
49.7071
 31
0.0
  0
LINE
  8
0
 62
     0
 10
313.512
 20
49.7071
 30
0.0
 11
313.512
 21
49.5293
 31
0.0
  0
LINE
  8
0
 62
     0
 10
314.512
 20
50.5284
 30
0.0
 11
336.612
 21
50.5284
 31
0.0
  0
LINE
  8
0
 62
     0
 10
337.613
 20
49.5293
 30
0.0
 11
337.613
 21
49.7071
 31
0.0
  0
LINE
  8
0
 62
     0
 10
337.613
 20
49.7071
 30
0.0
 11
337.319
 21
50.2363
 31
0.0
  0
LINE
  8
0
 62
     0
 10
337.319
 20
50.2363
 30
0.0
 11
336.788
 21
50.5284
 31
0.0
  0
LINE
  8
0
 62
     0
 10
336.788
 20
50.5284
 30
0.0
 11
336.612
 21
50.5284
 31
0.0
  0
LINE
  8
0
 62
     0
 10
337.613
 20
49.5293
 30
0.0
 11
337.613
 21
39.4794
 31
0.0
  0
LINE
  8
0
 62
     0
 10
337.613
 20
39.4794
 30
0.0
 11
337.613
 21
39.303
 31
0.0
  0
LINE
  8
0
 62
     0
 10
337.613
 20
39.303
 30
0.0
 11
337.905
 21
38.7724
 31
0.0
  0
LINE
  8
0
 62
     0
 10
337.905
 20
38.7724
 30
0.0
 11
338.435
 21
38.4789
 31
0.0
  0
LINE
  8
0
 62
     0
 10
338.435
 20
38.4789
 30
0.0
 11
338.613
 21
38.4789
 31
0.0
  0
LINE
  8
0
 62
     0
 10
338.613
 20
38.4789
 30
0.0
 11
343.613
 21
38.4789
 31
0.0
  0
LINE
  8
0
 62
     0
 10
343.613
 20
38.4789
 30
0.0
 11
343.789
 21
38.4789
 31
0.0
  0
LINE
  8
0
 62
     0
 10
343.789
 20
38.4789
 30
0.0
 11
344.319
 21
38.7724
 31
0.0
  0
LINE
  8
0
 62
     0
 10
344.319
 20
38.7724
 30
0.0
 11
344.613
 21
39.303
 31
0.0
  0
LINE
  8
0
 62
     0
 10
344.613
 20
39.303
 30
0.0
 11
344.613
 21
39.4794
 31
0.0
  0
LINE
  8
0
 62
     0
 10
344.613
 20
39.4794
 30
0.0
 11
344.613
 21
63.5289
 31
0.0
  0
LINE
  8
0
 62
     0
 10
344.613
 20
63.5289
 30
0.0
 11
344.613
 21
63.7067
 31
0.0
  0
LINE
  8
0
 62
     0
 10
344.613
 20
63.7067
 30
0.0
 11
344.319
 21
64.2373
 31
0.0
  0
LINE
  8
0
 62
     0
 10
344.319
 20
64.2373
 30
0.0
 11
343.789
 21
64.5294
 31
0.0
  0
LINE
  8
0
 62
     0
 10
343.789
 20
64.5294
 30
0.0
 11
343.613
 21
64.5294
 31
0.0
  0
LINE
  8
0
 62
     0
 10
343.613
 20
64.5294
 30
0.0
 11
297.607
 21
64.5294
 31
0.0
  0
LINE
  8
0
 62
     0
 10
296.606
 20
65.5299
 30
0.0
 11
296.606
 21
65.3535
 31
0.0
  0
LINE
  8
0
 62
     0
 10
296.606
 20
65.3535
 30
0.0
 11
296.898
 21
64.8229
 31
0.0
  0
LINE
  8
0
 62
     0
 10
296.898
 20
64.8229
 30
0.0
 11
297.429
 21
64.5294
 31
0.0
  0
LINE
  8
0
 62
     0
 10
297.429
 20
64.5294
 30
0.0
 11
297.607
 21
64.5294
 31
0.0
  0
LINE
  8
0
 62
     0
 10
296.606
 20
65.5299
 30
0.0
 11
296.606
 21
82.5789
 31
0.0
  0
LINE
  8
0
 62
     0
 10
296.606
 20
82.5789
 30
0.0
 11
296.606
 21
82.7567
 31
0.0
  0
LINE
  8
0
 62
     0
 10
296.606
 20
82.7567
 30
0.0
 11
296.313
 21
83.2873
 31
0.0
  0
LINE
  8
0
 62
     0
 10
296.313
 20
83.2873
 30
0.0
 11
295.782
 21
83.5794
 31
0.0
  0
LINE
  8
0
 62
     0
 10
295.782
 20
83.5794
 30
0.0
 11
295.606
 21
83.5794
 31
0.0
  0
LINE
  8
0
 62
     0
 10
295.606
 20
83.5794
 30
0.0
 11
293.606
 21
83.5794
 31
0.0
  0
LINE
  8
0
 62
     0
 10
293.606
 20
83.5794
 30
0.0
 11
293.429
 21
83.5794
 31
0.0
  0
LINE
  8
0
 62
     0
 10
293.429
 20
83.5794
 30
0.0
 11
292.898
 21
83.2873
 31
0.0
  0
LINE
  8
0
 62
     0
 10
292.898
 20
83.2873
 30
0.0
 11
292.606
 21
82.7567
 31
0.0
  0
LINE
  8
0
 62
     0
 10
292.606
 20
82.7567
 30
0.0
 11
292.606
 21
82.5789
 31
0.0
  0
LINE
  8
0
 62
     0
 10
292.606
 20
82.5789
 30
0.0
 11
292.606
 21
51.5288
 31
0.0
  0
LINE
  8
0
 62
     0
 10
292.606
 20
51.5288
 30
0.0
 11
292.606
 21
51.3524
 31
0.0
  0
LINE
  8
0
 62
     0
 10
292.606
 20
51.3524
 30
0.0
 11
292.898
 21
50.8222
 31
0.0
  0
LINE
  8
0
 62
     0
 10
292.898
 20
50.8222
 30
0.0
 11
293.429
 21
50.5284
 31
0.0
  0
LINE
  8
0
 62
     0
 10
293.429
 20
50.5284
 30
0.0
 11
293.606
 21
50.5284
 31
0.0
  0
LINE
  8
0
 62
     0
 10
293.606
 20
50.5284
 30
0.0
 11
295.606
 21
50.5284
 31
0.0
  0
LINE
  8
0
 62
     0
 10
296.606
 20
49.5293
 30
0.0
 11
296.606
 21
49.7071
 31
0.0
  0
LINE
  8
0
 62
     0
 10
296.606
 20
49.7071
 30
0.0
 11
296.313
 21
50.2363
 31
0.0
  0
LINE
  8
0
 62
     0
 10
296.313
 20
50.2363
 30
0.0
 11
295.782
 21
50.5284
 31
0.0
  0
LINE
  8
0
 62
     0
 10
295.782
 20
50.5284
 30
0.0
 11
295.606
 21
50.5284
 31
0.0
  0
LINE
  8
0
 62
     0
 10
296.606
 20
49.5293
 30
0.0
 11
296.606
 21
33.5291
 31
0.0
  0
LINE
  8
0
 62
     0
 10
296.606
 20
33.5291
 30
0.0
 11
296.606
 21
33.3527
 31
0.0
  0
LINE
  8
0
 62
     0
 10
296.606
 20
33.3527
 30
0.0
 11
296.898
 21
32.8221
 31
0.0
  0
LINE
  8
0
 62
     0
 10
296.898
 20
32.8221
 30
0.0
 11
297.429
 21
32.5286
 31
0.0
  0
LINE
  8
0
 62
     0
 10
297.429
 20
32.5286
 30
0.0
 11
297.607
 21
32.5286
 31
0.0
  0
LINE
  8
0
 62
     0
 10
297.607
 20
32.5286
 30
0.0
 11
312.513
 21
32.5286
 31
0.0
  0
LINE
  8
0
 62
     0
 10
312.513
 20
32.5286
 30
0.0
 11
312.689
 21
32.5286
 31
0.0
  0
LINE
  8
0
 62
     0
 10
312.689
 20
32.5286
 30
0.0
 11
313.218
 21
32.8221
 31
0.0
  0
LINE
  8
0
 62
     0
 10
313.218
 20
32.8221
 30
0.0
 11
313.512
 21
33.3527
 31
0.0
  0
LINE
  8
0
 62
     0
 10
313.512
 20
33.3527
 30
0.0
 11
313.512
 21
33.5291
 31
0.0
  0
LINE
  8
0
 62
     0
 10
313.512
 20
33.5291
 30
0.0
 11
313.512
 21
49.5293
 31
0.0
  0
LINE
  8
0
 62
     0
 10
281.613
 20
102.629
 30
0.0
 11
281.613
 21
104.629
 31
0.0
  0
LINE
  8
0
 62
     0
 10
281.613
 20
104.629
 30
0.0
 11
288.613
 21
104.629
 31
0.0
  0
LINE
  8
0
 62
     0
 10
288.613
 20
104.629
 30
0.0
 11
288.613
 21
102.629
 31
0.0
  0
LINE
  8
0
 62
     0
 10
288.613
 20
102.629
 30
0.0
 11
289.699
 21
102.629
 31
0.0
  0
LINE
  8
0
 62
     0
 10
289.699
 20
102.629
 30
0.0
 11
289.699
 21
88.6284
 31
0.0
  0
LINE
  8
0
 62
     0
 10
289.699
 20
88.6284
 30
0.0
 11
288.613
 21
88.6284
 31
0.0
  0
LINE
  8
0
 62
     0
 10
288.613
 20
88.6284
 30
0.0
 11
288.613
 21
86.1289
 31
0.0
  0
LINE
  8
0
 62
     0
 10
288.613
 20
86.1289
 30
0.0
 11
281.613
 21
86.1289
 31
0.0
  0
LINE
  8
0
 62
     0
 10
281.613
 20
86.1289
 30
0.0
 11
281.613
 21
88.6284
 31
0.0
  0
LINE
  8
0
 62
     0
 10
281.613
 20
88.6284
 30
0.0
 11
264.738
 21
88.6284
 31
0.0
  0
LINE
  8
0
 62
     0
 10
264.738
 20
88.6284
 30
0.0
 11
264.738
 21
86.1289
 31
0.0
  0
LINE
  8
0
 62
     0
 10
264.738
 20
86.1289
 30
0.0
 11
257.737
 21
86.1289
 31
0.0
  0
LINE
  8
0
 62
     0
 10
257.737
 20
86.1289
 30
0.0
 11
257.737
 21
88.6284
 31
0.0
  0
LINE
  8
0
 62
     0
 10
257.737
 20
88.6284
 30
0.0
 11
256.65
 21
88.6284
 31
0.0
  0
LINE
  8
0
 62
     0
 10
256.65
 20
88.6284
 30
0.0
 11
256.65
 21
102.629
 31
0.0
  0
LINE
  8
0
 62
     0
 10
256.65
 20
102.629
 30
0.0
 11
257.737
 21
102.629
 31
0.0
  0
LINE
  8
0
 62
     0
 10
257.737
 20
102.629
 30
0.0
 11
257.737
 21
104.629
 31
0.0
  0
LINE
  8
0
 62
     0
 10
257.737
 20
104.629
 30
0.0
 11
264.738
 21
104.629
 31
0.0
  0
LINE
  8
0
 62
     0
 10
264.738
 20
104.629
 30
0.0
 11
264.738
 21
102.629
 31
0.0
  0
LINE
  8
0
 62
     0
 10
264.738
 20
102.629
 30
0.0
 11
281.613
 21
102.629
 31
0.0
  0
LINE
  8
0
 62
     0
 10
8.99996
 20
102.629
 30
0.0
 11
22.9995
 21
102.629
 31
0.0
  0
LINE
  8
0
 62
     0
 10
22.9995
 20
102.629
 30
0.0
 11
22.9995
 21
88.6284
 31
0.0
  0
LINE
  8
0
 62
     0
 10
22.9995
 20
88.6284
 30
0.0
 11
8.99996
 21
88.6284
 31
0.0
  0
LINE
  8
0
 62
     0
 10
8.99996
 20
88.6284
 30
0.0
 11
8.99996
 21
102.629
 31
0.0
  0
LINE
  8
0
 62
     0
 10
11.3812
 20
64.5294
 30
0.0
 11
30.1432
 21
64.5294
 31
0.0
  0
LINE
  8
0
 62
     0
 10
30.1432
 20
64.5294
 30
0.0
 11
30.1432
 21
50.5284
 31
0.0
  0
LINE
  8
0
 62
     0
 10
30.1432
 20
50.5284
 30
0.0
 11
11.3812
 21
50.5284
 31
0.0
  0
LINE
  8
0
 62
     0
 10
11.3812
 20
50.5284
 30
0.0
 11
11.3812
 21
64.5294
 31
0.0
  0
LINE
  8
0
 62
     0
 10
13.7625
 20
83.5794
 30
0.0
 11
27.762
 21
83.5794
 31
0.0
  0
LINE
  8
0
 62
     0
 10
27.762
 20
83.5794
 30
0.0
 11
27.762
 21
69.5784
 31
0.0
  0
LINE
  8
0
 62
     0
 10
27.762
 20
69.5784
 30
0.0
 11
13.7625
 21
69.5784
 31
0.0
  0
LINE
  8
0
 62
     0
 10
13.7625
 20
69.5784
 30
0.0
 11
13.7625
 21
83.5794
 31
0.0
  0
LINE
  8
0
 62
     0
 10
28.05
 20
102.629
 30
0.0
 11
42.0493
 21
102.629
 31
0.0
  0
LINE
  8
0
 62
     0
 10
42.0493
 20
102.629
 30
0.0
 11
42.0493
 21
88.6284
 31
0.0
  0
LINE
  8
0
 62
     0
 10
42.0493
 20
88.6284
 30
0.0
 11
28.05
 21
88.6284
 31
0.0
  0
LINE
  8
0
 62
     0
 10
28.05
 20
88.6284
 30
0.0
 11
28.05
 21
102.629
 31
0.0
  0
LINE
  8
0
 62
     0
 10
47.1001
 20
102.629
 30
0.0
 11
61.0994
 21
102.629
 31
0.0
  0
LINE
  8
0
 62
     0
 10
61.0994
 20
102.629
 30
0.0
 11
61.0994
 21
88.6284
 31
0.0
  0
LINE
  8
0
 62
     0
 10
61.0994
 20
88.6284
 30
0.0
 11
47.1001
 21
88.6284
 31
0.0
  0
LINE
  8
0
 62
     0
 10
47.1001
 20
88.6284
 30
0.0
 11
47.1001
 21
102.629
 31
0.0
  0
LINE
  8
0
 62
     0
 10
66.1501
 20
102.629
 30
0.0
 11
80.1494
 21
102.629
 31
0.0
  0
LINE
  8
0
 62
     0
 10
80.1494
 20
102.629
 30
0.0
 11
80.1494
 21
88.6284
 31
0.0
  0
LINE
  8
0
 62
     0
 10
80.1494
 20
88.6284
 30
0.0
 11
66.1501
 21
88.6284
 31
0.0
  0
LINE
  8
0
 62
     0
 10
66.1501
 20
88.6284
 30
0.0
 11
66.1501
 21
102.629
 31
0.0
  0
LINE
  8
0
 62
     0
 10
85.2001
 20
102.629
 30
0.0
 11
99.1994
 21
102.629
 31
0.0
  0
LINE
  8
0
 62
     0
 10
99.1994
 20
102.629
 30
0.0
 11
99.1994
 21
88.6284
 31
0.0
  0
LINE
  8
0
 62
     0
 10
99.1994
 20
88.6284
 30
0.0
 11
85.2001
 21
88.6284
 31
0.0
  0
LINE
  8
0
 62
     0
 10
85.2001
 20
88.6284
 30
0.0
 11
85.2001
 21
102.629
 31
0.0
  0
LINE
  8
0
 62
     0
 10
142.35
 20
102.629
 30
0.0
 11
156.349
 21
102.629
 31
0.0
  0
LINE
  8
0
 62
     0
 10
156.349
 20
102.629
 30
0.0
 11
156.349
 21
88.6284
 31
0.0
  0
LINE
  8
0
 62
     0
 10
156.349
 20
88.6284
 30
0.0
 11
142.35
 21
88.6284
 31
0.0
  0
LINE
  8
0
 62
     0
 10
142.35
 20
88.6284
 30
0.0
 11
142.35
 21
102.629
 31
0.0
  0
LINE
  8
0
 62
     0
 10
199.5
 20
102.629
 30
0.0
 11
213.499
 21
102.629
 31
0.0
  0
LINE
  8
0
 62
     0
 10
213.499
 20
102.629
 30
0.0
 11
213.499
 21
88.6284
 31
0.0
  0
LINE
  8
0
 62
     0
 10
213.499
 20
88.6284
 30
0.0
 11
199.5
 21
88.6284
 31
0.0
  0
LINE
  8
0
 62
     0
 10
199.5
 20
88.6284
 30
0.0
 11
199.5
 21
102.629
 31
0.0
  0
LINE
  8
0
 62
     0
 10
218.55
 20
102.629
 30
0.0
 11
232.549
 21
102.629
 31
0.0
  0
LINE
  8
0
 62
     0
 10
232.549
 20
102.629
 30
0.0
 11
232.549
 21
88.6284
 31
0.0
  0
LINE
  8
0
 62
     0
 10
232.549
 20
88.6284
 30
0.0
 11
218.55
 21
88.6284
 31
0.0
  0
LINE
  8
0
 62
     0
 10
218.55
 20
88.6284
 30
0.0
 11
218.55
 21
102.629
 31
0.0
  0
LINE
  8
0
 62
     0
 10
37.5751
 20
83.5794
 30
0.0
 11
51.5743
 21
83.5794
 31
0.0
  0
LINE
  8
0
 62
     0
 10
51.5743
 20
83.5794
 30
0.0
 11
51.5743
 21
69.5784
 31
0.0
  0
LINE
  8
0
 62
     0
 10
51.5743
 20
69.5784
 30
0.0
 11
37.5751
 21
69.5784
 31
0.0
  0
LINE
  8
0
 62
     0
 10
37.5751
 20
69.5784
 30
0.0
 11
37.5751
 21
83.5794
 31
0.0
  0
LINE
  8
0
 62
     0
 10
56.6251
 20
83.5794
 30
0.0
 11
70.6244
 21
83.5794
 31
0.0
  0
LINE
  8
0
 62
     0
 10
70.6244
 20
83.5794
 30
0.0
 11
70.6244
 21
69.5784
 31
0.0
  0
LINE
  8
0
 62
     0
 10
70.6244
 20
69.5784
 30
0.0
 11
56.6251
 21
69.5784
 31
0.0
  0
LINE
  8
0
 62
     0
 10
56.6251
 20
69.5784
 30
0.0
 11
56.6251
 21
83.5794
 31
0.0
  0
LINE
  8
0
 62
     0
 10
75.6751
 20
83.5794
 30
0.0
 11
89.6744
 21
83.5794
 31
0.0
  0
LINE
  8
0
 62
     0
 10
89.6744
 20
83.5794
 30
0.0
 11
89.6744
 21
69.5784
 31
0.0
  0
LINE
  8
0
 62
     0
 10
89.6744
 20
69.5784
 30
0.0
 11
75.6751
 21
69.5784
 31
0.0
  0
LINE
  8
0
 62
     0
 10
75.6751
 20
69.5784
 30
0.0
 11
75.6751
 21
83.5794
 31
0.0
  0
LINE
  8
0
 62
     0
 10
94.7251
 20
83.5794
 30
0.0
 11
108.724
 21
83.5794
 31
0.0
  0
LINE
  8
0
 62
     0
 10
108.724
 20
83.5794
 30
0.0
 11
108.724
 21
69.5784
 31
0.0
  0
LINE
  8
0
 62
     0
 10
108.724
 20
69.5784
 30
0.0
 11
94.7251
 21
69.5784
 31
0.0
  0
LINE
  8
0
 62
     0
 10
94.7251
 20
69.5784
 30
0.0
 11
94.7251
 21
83.5794
 31
0.0
  0
LINE
  8
0
 62
     0
 10
113.775
 20
83.5794
 30
0.0
 11
127.774
 21
83.5794
 31
0.0
  0
LINE
  8
0
 62
     0
 10
127.774
 20
83.5794
 30
0.0
 11
127.774
 21
69.5784
 31
0.0
  0
LINE
  8
0
 62
     0
 10
127.774
 20
69.5784
 30
0.0
 11
113.775
 21
69.5784
 31
0.0
  0
LINE
  8
0
 62
     0
 10
113.775
 20
69.5784
 30
0.0
 11
113.775
 21
83.5794
 31
0.0
  0
LINE
  8
0
 62
     0
 10
151.875
 20
83.5794
 30
0.0
 11
165.874
 21
83.5794
 31
0.0
  0
LINE
  8
0
 62
     0
 10
165.874
 20
83.5794
 30
0.0
 11
165.874
 21
69.5784
 31
0.0
  0
LINE
  8
0
 62
     0
 10
165.874
 20
69.5784
 30
0.0
 11
151.875
 21
69.5784
 31
0.0
  0
LINE
  8
0
 62
     0
 10
151.875
 20
69.5784
 30
0.0
 11
151.875
 21
83.5794
 31
0.0
  0
LINE
  8
0
 62
     0
 10
170.925
 20
83.5794
 30
0.0
 11
184.924
 21
83.5794
 31
0.0
  0
LINE
  8
0
 62
     0
 10
184.924
 20
83.5794
 30
0.0
 11
184.924
 21
69.5784
 31
0.0
  0
LINE
  8
0
 62
     0
 10
184.924
 20
69.5784
 30
0.0
 11
170.925
 21
69.5784
 31
0.0
  0
LINE
  8
0
 62
     0
 10
170.925
 20
69.5784
 30
0.0
 11
170.925
 21
83.5794
 31
0.0
  0
LINE
  8
0
 62
     0
 10
189.975
 20
83.5794
 30
0.0
 11
203.974
 21
83.5794
 31
0.0
  0
LINE
  8
0
 62
     0
 10
203.974
 20
83.5794
 30
0.0
 11
203.974
 21
69.5784
 31
0.0
  0
LINE
  8
0
 62
     0
 10
203.974
 20
69.5784
 30
0.0
 11
189.975
 21
69.5784
 31
0.0
  0
LINE
  8
0
 62
     0
 10
189.975
 20
69.5784
 30
0.0
 11
189.975
 21
83.5794
 31
0.0
  0
LINE
  8
0
 62
     0
 10
209.025
 20
83.5794
 30
0.0
 11
223.024
 21
83.5794
 31
0.0
  0
LINE
  8
0
 62
     0
 10
223.024
 20
83.5794
 30
0.0
 11
223.024
 21
69.5784
 31
0.0
  0
LINE
  8
0
 62
     0
 10
223.024
 20
69.5784
 30
0.0
 11
209.025
 21
69.5784
 31
0.0
  0
LINE
  8
0
 62
     0
 10
209.025
 20
69.5784
 30
0.0
 11
209.025
 21
83.5794
 31
0.0
  0
LINE
  8
0
 62
     0
 10
228.075
 20
83.5794
 30
0.0
 11
242.074
 21
83.5794
 31
0.0
  0
LINE
  8
0
 62
     0
 10
242.074
 20
83.5794
 30
0.0
 11
242.074
 21
69.5784
 31
0.0
  0
LINE
  8
0
 62
     0
 10
242.074
 20
69.5784
 30
0.0
 11
228.075
 21
69.5784
 31
0.0
  0
LINE
  8
0
 62
     0
 10
228.075
 20
69.5784
 30
0.0
 11
228.075
 21
83.5794
 31
0.0
  0
LINE
  8
0
 62
     0
 10
247.125
 20
83.5794
 30
0.0
 11
261.124
 21
83.5794
 31
0.0
  0
LINE
  8
0
 62
     0
 10
261.124
 20
83.5794
 30
0.0
 11
261.124
 21
69.5784
 31
0.0
  0
LINE
  8
0
 62
     0
 10
261.124
 20
69.5784
 30
0.0
 11
247.125
 21
69.5784
 31
0.0
  0
LINE
  8
0
 62
     0
 10
247.125
 20
69.5784
 30
0.0
 11
247.125
 21
83.5794
 31
0.0
  0
LINE
  8
0
 62
     0
 10
42.3376
 20
64.5294
 30
0.0
 11
56.3369
 21
64.5294
 31
0.0
  0
LINE
  8
0
 62
     0
 10
56.3369
 20
64.5294
 30
0.0
 11
56.3369
 21
50.5284
 31
0.0
  0
LINE
  8
0
 62
     0
 10
56.3369
 20
50.5284
 30
0.0
 11
42.3376
 21
50.5284
 31
0.0
  0
LINE
  8
0
 62
     0
 10
42.3376
 20
50.5284
 30
0.0
 11
42.3376
 21
64.5294
 31
0.0
  0
LINE
  8
0
 62
     0
 10
80.4376
 20
64.5294
 30
0.0
 11
94.4369
 21
64.5294
 31
0.0
  0
LINE
  8
0
 62
     0
 10
94.4369
 20
64.5294
 30
0.0
 11
94.4369
 21
50.5284
 31
0.0
  0
LINE
  8
0
 62
     0
 10
94.4369
 20
50.5284
 30
0.0
 11
80.4376
 21
50.5284
 31
0.0
  0
LINE
  8
0
 62
     0
 10
80.4376
 20
50.5284
 30
0.0
 11
80.4376
 21
64.5294
 31
0.0
  0
LINE
  8
0
 62
     0
 10
99.4876
 20
64.5294
 30
0.0
 11
113.487
 21
64.5294
 31
0.0
  0
LINE
  8
0
 62
     0
 10
113.487
 20
64.5294
 30
0.0
 11
113.487
 21
50.5284
 31
0.0
  0
LINE
  8
0
 62
     0
 10
113.487
 20
50.5284
 30
0.0
 11
99.4876
 21
50.5284
 31
0.0
  0
LINE
  8
0
 62
     0
 10
99.4876
 20
50.5284
 30
0.0
 11
99.4876
 21
64.5294
 31
0.0
  0
LINE
  8
0
 62
     0
 10
118.538
 20
64.5294
 30
0.0
 11
132.537
 21
64.5294
 31
0.0
  0
LINE
  8
0
 62
     0
 10
132.537
 20
64.5294
 30
0.0
 11
132.537
 21
50.5284
 31
0.0
  0
LINE
  8
0
 62
     0
 10
132.537
 20
50.5284
 30
0.0
 11
118.538
 21
50.5284
 31
0.0
  0
LINE
  8
0
 62
     0
 10
118.538
 20
50.5284
 30
0.0
 11
118.538
 21
64.5294
 31
0.0
  0
LINE
  8
0
 62
     0
 10
175.688
 20
64.5294
 30
0.0
 11
189.687
 21
64.5294
 31
0.0
  0
LINE
  8
0
 62
     0
 10
189.687
 20
64.5294
 30
0.0
 11
189.687
 21
50.5284
 31
0.0
  0
LINE
  8
0
 62
     0
 10
189.687
 20
50.5284
 30
0.0
 11
175.688
 21
50.5284
 31
0.0
  0
LINE
  8
0
 62
     0
 10
175.688
 20
50.5284
 30
0.0
 11
175.688
 21
64.5294
 31
0.0
  0
LINE
  8
0
 62
     0
 10
213.788
 20
64.5294
 30
0.0
 11
227.787
 21
64.5294
 31
0.0
  0
LINE
  8
0
 62
     0
 10
227.787
 20
64.5294
 30
0.0
 11
227.787
 21
50.5284
 31
0.0
  0
LINE
  8
0
 62
     0
 10
227.787
 20
50.5284
 30
0.0
 11
213.788
 21
50.5284
 31
0.0
  0
LINE
  8
0
 62
     0
 10
213.788
 20
50.5284
 30
0.0
 11
213.788
 21
64.5294
 31
0.0
  0
LINE
  8
0
 62
     0
 10
232.838
 20
64.5294
 30
0.0
 11
246.837
 21
64.5294
 31
0.0
  0
LINE
  8
0
 62
     0
 10
246.837
 20
64.5294
 30
0.0
 11
246.837
 21
50.5284
 31
0.0
  0
LINE
  8
0
 62
     0
 10
246.837
 20
50.5284
 30
0.0
 11
232.838
 21
50.5284
 31
0.0
  0
LINE
  8
0
 62
     0
 10
232.838
 20
50.5284
 30
0.0
 11
232.838
 21
64.5294
 31
0.0
  0
LINE
  8
0
 62
     0
 10
147.113
 20
45.4794
 30
0.0
 11
161.112
 21
45.4794
 31
0.0
  0
LINE
  8
0
 62
     0
 10
161.112
 20
45.4794
 30
0.0
 11
161.112
 21
31.4785
 31
0.0
  0
LINE
  8
0
 62
     0
 10
161.112
 20
31.4785
 30
0.0
 11
147.113
 21
31.4785
 31
0.0
  0
LINE
  8
0
 62
     0
 10
147.113
 20
31.4785
 30
0.0
 11
147.113
 21
45.4794
 31
0.0
  0
LINE
  8
0
 62
     0
 10
166.163
 20
45.4794
 30
0.0
 11
180.162
 21
45.4794
 31
0.0
  0
LINE
  8
0
 62
     0
 10
180.162
 20
45.4794
 30
0.0
 11
180.162
 21
31.4785
 31
0.0
  0
LINE
  8
0
 62
     0
 10
180.162
 20
31.4785
 30
0.0
 11
166.163
 21
31.4785
 31
0.0
  0
LINE
  8
0
 62
     0
 10
166.163
 20
31.4785
 30
0.0
 11
166.163
 21
45.4794
 31
0.0
  0
LINE
  8
0
 62
     0
 10
204.263
 20
45.4794
 30
0.0
 11
218.262
 21
45.4794
 31
0.0
  0
LINE
  8
0
 62
     0
 10
218.262
 20
45.4794
 30
0.0
 11
218.262
 21
31.4785
 31
0.0
  0
LINE
  8
0
 62
     0
 10
218.262
 20
31.4785
 30
0.0
 11
204.263
 21
31.4785
 31
0.0
  0
LINE
  8
0
 62
     0
 10
204.263
 20
31.4785
 30
0.0
 11
204.263
 21
45.4794
 31
0.0
  0
LINE
  8
0
 62
     0
 10
223.313
 20
45.4794
 30
0.0
 11
237.312
 21
45.4794
 31
0.0
  0
LINE
  8
0
 62
     0
 10
237.312
 20
45.4794
 30
0.0
 11
237.312
 21
31.4785
 31
0.0
  0
LINE
  8
0
 62
     0
 10
237.312
 20
31.4785
 30
0.0
 11
223.313
 21
31.4785
 31
0.0
  0
LINE
  8
0
 62
     0
 10
223.313
 20
31.4785
 30
0.0
 11
223.313
 21
45.4794
 31
0.0
  0
LINE
  8
0
 62
     0
 10
185.213
 20
45.4794
 30
0.0
 11
199.212
 21
45.4794
 31
0.0
  0
LINE
  8
0
 62
     0
 10
199.212
 20
45.4794
 30
0.0
 11
199.212
 21
31.4785
 31
0.0
  0
LINE
  8
0
 62
     0
 10
199.212
 20
31.4785
 30
0.0
 11
185.213
 21
31.4785
 31
0.0
  0
LINE
  8
0
 62
     0
 10
185.213
 20
31.4785
 30
0.0
 11
185.213
 21
45.4794
 31
0.0
  0
LINE
  8
0
 62
     0
 10
128.063
 20
45.4794
 30
0.0
 11
142.062
 21
45.4794
 31
0.0
  0
LINE
  8
0
 62
     0
 10
142.062
 20
45.4794
 30
0.0
 11
142.062
 21
31.4785
 31
0.0
  0
LINE
  8
0
 62
     0
 10
142.062
 20
31.4785
 30
0.0
 11
128.063
 21
31.4785
 31
0.0
  0
LINE
  8
0
 62
     0
 10
128.063
 20
31.4785
 30
0.0
 11
128.063
 21
45.4794
 31
0.0
  0
LINE
  8
0
 62
     0
 10
109.013
 20
45.4794
 30
0.0
 11
123.012
 21
45.4794
 31
0.0
  0
LINE
  8
0
 62
     0
 10
123.012
 20
45.4794
 30
0.0
 11
123.012
 21
31.4785
 31
0.0
  0
LINE
  8
0
 62
     0
 10
123.012
 20
31.4785
 30
0.0
 11
109.013
 21
31.4785
 31
0.0
  0
LINE
  8
0
 62
     0
 10
109.013
 20
31.4785
 30
0.0
 11
109.013
 21
45.4794
 31
0.0
  0
LINE
  8
0
 62
     0
 10
89.9626
 20
45.4794
 30
0.0
 11
103.962
 21
45.4794
 31
0.0
  0
LINE
  8
0
 62
     0
 10
103.962
 20
45.4794
 30
0.0
 11
103.962
 21
31.4785
 31
0.0
  0
LINE
  8
0
 62
     0
 10
103.962
 20
31.4785
 30
0.0
 11
89.9626
 21
31.4785
 31
0.0
  0
LINE
  8
0
 62
     0
 10
89.9626
 20
31.4785
 30
0.0
 11
89.9626
 21
45.4794
 31
0.0
  0
LINE
  8
0
 62
     0
 10
70.9126
 20
45.4794
 30
0.0
 11
84.9119
 21
45.4794
 31
0.0
  0
LINE
  8
0
 62
     0
 10
84.9119
 20
45.4794
 30
0.0
 11
84.9119
 21
31.4785
 31
0.0
  0
LINE
  8
0
 62
     0
 10
84.9119
 20
31.4785
 30
0.0
 11
70.9126
 21
31.4785
 31
0.0
  0
LINE
  8
0
 62
     0
 10
70.9126
 20
31.4785
 30
0.0
 11
70.9126
 21
45.4794
 31
0.0
  0
LINE
  8
0
 62
     0
 10
51.8626
 20
45.4794
 30
0.0
 11
65.8619
 21
45.4794
 31
0.0
  0
LINE
  8
0
 62
     0
 10
65.8619
 20
45.4794
 30
0.0
 11
65.8619
 21
31.4785
 31
0.0
  0
LINE
  8
0
 62
     0
 10
65.8619
 20
31.4785
 30
0.0
 11
51.8626
 21
31.4785
 31
0.0
  0
LINE
  8
0
 62
     0
 10
51.8626
 20
31.4785
 30
0.0
 11
51.8626
 21
45.4794
 31
0.0
  0
LINE
  8
0
 62
     0
 10
194.738
 20
64.5294
 30
0.0
 11
208.737
 21
64.5294
 31
0.0
  0
LINE
  8
0
 62
     0
 10
208.737
 20
64.5294
 30
0.0
 11
208.737
 21
50.5284
 31
0.0
  0
LINE
  8
0
 62
     0
 10
208.737
 20
50.5284
 30
0.0
 11
194.738
 21
50.5284
 31
0.0
  0
LINE
  8
0
 62
     0
 10
194.738
 20
50.5284
 30
0.0
 11
194.738
 21
64.5294
 31
0.0
  0
LINE
  8
0
 62
     0
 10
156.638
 20
64.5294
 30
0.0
 11
170.637
 21
64.5294
 31
0.0
  0
LINE
  8
0
 62
     0
 10
170.637
 20
64.5294
 30
0.0
 11
170.637
 21
50.5284
 31
0.0
  0
LINE
  8
0
 62
     0
 10
170.637
 20
50.5284
 30
0.0
 11
156.638
 21
50.5284
 31
0.0
  0
LINE
  8
0
 62
     0
 10
156.638
 20
50.5284
 30
0.0
 11
156.638
 21
64.5294
 31
0.0
  0
LINE
  8
0
 62
     0
 10
137.588
 20
64.5294
 30
0.0
 11
151.587
 21
64.5294
 31
0.0
  0
LINE
  8
0
 62
     0
 10
151.587
 20
64.5294
 30
0.0
 11
151.587
 21
50.5284
 31
0.0
  0
LINE
  8
0
 62
     0
 10
151.587
 20
50.5284
 30
0.0
 11
137.588
 21
50.5284
 31
0.0
  0
LINE
  8
0
 62
     0
 10
137.588
 20
50.5284
 30
0.0
 11
137.588
 21
64.5294
 31
0.0
  0
LINE
  8
0
 62
     0
 10
61.3876
 20
64.5294
 30
0.0
 11
75.3869
 21
64.5294
 31
0.0
  0
LINE
  8
0
 62
     0
 10
75.3869
 20
64.5294
 30
0.0
 11
75.3869
 21
50.5284
 31
0.0
  0
LINE
  8
0
 62
     0
 10
75.3869
 20
50.5284
 30
0.0
 11
61.3876
 21
50.5284
 31
0.0
  0
LINE
  8
0
 62
     0
 10
61.3876
 20
50.5284
 30
0.0
 11
61.3876
 21
64.5294
 31
0.0
  0
LINE
  8
0
 62
     0
 10
132.825
 20
83.5794
 30
0.0
 11
146.824
 21
83.5794
 31
0.0
  0
LINE
  8
0
 62
     0
 10
146.824
 20
83.5794
 30
0.0
 11
146.824
 21
69.5784
 31
0.0
  0
LINE
  8
0
 62
     0
 10
146.824
 20
69.5784
 30
0.0
 11
132.825
 21
69.5784
 31
0.0
  0
LINE
  8
0
 62
     0
 10
132.825
 20
69.5784
 30
0.0
 11
132.825
 21
83.5794
 31
0.0
  0
LINE
  8
0
 62
     0
 10
237.6
 20
102.629
 30
0.0
 11
251.599
 21
102.629
 31
0.0
  0
LINE
  8
0
 62
     0
 10
251.599
 20
102.629
 30
0.0
 11
251.599
 21
88.6284
 31
0.0
  0
LINE
  8
0
 62
     0
 10
251.599
 20
88.6284
 30
0.0
 11
237.6
 21
88.6284
 31
0.0
  0
LINE
  8
0
 62
     0
 10
237.6
 20
88.6284
 30
0.0
 11
237.6
 21
102.629
 31
0.0
  0
LINE
  8
0
 62
     0
 10
180.45
 20
102.629
 30
0.0
 11
194.449
 21
102.629
 31
0.0
  0
LINE
  8
0
 62
     0
 10
194.449
 20
102.629
 30
0.0
 11
194.449
 21
88.6284
 31
0.0
  0
LINE
  8
0
 62
     0
 10
194.449
 20
88.6284
 30
0.0
 11
180.45
 21
88.6284
 31
0.0
  0
LINE
  8
0
 62
     0
 10
180.45
 20
88.6284
 30
0.0
 11
180.45
 21
102.629
 31
0.0
  0
LINE
  8
0
 62
     0
 10
161.4
 20
102.629
 30
0.0
 11
175.399
 21
102.629
 31
0.0
  0
LINE
  8
0
 62
     0
 10
175.399
 20
102.629
 30
0.0
 11
175.399
 21
88.6284
 31
0.0
  0
LINE
  8
0
 62
     0
 10
175.399
 20
88.6284
 30
0.0
 11
161.4
 21
88.6284
 31
0.0
  0
LINE
  8
0
 62
     0
 10
161.4
 20
88.6284
 30
0.0
 11
161.4
 21
102.629
 31
0.0
  0
LINE
  8
0
 62
     0
 10
123.3
 20
102.629
 30
0.0
 11
137.299
 21
102.629
 31
0.0
  0
LINE
  8
0
 62
     0
 10
137.299
 20
102.629
 30
0.0
 11
137.299
 21
88.6284
 31
0.0
  0
LINE
  8
0
 62
     0
 10
137.299
 20
88.6284
 30
0.0
 11
123.3
 21
88.6284
 31
0.0
  0
LINE
  8
0
 62
     0
 10
123.3
 20
88.6284
 30
0.0
 11
123.3
 21
102.629
 31
0.0
  0
LINE
  8
0
 62
     0
 10
104.25
 20
102.629
 30
0.0
 11
118.249
 21
102.629
 31
0.0
  0
LINE
  8
0
 62
     0
 10
118.249
 20
102.629
 30
0.0
 11
118.249
 21
88.6284
 31
0.0
  0
LINE
  8
0
 62
     0
 10
118.249
 20
88.6284
 30
0.0
 11
104.25
 21
88.6284
 31
0.0
  0
LINE
  8
0
 62
     0
 10
104.25
 20
88.6284
 30
0.0
 11
104.25
 21
102.629
 31
0.0
  0
LINE
  8
0
 62
     0
 10
85.2001
 20
126.442
 30
0.0
 11
99.1994
 21
126.442
 31
0.0
  0
LINE
  8
0
 62
     0
 10
99.1994
 20
126.442
 30
0.0
 11
99.1994
 21
112.441
 31
0.0
  0
LINE
  8
0
 62
     0
 10
99.1994
 20
112.441
 30
0.0
 11
85.2001
 21
112.441
 31
0.0
  0
LINE
  8
0
 62
     0
 10
85.2001
 20
112.441
 30
0.0
 11
85.2001
 21
126.442
 31
0.0
  0
LINE
  8
0
 62
     0
 10
151.875
 20
126.442
 30
0.0
 11
165.874
 21
126.442
 31
0.0
  0
LINE
  8
0
 62
     0
 10
165.874
 20
126.442
 30
0.0
 11
165.874
 21
112.441
 31
0.0
  0
LINE
  8
0
 62
     0
 10
165.874
 20
112.441
 30
0.0
 11
151.875
 21
112.441
 31
0.0
  0
LINE
  8
0
 62
     0
 10
151.875
 20
112.441
 30
0.0
 11
151.875
 21
126.442
 31
0.0
  0
LINE
  8
0
 62
     0
 10
256.65
 20
126.442
 30
0.0
 11
270.649
 21
126.442
 31
0.0
  0
LINE
  8
0
 62
     0
 10
270.649
 20
126.442
 30
0.0
 11
270.649
 21
112.441
 31
0.0
  0
LINE
  8
0
 62
     0
 10
270.649
 20
112.441
 30
0.0
 11
256.65
 21
112.441
 31
0.0
  0
LINE
  8
0
 62
     0
 10
256.65
 20
112.441
 30
0.0
 11
256.65
 21
126.442
 31
0.0
  0
LINE
  8
0
 62
     0
 10
318.563
 20
126.442
 30
0.0
 11
332.562
 21
126.442
 31
0.0
  0
LINE
  8
0
 62
     0
 10
332.562
 20
126.442
 30
0.0
 11
332.562
 21
112.441
 31
0.0
  0
LINE
  8
0
 62
     0
 10
332.562
 20
112.441
 30
0.0
 11
318.563
 21
112.441
 31
0.0
  0
LINE
  8
0
 62
     0
 10
318.563
 20
112.441
 30
0.0
 11
318.563
 21
126.442
 31
0.0
  0
LINE
  8
0
 62
     0
 10
337.613
 20
126.442
 30
0.0
 11
351.612
 21
126.442
 31
0.0
  0
LINE
  8
0
 62
     0
 10
351.612
 20
126.442
 30
0.0
 11
351.612
 21
112.441
 31
0.0
  0
LINE
  8
0
 62
     0
 10
351.612
 20
112.441
 30
0.0
 11
337.613
 21
112.441
 31
0.0
  0
LINE
  8
0
 62
     0
 10
337.613
 20
112.441
 30
0.0
 11
337.613
 21
126.442
 31
0.0
  0
LINE
  8
0
 62
     0
 10
299.513
 20
126.442
 30
0.0
 11
313.512
 21
126.442
 31
0.0
  0
LINE
  8
0
 62
     0
 10
313.512
 20
126.442
 30
0.0
 11
313.512
 21
112.441
 31
0.0
  0
LINE
  8
0
 62
     0
 10
313.512
 20
112.441
 30
0.0
 11
299.513
 21
112.441
 31
0.0
  0
LINE
  8
0
 62
     0
 10
299.513
 20
112.441
 30
0.0
 11
299.513
 21
126.442
 31
0.0
  0
LINE
  8
0
 62
     0
 10
275.7
 20
126.442
 30
0.0
 11
289.699
 21
126.442
 31
0.0
  0
LINE
  8
0
 62
     0
 10
289.699
 20
126.442
 30
0.0
 11
289.699
 21
112.441
 31
0.0
  0
LINE
  8
0
 62
     0
 10
289.699
 20
112.441
 30
0.0
 11
275.7
 21
112.441
 31
0.0
  0
LINE
  8
0
 62
     0
 10
275.7
 20
112.441
 30
0.0
 11
275.7
 21
126.442
 31
0.0
  0
LINE
  8
0
 62
     0
 10
237.6
 20
126.442
 30
0.0
 11
251.599
 21
126.442
 31
0.0
  0
LINE
  8
0
 62
     0
 10
251.599
 20
126.442
 30
0.0
 11
251.599
 21
112.441
 31
0.0
  0
LINE
  8
0
 62
     0
 10
251.599
 20
112.441
 30
0.0
 11
237.6
 21
112.441
 31
0.0
  0
LINE
  8
0
 62
     0
 10
237.6
 20
112.441
 30
0.0
 11
237.6
 21
126.442
 31
0.0
  0
LINE
  8
0
 62
     0
 10
218.55
 20
126.442
 30
0.0
 11
232.549
 21
126.442
 31
0.0
  0
LINE
  8
0
 62
     0
 10
232.549
 20
126.442
 30
0.0
 11
232.549
 21
112.441
 31
0.0
  0
LINE
  8
0
 62
     0
 10
232.549
 20
112.441
 30
0.0
 11
218.55
 21
112.441
 31
0.0
  0
LINE
  8
0
 62
     0
 10
218.55
 20
112.441
 30
0.0
 11
218.55
 21
126.442
 31
0.0
  0
LINE
  8
0
 62
     0
 10
189.975
 20
126.442
 30
0.0
 11
203.974
 21
126.442
 31
0.0
  0
LINE
  8
0
 62
     0
 10
203.974
 20
126.442
 30
0.0
 11
203.974
 21
112.441
 31
0.0
  0
LINE
  8
0
 62
     0
 10
203.974
 20
112.441
 30
0.0
 11
189.975
 21
112.441
 31
0.0
  0
LINE
  8
0
 62
     0
 10
189.975
 20
112.441
 30
0.0
 11
189.975
 21
126.442
 31
0.0
  0
LINE
  8
0
 62
     0
 10
170.925
 20
126.442
 30
0.0
 11
184.924
 21
126.442
 31
0.0
  0
LINE
  8
0
 62
     0
 10
184.924
 20
126.442
 30
0.0
 11
184.924
 21
112.441
 31
0.0
  0
LINE
  8
0
 62
     0
 10
184.924
 20
112.441
 30
0.0
 11
170.925
 21
112.441
 31
0.0
  0
LINE
  8
0
 62
     0
 10
170.925
 20
112.441
 30
0.0
 11
170.925
 21
126.442
 31
0.0
  0
LINE
  8
0
 62
     0
 10
132.825
 20
126.442
 30
0.0
 11
146.824
 21
126.442
 31
0.0
  0
LINE
  8
0
 62
     0
 10
146.824
 20
126.442
 30
0.0
 11
146.824
 21
112.441
 31
0.0
  0
LINE
  8
0
 62
     0
 10
146.824
 20
112.441
 30
0.0
 11
132.825
 21
112.441
 31
0.0
  0
LINE
  8
0
 62
     0
 10
132.825
 20
112.441
 30
0.0
 11
132.825
 21
126.442
 31
0.0
  0
LINE
  8
0
 62
     0
 10
104.25
 20
126.442
 30
0.0
 11
118.249
 21
126.442
 31
0.0
  0
LINE
  8
0
 62
     0
 10
118.249
 20
126.442
 30
0.0
 11
118.249
 21
112.441
 31
0.0
  0
LINE
  8
0
 62
     0
 10
118.249
 20
112.441
 30
0.0
 11
104.25
 21
112.441
 31
0.0
  0
LINE
  8
0
 62
     0
 10
104.25
 20
112.441
 30
0.0
 11
104.25
 21
126.442
 31
0.0
  0
LINE
  8
0
 62
     0
 10
66.1501
 20
126.442
 30
0.0
 11
80.1494
 21
126.442
 31
0.0
  0
LINE
  8
0
 62
     0
 10
80.1494
 20
126.442
 30
0.0
 11
80.1494
 21
112.441
 31
0.0
  0
LINE
  8
0
 62
     0
 10
80.1494
 20
112.441
 30
0.0
 11
66.1501
 21
112.441
 31
0.0
  0
LINE
  8
0
 62
     0
 10
66.1501
 20
112.441
 30
0.0
 11
66.1501
 21
126.442
 31
0.0
  0
LINE
  8
0
 62
     0
 10
47.1001
 20
126.442
 30
0.0
 11
61.0994
 21
126.442
 31
0.0
  0
LINE
  8
0
 62
     0
 10
61.0994
 20
126.442
 30
0.0
 11
61.0994
 21
112.441
 31
0.0
  0
LINE
  8
0
 62
     0
 10
61.0994
 20
112.441
 30
0.0
 11
47.1001
 21
112.441
 31
0.0
  0
LINE
  8
0
 62
     0
 10
47.1001
 20
112.441
 30
0.0
 11
47.1001
 21
126.442
 31
0.0
  0
LINE
  8
0
 62
     0
 10
8.99996
 20
126.442
 30
0.0
 11
22.9995
 21
126.442
 31
0.0
  0
LINE
  8
0
 62
     0
 10
22.9995
 20
126.442
 30
0.0
 11
22.9995
 21
112.441
 31
0.0
  0
LINE
  8
0
 62
     0
 10
22.9995
 20
112.441
 30
0.0
 11
8.99996
 21
112.441
 31
0.0
  0
LINE
  8
0
 62
     0
 10
8.99996
 20
112.441
 30
0.0
 11
8.99996
 21
126.442
 31
0.0
  0
LINE
  8
0
 62
     0
 10
299.513
 20
102.629
 30
0.0
 11
313.512
 21
102.629
 31
0.0
  0
LINE
  8
0
 62
     0
 10
313.512
 20
102.629
 30
0.0
 11
313.512
 21
88.6284
 31
0.0
  0
LINE
  8
0
 62
     0
 10
313.512
 20
88.6284
 30
0.0
 11
299.513
 21
88.6284
 31
0.0
  0
LINE
  8
0
 62
     0
 10
299.513
 20
88.6284
 30
0.0
 11
299.513
 21
102.629
 31
0.0
  0
LINE
  8
0
 62
     0
 10
299.513
 20
83.5794
 30
0.0
 11
313.512
 21
83.5794
 31
0.0
  0
LINE
  8
0
 62
     0
 10
313.512
 20
83.5794
 30
0.0
 11
313.512
 21
69.5784
 31
0.0
  0
LINE
  8
0
 62
     0
 10
313.512
 20
69.5784
 30
0.0
 11
299.513
 21
69.5784
 31
0.0
  0
LINE
  8
0
 62
     0
 10
299.513
 20
69.5784
 30
0.0
 11
299.513
 21
83.5794
 31
0.0
  0
LINE
  8
0
 62
     0
 10
337.613
 20
83.5794
 30
0.0
 11
351.612
 21
83.5794
 31
0.0
  0
LINE
  8
0
 62
     0
 10
351.612
 20
83.5794
 30
0.0
 11
351.612
 21
69.5784
 31
0.0
  0
LINE
  8
0
 62
     0
 10
351.612
 20
69.5784
 30
0.0
 11
337.613
 21
69.5784
 31
0.0
  0
LINE
  8
0
 62
     0
 10
337.613
 20
69.5784
 30
0.0
 11
337.613
 21
83.5794
 31
0.0
  0
LINE
  8
0
 62
     0
 10
318.563
 20
45.4794
 30
0.0
 11
332.562
 21
45.4794
 31
0.0
  0
LINE
  8
0
 62
     0
 10
332.562
 20
45.4794
 30
0.0
 11
332.562
 21
31.4785
 31
0.0
  0
LINE
  8
0
 62
     0
 10
332.562
 20
31.4785
 30
0.0
 11
318.563
 21
31.4785
 31
0.0
  0
LINE
  8
0
 62
     0
 10
318.563
 20
31.4785
 30
0.0
 11
318.563
 21
45.4794
 31
0.0
  0
LINE
  8
0
 62
     0
 10
318.563
 20
26.4294
 30
0.0
 11
332.562
 21
26.4294
 31
0.0
  0
LINE
  8
0
 62
     0
 10
332.562
 20
26.4294
 30
0.0
 11
332.562
 21
12.4285
 31
0.0
  0
LINE
  8
0
 62
     0
 10
332.562
 20
12.4285
 30
0.0
 11
318.563
 21
12.4285
 31
0.0
  0
LINE
  8
0
 62
     0
 10
318.563
 20
12.4285
 30
0.0
 11
318.563
 21
26.4294
 31
0.0
  0
LINE
  8
0
 62
     0
 10
337.613
 20
26.4294
 30
0.0
 11
351.612
 21
26.4294
 31
0.0
  0
LINE
  8
0
 62
     0
 10
351.612
 20
26.4294
 30
0.0
 11
351.612
 21
12.4285
 31
0.0
  0
LINE
  8
0
 62
     0
 10
351.612
 20
12.4285
 30
0.0
 11
337.613
 21
12.4285
 31
0.0
  0
LINE
  8
0
 62
     0
 10
337.613
 20
12.4285
 30
0.0
 11
337.613
 21
26.4294
 31
0.0
  0
LINE
  8
0
 62
     0
 10
299.513
 20
26.4294
 30
0.0
 11
313.512
 21
26.4294
 31
0.0
  0
LINE
  8
0
 62
     0
 10
313.512
 20
26.4294
 30
0.0
 11
313.512
 21
12.4285
 31
0.0
  0
LINE
  8
0
 62
     0
 10
313.512
 20
12.4285
 30
0.0
 11
299.513
 21
12.4285
 31
0.0
  0
LINE
  8
0
 62
     0
 10
299.513
 20
12.4285
 30
0.0
 11
299.513
 21
26.4294
 31
0.0
  0
LINE
  8
0
 62
     0
 10
318.563
 20
83.5794
 30
0.0
 11
332.562
 21
83.5794
 31
0.0
  0
LINE
  8
0
 62
     0
 10
332.562
 20
83.5794
 30
0.0
 11
332.562
 21
69.5784
 31
0.0
  0
LINE
  8
0
 62
     0
 10
332.562
 20
69.5784
 30
0.0
 11
318.563
 21
69.5784
 31
0.0
  0
LINE
  8
0
 62
     0
 10
318.563
 20
69.5784
 30
0.0
 11
318.563
 21
83.5794
 31
0.0
  0
LINE
  8
0
 62
     0
 10
337.613
 20
102.629
 30
0.0
 11
351.612
 21
102.629
 31
0.0
  0
LINE
  8
0
 62
     0
 10
351.612
 20
102.629
 30
0.0
 11
351.612
 21
88.6284
 31
0.0
  0
LINE
  8
0
 62
     0
 10
351.612
 20
88.6284
 30
0.0
 11
337.613
 21
88.6284
 31
0.0
  0
LINE
  8
0
 62
     0
 10
337.613
 20
88.6284
 30
0.0
 11
337.613
 21
102.629
 31
0.0
  0
LINE
  8
0
 62
     0
 10
318.563
 20
102.629
 30
0.0
 11
332.562
 21
102.629
 31
0.0
  0
LINE
  8
0
 62
     0
 10
332.562
 20
102.629
 30
0.0
 11
332.562
 21
88.6284
 31
0.0
  0
LINE
  8
0
 62
     0
 10
332.562
 20
88.6284
 30
0.0
 11
318.563
 21
88.6284
 31
0.0
  0
LINE
  8
0
 62
     0
 10
318.563
 20
88.6284
 30
0.0
 11
318.563
 21
102.629
 31
0.0
  0
LINE
  8
0
 62
     0
 10
257.594
 20
45.4794
 30
0.0
 11
257.594
 21
46.9787
 31
0.0
  0
LINE
  8
0
 62
     0
 10
257.594
 20
46.9787
 30
0.0
 11
250.594
 21
46.9787
 31
0.0
  0
LINE
  8
0
 62
     0
 10
250.594
 20
46.9787
 30
0.0
 11
250.594
 21
45.4794
 31
0.0
  0
LINE
  8
0
 62
     0
 10
250.594
 20
45.4794
 30
0.0
 11
249.506
 21
45.4794
 31
0.0
  0
LINE
  8
0
 62
     0
 10
249.506
 20
45.4794
 30
0.0
 11
249.506
 21
31.4785
 31
0.0
  0
LINE
  8
0
 62
     0
 10
249.506
 20
31.4785
 30
0.0
 11
250.594
 21
31.4785
 31
0.0
  0
LINE
  8
0
 62
     0
 10
250.594
 20
31.4785
 30
0.0
 11
250.594
 21
28.9788
 31
0.0
  0
LINE
  8
0
 62
     0
 10
250.594
 20
28.9788
 30
0.0
 11
257.594
 21
28.9788
 31
0.0
  0
LINE
  8
0
 62
     0
 10
257.594
 20
28.9788
 30
0.0
 11
257.594
 21
31.4785
 31
0.0
  0
LINE
  8
0
 62
     0
 10
257.594
 20
31.4785
 30
0.0
 11
273.031
 21
31.4785
 31
0.0
  0
LINE
  8
0
 62
     0
 10
273.031
 20
31.4785
 30
0.0
 11
273.031
 21
45.4794
 31
0.0
  0
LINE
  8
0
 62
     0
 10
273.031
 20
45.4794
 30
0.0
 11
257.594
 21
45.4794
 31
0.0
  0
LINE
  8
0
 62
     0
 10
281.47
 20
45.4794
 30
0.0
 11
281.47
 21
46.9787
 31
0.0
  0
LINE
  8
0
 62
     0
 10
281.47
 20
46.9787
 30
0.0
 11
274.469
 21
46.9787
 31
0.0
  0
LINE
  8
0
 62
     0
 10
274.469
 20
46.9787
 30
0.0
 11
274.469
 21
28.9788
 31
0.0
  0
LINE
  8
0
 62
     0
 10
274.469
 20
28.9788
 30
0.0
 11
281.47
 21
28.9788
 31
0.0
  0
LINE
  8
0
 62
     0
 10
281.47
 20
28.9788
 30
0.0
 11
281.47
 21
31.4785
 31
0.0
  0
LINE
  8
0
 62
     0
 10
281.47
 20
31.4785
 30
0.0
 11
289.699
 21
31.4785
 31
0.0
  0
LINE
  8
0
 62
     0
 10
289.699
 20
31.4785
 30
0.0
 11
289.699
 21
45.4794
 31
0.0
  0
LINE
  8
0
 62
     0
 10
289.699
 20
45.4794
 30
0.0
 11
281.47
 21
45.4794
 31
0.0
  0
LINE
  8
0
 62
     0
 10
12.0606
 20
0.668348
 30
0.0
 11
12.1309
 21
0.598068
 31
0.0
  0
LINE
  8
0
 62
     0
 10
12.1309
 20
0.598068
 30
0.0
 11
12.547
 21
0.343131
 31
0.0
  0
LINE
  8
0
 62
     0
 10
12.547
 20
0.343131
 30
0.0
 11
12.977
 21
0.228755
 31
0.0
  0
LINE
  8
0
 62
     0
 10
12.977
 20
0.228755
 30
0.0
 11
13.1217
 21
0.228755
 31
0.0
  0
LINE
  8
0
 62
     0
 10
12.0606
 20
0.668348
 30
0.0
 11
0.439593
 21
12.2893
 31
0.0
  0
LINE
  8
0
 62
     0
 10
0
 20
13.3505
 30
0.0
 11
0
 21
13.2071
 31
0.0
  0
LINE
  8
0
 62
     0
 10
0
 20
13.2071
 30
0.0
 11
0.114377
 21
12.7772
 31
0.0
  0
LINE
  8
0
 62
     0
 10
0.114377
 20
12.7772
 30
0.0
 11
0.369316
 21
12.3596
 31
0.0
  0
LINE
  8
0
 62
     0
 10
0.369316
 20
12.3596
 30
0.0
 11
0.439593
 21
12.2893
 31
0.0
  0
LINE
  8
0
 62
     0
 10
0
 20
13.3505
 30
0.0
 11
0
 21
125.52
 31
0.0
  0
LINE
  8
0
 62
     0
 10
0.439593
 20
126.581
 30
0.0
 11
0.369316
 21
126.511
 31
0.0
  0
LINE
  8
0
 62
     0
 10
0.369316
 20
126.511
 30
0.0
 11
0.114377
 21
126.095
 31
0.0
  0
LINE
  8
0
 62
     0
 10
0.114377
 20
126.095
 30
0.0
 11
0
 21
125.665
 31
0.0
  0
LINE
  8
0
 62
     0
 10
0
 20
125.665
 30
0.0
 11
0
 21
125.52
 31
0.0
  0
LINE
  8
0
 62
     0
 10
0.439593
 20
126.581
 30
0.0
 11
12.0606
 21
138.202
 31
0.0
  0
LINE
  8
0
 62
     0
 10
13.1217
 20
138.642
 30
0.0
 11
12.977
 21
138.642
 31
0.0
  0
LINE
  8
0
 62
     0
 10
12.977
 20
138.642
 30
0.0
 11
12.547
 21
138.527
 31
0.0
  0
LINE
  8
0
 62
     0
 10
12.547
 20
138.527
 30
0.0
 11
12.1309
 21
138.272
 31
0.0
  0
LINE
  8
0
 62
     0
 10
12.1309
 20
138.272
 30
0.0
 11
12.0606
 21
138.202
 31
0.0
  0
LINE
  8
0
 62
     0
 10
13.1217
 20
138.642
 30
0.0
 11
13.3863
 21
138.642
 31
0.0
  0
LINE
  8
0
 62
     0
 10
14.0574
 20
138.227
 30
0.0
 11
14.0257
 21
138.292
 31
0.0
  0
LINE
  8
0
 62
     0
 10
14.0257
 20
138.292
 30
0.0
 11
13.7804
 21
138.53
 31
0.0
  0
LINE
  8
0
 62
     0
 10
13.7804
 20
138.53
 30
0.0
 11
13.4841
 21
138.642
 31
0.0
  0
LINE
  8
0
 62
     0
 10
13.4841
 20
138.642
 30
0.0
 11
13.3863
 21
138.642
 31
0.0
  0
LINE
  8
0
 62
     0
 10
14.0574
 20
138.227
 30
0.0
 11
14.5852
 21
137.17
 31
0.0
  0
LINE
  8
0
 62
     0
 10
14.3964
 20
136.259
 30
0.0
 11
14.4625
 21
136.315
 31
0.0
  0
LINE
  8
0
 62
     0
 10
14.4625
 20
136.315
 30
0.0
 11
14.6485
 21
136.682
 31
0.0
  0
LINE
  8
0
 62
     0
 10
14.6485
 20
136.682
 30
0.0
 11
14.6237
 21
137.093
 31
0.0
  0
LINE
  8
0
 62
     0
 10
14.6237
 20
137.093
 30
0.0
 11
14.5852
 21
137.17
 31
0.0
  0
LINE
  8
0
 62
     0
 10
14.3964
 20
136.259
 30
0.0
 11
14.2503
 21
136.138
 31
0.0
  0
LINE
  8
0
 62
     0
 10
14.2503
 20
136.138
 30
0.0
 11
13.8879
 21
135.682
 31
0.0
  0
LINE
  8
0
 62
     0
 10
13.8879
 20
135.682
 30
0.0
 11
13.5847
 21
134.993
 31
0.0
  0
LINE
  8
0
 62
     0
 10
13.5847
 20
134.993
 30
0.0
 11
13.5006
 21
134.244
 31
0.0
  0
LINE
  8
0
 62
     0
 10
13.5006
 20
134.244
 30
0.0
 11
13.5847
 21
133.668
 31
0.0
  0
LINE
  8
0
 62
     0
 10
13.5847
 20
133.668
 30
0.0
 11
13.6495
 21
133.489
 31
0.0
  0
LINE
  8
0
 62
     0
 10
13.6495
 20
133.489
 30
0.0
 11
13.7142
 21
133.312
 31
0.0
  0
LINE
  8
0
 62
     0
 10
13.7142
 20
133.312
 30
0.0
 11
14.0202
 21
132.815
 31
0.0
  0
LINE
  8
0
 62
     0
 10
14.0202
 20
132.815
 30
0.0
 11
14.5645
 21
132.294
 31
0.0
  0
LINE
  8
0
 62
     0
 10
14.5645
 20
132.294
 30
0.0
 11
15.2383
 21
131.96
 31
0.0
  0
LINE
  8
0
 62
     0
 10
15.2383
 20
131.96
 30
0.0
 11
15.8089
 21
131.841
 31
0.0
  0
LINE
  8
0
 62
     0
 10
15.8089
 20
131.841
 30
0.0
 11
16.0004
 21
131.841
 31
0.0
  0
LINE
  8
0
 62
     0
 10
16.0004
 20
131.841
 30
0.0
 11
16.1892
 21
131.841
 31
0.0
  0
LINE
  8
0
 62
     0
 10
16.1892
 20
131.841
 30
0.0
 11
16.7597
 21
131.96
 31
0.0
  0
LINE
  8
0
 62
     0
 10
16.7597
 20
131.96
 30
0.0
 11
17.4349
 21
132.294
 31
0.0
  0
LINE
  8
0
 62
     0
 10
17.4349
 20
132.294
 30
0.0
 11
17.9792
 21
132.815
 31
0.0
  0
LINE
  8
0
 62
     0
 10
17.9792
 20
132.815
 30
0.0
 11
18.2852
 21
133.312
 31
0.0
  0
LINE
  8
0
 62
     0
 10
18.2852
 20
133.312
 30
0.0
 11
18.3499
 21
133.489
 31
0.0
  0
LINE
  8
0
 62
     0
 10
18.3499
 20
133.489
 30
0.0
 11
18.4147
 21
133.668
 31
0.0
  0
LINE
  8
0
 62
     0
 10
18.4147
 20
133.668
 30
0.0
 11
18.4974
 21
134.244
 31
0.0
  0
LINE
  8
0
 62
     0
 10
18.4974
 20
134.244
 30
0.0
 11
18.4133
 21
134.993
 31
0.0
  0
LINE
  8
0
 62
     0
 10
18.4133
 20
134.993
 30
0.0
 11
18.1102
 21
135.682
 31
0.0
  0
LINE
  8
0
 62
     0
 10
18.1102
 20
135.682
 30
0.0
 11
17.7491
 21
136.138
 31
0.0
  0
LINE
  8
0
 62
     0
 10
17.7491
 20
136.138
 30
0.0
 11
17.6044
 21
136.259
 31
0.0
  0
LINE
  8
0
 62
     0
 10
17.4143
 20
137.17
 30
0.0
 11
17.3743
 21
137.093
 31
0.0
  0
LINE
  8
0
 62
     0
 10
17.3743
 20
137.093
 30
0.0
 11
17.3495
 21
136.682
 31
0.0
  0
LINE
  8
0
 62
     0
 10
17.3495
 20
136.682
 30
0.0
 11
17.5369
 21
136.315
 31
0.0
  0
LINE
  8
0
 62
     0
 10
17.5369
 20
136.315
 30
0.0
 11
17.6044
 21
136.259
 31
0.0
  0
LINE
  8
0
 62
     0
 10
17.4143
 20
137.17
 30
0.0
 11
17.9421
 21
138.227
 31
0.0
  0
LINE
  8
0
 62
     0
 10
18.6132
 20
138.642
 30
0.0
 11
18.514
 21
138.642
 31
0.0
  0
LINE
  8
0
 62
     0
 10
18.514
 20
138.642
 30
0.0
 11
18.219
 21
138.53
 31
0.0
  0
LINE
  8
0
 62
     0
 10
18.219
 20
138.53
 30
0.0
 11
17.9737
 21
138.292
 31
0.0
  0
LINE
  8
0
 62
     0
 10
17.9737
 20
138.292
 30
0.0
 11
17.9421
 21
138.227
 31
0.0
  0
LINE
  8
0
 62
     0
 10
18.6132
 20
138.642
 30
0.0
 11
122.924
 21
138.642
 31
0.0
  0
LINE
  8
0
 62
     0
 10
123.595
 20
138.227
 30
0.0
 11
123.563
 21
138.292
 31
0.0
  0
LINE
  8
0
 62
     0
 10
123.563
 20
138.292
 30
0.0
 11
123.318
 21
138.53
 31
0.0
  0
LINE
  8
0
 62
     0
 10
123.318
 20
138.53
 30
0.0
 11
123.022
 21
138.642
 31
0.0
  0
LINE
  8
0
 62
     0
 10
123.022
 20
138.642
 30
0.0
 11
122.924
 21
138.642
 31
0.0
  0
LINE
  8
0
 62
     0
 10
123.595
 20
138.227
 30
0.0
 11
124.123
 21
137.17
 31
0.0
  0
LINE
  8
0
 62
     0
 10
123.934
 20
136.259
 30
0.0
 11
124
 21
136.315
 31
0.0
  0
LINE
  8
0
 62
     0
 10
124
 20
136.315
 30
0.0
 11
124.186
 21
136.682
 31
0.0
  0
LINE
  8
0
 62
     0
 10
124.186
 20
136.682
 30
0.0
 11
124.161
 21
137.093
 31
0.0
  0
LINE
  8
0
 62
     0
 10
124.161
 20
137.093
 30
0.0
 11
124.123
 21
137.17
 31
0.0
  0
LINE
  8
0
 62
     0
 10
123.934
 20
136.259
 30
0.0
 11
123.788
 21
136.138
 31
0.0
  0
LINE
  8
0
 62
     0
 10
123.788
 20
136.138
 30
0.0
 11
123.425
 21
135.682
 31
0.0
  0
LINE
  8
0
 62
     0
 10
123.425
 20
135.682
 30
0.0
 11
123.122
 21
134.993
 31
0.0
  0
LINE
  8
0
 62
     0
 10
123.122
 20
134.993
 30
0.0
 11
123.038
 21
134.244
 31
0.0
  0
LINE
  8
0
 62
     0
 10
123.038
 20
134.244
 30
0.0
 11
123.122
 21
133.668
 31
0.0
  0
LINE
  8
0
 62
     0
 10
123.122
 20
133.668
 30
0.0
 11
123.187
 21
133.489
 31
0.0
  0
LINE
  8
0
 62
     0
 10
123.187
 20
133.489
 30
0.0
 11
123.252
 21
133.312
 31
0.0
  0
LINE
  8
0
 62
     0
 10
123.252
 20
133.312
 30
0.0
 11
123.558
 21
132.815
 31
0.0
  0
LINE
  8
0
 62
     0
 10
123.558
 20
132.815
 30
0.0
 11
124.102
 21
132.294
 31
0.0
  0
LINE
  8
0
 62
     0
 10
124.102
 20
132.294
 30
0.0
 11
124.776
 21
131.96
 31
0.0
  0
LINE
  8
0
 62
     0
 10
124.776
 20
131.96
 30
0.0
 11
125.347
 21
131.841
 31
0.0
  0
LINE
  8
0
 62
     0
 10
125.347
 20
131.841
 30
0.0
 11
125.538
 21
131.841
 31
0.0
  0
LINE
  8
0
 62
     0
 10
125.538
 20
131.841
 30
0.0
 11
125.727
 21
131.841
 31
0.0
  0
LINE
  8
0
 62
     0
 10
125.727
 20
131.841
 30
0.0
 11
126.297
 21
131.96
 31
0.0
  0
LINE
  8
0
 62
     0
 10
126.297
 20
131.96
 30
0.0
 11
126.972
 21
132.294
 31
0.0
  0
LINE
  8
0
 62
     0
 10
126.972
 20
132.294
 30
0.0
 11
127.517
 21
132.815
 31
0.0
  0
LINE
  8
0
 62
     0
 10
127.517
 20
132.815
 30
0.0
 11
127.823
 21
133.312
 31
0.0
  0
LINE
  8
0
 62
     0
 10
127.823
 20
133.312
 30
0.0
 11
127.888
 21
133.489
 31
0.0
  0
LINE
  8
0
 62
     0
 10
127.888
 20
133.489
 30
0.0
 11
127.952
 21
133.668
 31
0.0
  0
LINE
  8
0
 62
     0
 10
127.952
 20
133.668
 30
0.0
 11
128.035
 21
134.244
 31
0.0
  0
LINE
  8
0
 62
     0
 10
128.035
 20
134.244
 30
0.0
 11
127.951
 21
134.993
 31
0.0
  0
LINE
  8
0
 62
     0
 10
127.951
 20
134.993
 30
0.0
 11
127.648
 21
135.682
 31
0.0
  0
LINE
  8
0
 62
     0
 10
127.648
 20
135.682
 30
0.0
 11
127.287
 21
136.138
 31
0.0
  0
LINE
  8
0
 62
     0
 10
127.287
 20
136.138
 30
0.0
 11
127.142
 21
136.259
 31
0.0
  0
LINE
  8
0
 62
     0
 10
126.952
 20
137.17
 30
0.0
 11
126.912
 21
137.093
 31
0.0
  0
LINE
  8
0
 62
     0
 10
126.912
 20
137.093
 30
0.0
 11
126.887
 21
136.682
 31
0.0
  0
LINE
  8
0
 62
     0
 10
126.887
 20
136.682
 30
0.0
 11
127.074
 21
136.315
 31
0.0
  0
LINE
  8
0
 62
     0
 10
127.074
 20
136.315
 30
0.0
 11
127.142
 21
136.259
 31
0.0
  0
LINE
  8
0
 62
     0
 10
126.952
 20
137.17
 30
0.0
 11
127.479
 21
138.227
 31
0.0
  0
LINE
  8
0
 62
     0
 10
128.151
 20
138.642
 30
0.0
 11
128.051
 21
138.642
 31
0.0
  0
LINE
  8
0
 62
     0
 10
128.051
 20
138.642
 30
0.0
 11
127.757
 21
138.53
 31
0.0
  0
LINE
  8
0
 62
     0
 10
127.757
 20
138.53
 30
0.0
 11
127.511
 21
138.292
 31
0.0
  0
LINE
  8
0
 62
     0
 10
127.511
 20
138.292
 30
0.0
 11
127.479
 21
138.227
 31
0.0
  0
LINE
  8
0
 62
     0
 10
128.151
 20
138.642
 30
0.0
 11
232.461
 21
138.642
 31
0.0
  0
LINE
  8
0
 62
     0
 10
233.132
 20
138.227
 30
0.0
 11
233.101
 21
138.292
 31
0.0
  0
LINE
  8
0
 62
     0
 10
233.101
 20
138.292
 30
0.0
 11
232.856
 21
138.53
 31
0.0
  0
LINE
  8
0
 62
     0
 10
232.856
 20
138.53
 30
0.0
 11
232.559
 21
138.642
 31
0.0
  0
LINE
  8
0
 62
     0
 10
232.559
 20
138.642
 30
0.0
 11
232.461
 21
138.642
 31
0.0
  0
LINE
  8
0
 62
     0
 10
233.132
 20
138.227
 30
0.0
 11
233.66
 21
137.17
 31
0.0
  0
LINE
  8
0
 62
     0
 10
233.472
 20
136.259
 30
0.0
 11
233.537
 21
136.315
 31
0.0
  0
LINE
  8
0
 62
     0
 10
233.537
 20
136.315
 30
0.0
 11
233.723
 21
136.682
 31
0.0
  0
LINE
  8
0
 62
     0
 10
233.723
 20
136.682
 30
0.0
 11
233.699
 21
137.093
 31
0.0
  0
LINE
  8
0
 62
     0
 10
233.699
 20
137.093
 30
0.0
 11
233.66
 21
137.17
 31
0.0
  0
LINE
  8
0
 62
     0
 10
233.472
 20
136.259
 30
0.0
 11
233.325
 21
136.138
 31
0.0
  0
LINE
  8
0
 62
     0
 10
233.325
 20
136.138
 30
0.0
 11
232.963
 21
135.682
 31
0.0
  0
LINE
  8
0
 62
     0
 10
232.963
 20
135.682
 30
0.0
 11
232.66
 21
134.993
 31
0.0
  0
LINE
  8
0
 62
     0
 10
232.66
 20
134.993
 30
0.0
 11
232.576
 21
134.244
 31
0.0
  0
LINE
  8
0
 62
     0
 10
232.576
 20
134.244
 30
0.0
 11
232.66
 21
133.668
 31
0.0
  0
LINE
  8
0
 62
     0
 10
232.66
 20
133.668
 30
0.0
 11
232.724
 21
133.489
 31
0.0
  0
LINE
  8
0
 62
     0
 10
232.724
 20
133.489
 30
0.0
 11
232.789
 21
133.312
 31
0.0
  0
LINE
  8
0
 62
     0
 10
232.789
 20
133.312
 30
0.0
 11
233.095
 21
132.815
 31
0.0
  0
LINE
  8
0
 62
     0
 10
233.095
 20
132.815
 30
0.0
 11
233.639
 21
132.294
 31
0.0
  0
LINE
  8
0
 62
     0
 10
233.639
 20
132.294
 30
0.0
 11
234.315
 21
131.96
 31
0.0
  0
LINE
  8
0
 62
     0
 10
234.315
 20
131.96
 30
0.0
 11
234.885
 21
131.841
 31
0.0
  0
LINE
  8
0
 62
     0
 10
234.885
 20
131.841
 30
0.0
 11
235.075
 21
131.841
 31
0.0
  0
LINE
  8
0
 62
     0
 10
235.075
 20
131.841
 30
0.0
 11
235.264
 21
131.841
 31
0.0
  0
LINE
  8
0
 62
     0
 10
235.264
 20
131.841
 30
0.0
 11
235.835
 21
131.96
 31
0.0
  0
LINE
  8
0
 62
     0
 10
235.835
 20
131.96
 30
0.0
 11
236.51
 21
132.294
 31
0.0
  0
LINE
  8
0
 62
     0
 10
236.51
 20
132.294
 30
0.0
 11
237.054
 21
132.815
 31
0.0
  0
LINE
  8
0
 62
     0
 10
237.054
 20
132.815
 30
0.0
 11
237.36
 21
133.312
 31
0.0
  0
LINE
  8
0
 62
     0
 10
237.36
 20
133.312
 30
0.0
 11
237.425
 21
133.489
 31
0.0
  0
LINE
  8
0
 62
     0
 10
237.425
 20
133.489
 30
0.0
 11
237.49
 21
133.668
 31
0.0
  0
LINE
  8
0
 62
     0
 10
237.49
 20
133.668
 30
0.0
 11
237.573
 21
134.244
 31
0.0
  0
LINE
  8
0
 62
     0
 10
237.573
 20
134.244
 30
0.0
 11
237.488
 21
134.993
 31
0.0
  0
LINE
  8
0
 62
     0
 10
237.488
 20
134.993
 30
0.0
 11
237.185
 21
135.682
 31
0.0
  0
LINE
  8
0
 62
     0
 10
237.185
 20
135.682
 30
0.0
 11
236.824
 21
136.138
 31
0.0
  0
LINE
  8
0
 62
     0
 10
236.824
 20
136.138
 30
0.0
 11
236.679
 21
136.259
 31
0.0
  0
LINE
  8
0
 62
     0
 10
236.489
 20
137.17
 30
0.0
 11
236.449
 21
137.093
 31
0.0
  0
LINE
  8
0
 62
     0
 10
236.449
 20
137.093
 30
0.0
 11
236.425
 21
136.682
 31
0.0
  0
LINE
  8
0
 62
     0
 10
236.425
 20
136.682
 30
0.0
 11
236.612
 21
136.315
 31
0.0
  0
LINE
  8
0
 62
     0
 10
236.612
 20
136.315
 30
0.0
 11
236.679
 21
136.259
 31
0.0
  0
LINE
  8
0
 62
     0
 10
236.489
 20
137.17
 30
0.0
 11
237.017
 21
138.227
 31
0.0
  0
LINE
  8
0
 62
     0
 10
237.688
 20
138.642
 30
0.0
 11
237.589
 21
138.642
 31
0.0
  0
LINE
  8
0
 62
     0
 10
237.589
 20
138.642
 30
0.0
 11
237.294
 21
138.53
 31
0.0
  0
LINE
  8
0
 62
     0
 10
237.294
 20
138.53
 30
0.0
 11
237.049
 21
138.292
 31
0.0
  0
LINE
  8
0
 62
     0
 10
237.049
 20
138.292
 30
0.0
 11
237.017
 21
138.227
 31
0.0
  0
LINE
  8
0
 62
     0
 10
237.688
 20
138.642
 30
0.0
 11
341.999
 21
138.642
 31
0.0
  0
LINE
  8
0
 62
     0
 10
342.67
 20
138.227
 30
0.0
 11
342.638
 21
138.292
 31
0.0
  0
LINE
  8
0
 62
     0
 10
342.638
 20
138.292
 30
0.0
 11
342.393
 21
138.53
 31
0.0
  0
LINE
  8
0
 62
     0
 10
342.393
 20
138.53
 30
0.0
 11
342.097
 21
138.642
 31
0.0
  0
LINE
  8
0
 62
     0
 10
342.097
 20
138.642
 30
0.0
 11
341.999
 21
138.642
 31
0.0
  0
LINE
  8
0
 62
     0
 10
342.67
 20
138.227
 30
0.0
 11
343.198
 21
137.17
 31
0.0
  0
LINE
  8
0
 62
     0
 10
343.009
 20
136.259
 30
0.0
 11
343.075
 21
136.315
 31
0.0
  0
LINE
  8
0
 62
     0
 10
343.075
 20
136.315
 30
0.0
 11
343.261
 21
136.682
 31
0.0
  0
LINE
  8
0
 62
     0
 10
343.261
 20
136.682
 30
0.0
 11
343.236
 21
137.093
 31
0.0
  0
LINE
  8
0
 62
     0
 10
343.236
 20
137.093
 30
0.0
 11
343.198
 21
137.17
 31
0.0
  0
LINE
  8
0
 62
     0
 10
343.009
 20
136.259
 30
0.0
 11
342.863
 21
136.138
 31
0.0
  0
LINE
  8
0
 62
     0
 10
342.863
 20
136.138
 30
0.0
 11
342.5
 21
135.682
 31
0.0
  0
LINE
  8
0
 62
     0
 10
342.5
 20
135.682
 30
0.0
 11
342.197
 21
134.993
 31
0.0
  0
LINE
  8
0
 62
     0
 10
342.197
 20
134.993
 30
0.0
 11
342.113
 21
134.244
 31
0.0
  0
LINE
  8
0
 62
     0
 10
342.113
 20
134.244
 30
0.0
 11
342.197
 21
133.668
 31
0.0
  0
LINE
  8
0
 62
     0
 10
342.197
 20
133.668
 30
0.0
 11
342.262
 21
133.489
 31
0.0
  0
LINE
  8
0
 62
     0
 10
342.262
 20
133.489
 30
0.0
 11
342.327
 21
133.312
 31
0.0
  0
LINE
  8
0
 62
     0
 10
342.327
 20
133.312
 30
0.0
 11
342.633
 21
132.815
 31
0.0
  0
LINE
  8
0
 62
     0
 10
342.633
 20
132.815
 30
0.0
 11
343.177
 21
132.294
 31
0.0
  0
LINE
  8
0
 62
     0
 10
343.177
 20
132.294
 30
0.0
 11
343.852
 21
131.96
 31
0.0
  0
LINE
  8
0
 62
     0
 10
343.852
 20
131.96
 30
0.0
 11
344.423
 21
131.841
 31
0.0
  0
LINE
  8
0
 62
     0
 10
344.423
 20
131.841
 30
0.0
 11
344.613
 21
131.841
 31
0.0
  0
LINE
  8
0
 62
     0
 10
344.613
 20
131.841
 30
0.0
 11
344.802
 21
131.841
 31
0.0
  0
LINE
  8
0
 62
     0
 10
344.802
 20
131.841
 30
0.0
 11
345.372
 21
131.96
 31
0.0
  0
LINE
  8
0
 62
     0
 10
345.372
 20
131.96
 30
0.0
 11
346.047
 21
132.294
 31
0.0
  0
LINE
  8
0
 62
     0
 10
346.047
 20
132.294
 30
0.0
 11
346.592
 21
132.815
 31
0.0
  0
LINE
  8
0
 62
     0
 10
346.592
 20
132.815
 30
0.0
 11
346.898
 21
133.312
 31
0.0
  0
LINE
  8
0
 62
     0
 10
346.898
 20
133.312
 30
0.0
 11
346.963
 21
133.489
 31
0.0
  0
LINE
  8
0
 62
     0
 10
346.963
 20
133.489
 30
0.0
 11
347.027
 21
133.668
 31
0.0
  0
LINE
  8
0
 62
     0
 10
347.027
 20
133.668
 30
0.0
 11
347.11
 21
134.244
 31
0.0
  0
LINE
  8
0
 62
     0
 10
347.11
 20
134.244
 30
0.0
 11
347.026
 21
134.993
 31
0.0
  0
LINE
  8
0
 62
     0
 10
347.026
 20
134.993
 30
0.0
 11
346.723
 21
135.682
 31
0.0
  0
LINE
  8
0
 62
     0
 10
346.723
 20
135.682
 30
0.0
 11
346.362
 21
136.138
 31
0.0
  0
LINE
  8
0
 62
     0
 10
346.362
 20
136.138
 30
0.0
 11
346.217
 21
136.259
 31
0.0
  0
LINE
  8
0
 62
     0
 10
346.027
 20
137.17
 30
0.0
 11
345.987
 21
137.093
 31
0.0
  0
LINE
  8
0
 62
     0
 10
345.987
 20
137.093
 30
0.0
 11
345.962
 21
136.682
 31
0.0
  0
LINE
  8
0
 62
     0
 10
345.962
 20
136.682
 30
0.0
 11
346.149
 21
136.315
 31
0.0
  0
LINE
  8
0
 62
     0
 10
346.149
 20
136.315
 30
0.0
 11
346.217
 21
136.259
 31
0.0
  0
LINE
  8
0
 62
     0
 10
346.027
 20
137.17
 30
0.0
 11
346.554
 21
138.227
 31
0.0
  0
LINE
  8
0
 62
     0
 10
347.226
 20
138.642
 30
0.0
 11
347.126
 21
138.642
 31
0.0
  0
LINE
  8
0
 62
     0
 10
347.126
 20
138.642
 30
0.0
 11
346.832
 21
138.53
 31
0.0
  0
LINE
  8
0
 62
     0
 10
346.832
 20
138.53
 30
0.0
 11
346.586
 21
138.292
 31
0.0
  0
LINE
  8
0
 62
     0
 10
346.586
 20
138.292
 30
0.0
 11
346.554
 21
138.227
 31
0.0
  0
LINE
  8
0
 62
     0
 10
347.226
 20
138.642
 30
0.0
 11
347.492
 21
138.642
 31
0.0
  0
LINE
  8
0
 62
     0
 10
348.552
 20
138.202
 30
0.0
 11
348.481
 21
138.272
 31
0.0
  0
LINE
  8
0
 62
     0
 10
348.481
 20
138.272
 30
0.0
 11
348.065
 21
138.527
 31
0.0
  0
LINE
  8
0
 62
     0
 10
348.065
 20
138.527
 30
0.0
 11
347.635
 21
138.642
 31
0.0
  0
LINE
  8
0
 62
     0
 10
347.635
 20
138.642
 30
0.0
 11
347.492
 21
138.642
 31
0.0
  0
LINE
  8
0
 62
     0
 10
348.552
 20
138.202
 30
0.0
 11
360.172
 21
126.581
 31
0.0
  0
LINE
  8
0
 62
     0
 10
360.613
 20
125.52
 30
0.0
 11
360.613
 21
125.665
 31
0.0
  0
LINE
  8
0
 62
     0
 10
360.613
 20
125.665
 30
0.0
 11
360.497
 21
126.095
 31
0.0
  0
LINE
  8
0
 62
     0
 10
360.497
 20
126.095
 30
0.0
 11
360.243
 21
126.511
 31
0.0
  0
LINE
  8
0
 62
     0
 10
360.243
 20
126.511
 30
0.0
 11
360.172
 21
126.581
 31
0.0
  0
LINE
  8
0
 62
     0
 10
360.613
 20
125.52
 30
0.0
 11
360.613
 21
13.3505
 31
0.0
  0
LINE
  8
0
 62
     0
 10
360.172
 20
12.2893
 30
0.0
 11
360.243
 21
12.3596
 31
0.0
  0
LINE
  8
0
 62
     0
 10
360.243
 20
12.3596
 30
0.0
 11
360.497
 21
12.7772
 31
0.0
  0
LINE
  8
0
 62
     0
 10
360.497
 20
12.7772
 30
0.0
 11
360.613
 21
13.2071
 31
0.0
  0
LINE
  8
0
 62
     0
 10
360.613
 20
13.2071
 30
0.0
 11
360.613
 21
13.3505
 31
0.0
  0
LINE
  8
0
 62
     0
 10
360.172
 20
12.2893
 30
0.0
 11
348.552
 21
0.668348
 31
0.0
  0
LINE
  8
0
 62
     0
 10
347.492
 20
0.228755
 30
0.0
 11
347.635
 21
0.228755
 31
0.0
  0
LINE
  8
0
 62
     0
 10
347.635
 20
0.228755
 30
0.0
 11
348.065
 21
0.343131
 31
0.0
  0
LINE
  8
0
 62
     0
 10
348.065
 20
0.343131
 30
0.0
 11
348.481
 21
0.598068
 31
0.0
  0
LINE
  8
0
 62
     0
 10
348.481
 20
0.598068
 30
0.0
 11
348.552
 21
0.668348
 31
0.0
  0
LINE
  8
0
 62
     0
 10
347.492
 20
0.228755
 30
0.0
 11
347.226
 21
0.228755
 31
0.0
  0
LINE
  8
0
 62
     0
 10
346.554
 20
0.643544
 30
0.0
 11
346.586
 21
0.580154
 31
0.0
  0
LINE
  8
0
 62
     0
 10
346.586
 20
0.580154
 30
0.0
 11
346.832
 21
0.341753
 31
0.0
  0
LINE
  8
0
 62
     0
 10
346.832
 20
0.341753
 30
0.0
 11
347.126
 21
0.228755
 31
0.0
  0
LINE
  8
0
 62
     0
 10
347.126
 20
0.228755
 30
0.0
 11
347.226
 21
0.228755
 31
0.0
  0
LINE
  8
0
 62
     0
 10
346.554
 20
0.643544
 30
0.0
 11
346.027
 21
1.7005
 31
0.0
  0
LINE
  8
0
 62
     0
 10
346.217
 20
2.61138
 30
0.0
 11
346.149
 21
2.55626
 31
0.0
  0
LINE
  8
0
 62
     0
 10
346.149
 20
2.55626
 30
0.0
 11
345.962
 21
2.1897
 31
0.0
  0
LINE
  8
0
 62
     0
 10
345.962
 20
2.1897
 30
0.0
 11
345.987
 21
1.77905
 31
0.0
  0
LINE
  8
0
 62
     0
 10
345.987
 20
1.77905
 30
0.0
 11
346.027
 21
1.7005
 31
0.0
  0
LINE
  8
0
 62
     0
 10
346.217
 20
2.61138
 30
0.0
 11
346.362
 21
2.73403
 31
0.0
  0
LINE
  8
0
 62
     0
 10
346.362
 20
2.73403
 30
0.0
 11
346.723
 21
3.19016
 31
0.0
  0
LINE
  8
0
 62
     0
 10
346.723
 20
3.19016
 30
0.0
 11
347.026
 21
3.87918
 31
0.0
  0
LINE
  8
0
 62
     0
 10
347.026
 20
3.87918
 30
0.0
 11
347.11
 21
4.62746
 31
0.0
  0
LINE
  8
0
 62
     0
 10
347.11
 20
4.62746
 30
0.0
 11
347.026
 21
5.20485
 31
0.0
  0
LINE
  8
0
 62
     0
 10
347.026
 20
5.20485
 30
0.0
 11
346.963
 21
5.38261
 31
0.0
  0
LINE
  8
0
 62
     0
 10
346.963
 20
5.38261
 30
0.0
 11
346.898
 21
5.56175
 31
0.0
  0
LINE
  8
0
 62
     0
 10
346.898
 20
5.56175
 30
0.0
 11
346.592
 21
6.05786
 31
0.0
  0
LINE
  8
0
 62
     0
 10
346.592
 20
6.05786
 30
0.0
 11
346.047
 21
6.57737
 31
0.0
  0
LINE
  8
0
 62
     0
 10
346.047
 20
6.57737
 30
0.0
 11
345.372
 21
6.91226
 31
0.0
  0
LINE
  8
0
 62
     0
 10
345.372
 20
6.91226
 30
0.0
 11
344.802
 21
7.02938
 31
0.0
  0
LINE
  8
0
 62
     0
 10
344.802
 20
7.02938
 30
0.0
 11
344.613
 21
7.02938
 31
0.0
  0
LINE
  8
0
 62
     0
 10
344.613
 20
7.02938
 30
0.0
 11
344.423
 21
7.02938
 31
0.0
  0
LINE
  8
0
 62
     0
 10
344.423
 20
7.02938
 30
0.0
 11
343.852
 21
6.91226
 31
0.0
  0
LINE
  8
0
 62
     0
 10
343.852
 20
6.91226
 30
0.0
 11
343.177
 21
6.57737
 31
0.0
  0
LINE
  8
0
 62
     0
 10
343.177
 20
6.57737
 30
0.0
 11
342.633
 21
6.05786
 31
0.0
  0
LINE
  8
0
 62
     0
 10
342.633
 20
6.05786
 30
0.0
 11
342.327
 21
5.56175
 31
0.0
  0
LINE
  8
0
 62
     0
 10
342.327
 20
5.56175
 30
0.0
 11
342.262
 21
5.38261
 31
0.0
  0
LINE
  8
0
 62
     0
 10
342.262
 20
5.38261
 30
0.0
 11
342.197
 21
5.20485
 31
0.0
  0
LINE
  8
0
 62
     0
 10
342.197
 20
5.20485
 30
0.0
 11
342.113
 21
4.62746
 31
0.0
  0
LINE
  8
0
 62
     0
 10
342.113
 20
4.62746
 30
0.0
 11
342.197
 21
3.87918
 31
0.0
  0
LINE
  8
0
 62
     0
 10
342.197
 20
3.87918
 30
0.0
 11
342.5
 21
3.19016
 31
0.0
  0
LINE
  8
0
 62
     0
 10
342.5
 20
3.19016
 30
0.0
 11
342.863
 21
2.73403
 31
0.0
  0
LINE
  8
0
 62
     0
 10
342.863
 20
2.73403
 30
0.0
 11
343.009
 21
2.61138
 31
0.0
  0
LINE
  8
0
 62
     0
 10
343.198
 20
1.7005
 30
0.0
 11
343.236
 21
1.77905
 31
0.0
  0
LINE
  8
0
 62
     0
 10
343.236
 20
1.77905
 30
0.0
 11
343.261
 21
2.1897
 31
0.0
  0
LINE
  8
0
 62
     0
 10
343.261
 20
2.1897
 30
0.0
 11
343.075
 21
2.55626
 31
0.0
  0
LINE
  8
0
 62
     0
 10
343.075
 20
2.55626
 30
0.0
 11
343.009
 21
2.61138
 31
0.0
  0
LINE
  8
0
 62
     0
 10
343.198
 20
1.7005
 30
0.0
 11
342.67
 21
0.643544
 31
0.0
  0
LINE
  8
0
 62
     0
 10
341.999
 20
0.228755
 30
0.0
 11
342.097
 21
0.228755
 31
0.0
  0
LINE
  8
0
 62
     0
 10
342.097
 20
0.228755
 30
0.0
 11
342.393
 21
0.341753
 31
0.0
  0
LINE
  8
0
 62
     0
 10
342.393
 20
0.341753
 30
0.0
 11
342.638
 21
0.580154
 31
0.0
  0
LINE
  8
0
 62
     0
 10
342.638
 20
0.580154
 30
0.0
 11
342.67
 21
0.643544
 31
0.0
  0
LINE
  8
0
 62
     0
 10
341.999
 20
0.228755
 30
0.0
 11
237.688
 21
0.228755
 31
0.0
  0
LINE
  8
0
 62
     0
 10
237.017
 20
0.643544
 30
0.0
 11
237.049
 21
0.580154
 31
0.0
  0
LINE
  8
0
 62
     0
 10
237.049
 20
0.580154
 30
0.0
 11
237.294
 21
0.341753
 31
0.0
  0
LINE
  8
0
 62
     0
 10
237.294
 20
0.341753
 30
0.0
 11
237.589
 21
0.228755
 31
0.0
  0
LINE
  8
0
 62
     0
 10
237.589
 20
0.228755
 30
0.0
 11
237.688
 21
0.228755
 31
0.0
  0
LINE
  8
0
 62
     0
 10
237.017
 20
0.643544
 30
0.0
 11
236.489
 21
1.7005
 31
0.0
  0
LINE
  8
0
 62
     0
 10
236.679
 20
2.61138
 30
0.0
 11
236.612
 21
2.55626
 31
0.0
  0
LINE
  8
0
 62
     0
 10
236.612
 20
2.55626
 30
0.0
 11
236.425
 21
2.1897
 31
0.0
  0
LINE
  8
0
 62
     0
 10
236.425
 20
2.1897
 30
0.0
 11
236.449
 21
1.77905
 31
0.0
  0
LINE
  8
0
 62
     0
 10
236.449
 20
1.77905
 30
0.0
 11
236.489
 21
1.7005
 31
0.0
  0
LINE
  8
0
 62
     0
 10
236.679
 20
2.61138
 30
0.0
 11
236.824
 21
2.73403
 31
0.0
  0
LINE
  8
0
 62
     0
 10
236.824
 20
2.73403
 30
0.0
 11
237.185
 21
3.19016
 31
0.0
  0
LINE
  8
0
 62
     0
 10
237.185
 20
3.19016
 30
0.0
 11
237.488
 21
3.87918
 31
0.0
  0
LINE
  8
0
 62
     0
 10
237.488
 20
3.87918
 30
0.0
 11
237.573
 21
4.62746
 31
0.0
  0
LINE
  8
0
 62
     0
 10
237.573
 20
4.62746
 30
0.0
 11
237.488
 21
5.20485
 31
0.0
  0
LINE
  8
0
 62
     0
 10
237.488
 20
5.20485
 30
0.0
 11
237.425
 21
5.38261
 31
0.0
  0
LINE
  8
0
 62
     0
 10
237.425
 20
5.38261
 30
0.0
 11
237.36
 21
5.56175
 31
0.0
  0
LINE
  8
0
 62
     0
 10
237.36
 20
5.56175
 30
0.0
 11
237.054
 21
6.05786
 31
0.0
  0
LINE
  8
0
 62
     0
 10
237.054
 20
6.05786
 30
0.0
 11
236.51
 21
6.57737
 31
0.0
  0
LINE
  8
0
 62
     0
 10
236.51
 20
6.57737
 30
0.0
 11
235.835
 21
6.91226
 31
0.0
  0
LINE
  8
0
 62
     0
 10
235.835
 20
6.91226
 30
0.0
 11
235.264
 21
7.02938
 31
0.0
  0
LINE
  8
0
 62
     0
 10
235.264
 20
7.02938
 30
0.0
 11
235.075
 21
7.02938
 31
0.0
  0
LINE
  8
0
 62
     0
 10
235.075
 20
7.02938
 30
0.0
 11
234.885
 21
7.02938
 31
0.0
  0
LINE
  8
0
 62
     0
 10
234.885
 20
7.02938
 30
0.0
 11
234.315
 21
6.91226
 31
0.0
  0
LINE
  8
0
 62
     0
 10
234.315
 20
6.91226
 30
0.0
 11
233.639
 21
6.57737
 31
0.0
  0
LINE
  8
0
 62
     0
 10
233.639
 20
6.57737
 30
0.0
 11
233.095
 21
6.05786
 31
0.0
  0
LINE
  8
0
 62
     0
 10
233.095
 20
6.05786
 30
0.0
 11
232.789
 21
5.56175
 31
0.0
  0
LINE
  8
0
 62
     0
 10
232.789
 20
5.56175
 30
0.0
 11
232.724
 21
5.38261
 31
0.0
  0
LINE
  8
0
 62
     0
 10
232.724
 20
5.38261
 30
0.0
 11
232.66
 21
5.20485
 31
0.0
  0
LINE
  8
0
 62
     0
 10
232.66
 20
5.20485
 30
0.0
 11
232.576
 21
4.62746
 31
0.0
  0
LINE
  8
0
 62
     0
 10
232.576
 20
4.62746
 30
0.0
 11
232.66
 21
3.87918
 31
0.0
  0
LINE
  8
0
 62
     0
 10
232.66
 20
3.87918
 30
0.0
 11
232.963
 21
3.19016
 31
0.0
  0
LINE
  8
0
 62
     0
 10
232.963
 20
3.19016
 30
0.0
 11
233.325
 21
2.73403
 31
0.0
  0
LINE
  8
0
 62
     0
 10
233.325
 20
2.73403
 30
0.0
 11
233.472
 21
2.61138
 31
0.0
  0
LINE
  8
0
 62
     0
 10
233.66
 20
1.7005
 30
0.0
 11
233.699
 21
1.77905
 31
0.0
  0
LINE
  8
0
 62
     0
 10
233.699
 20
1.77905
 30
0.0
 11
233.723
 21
2.1897
 31
0.0
  0
LINE
  8
0
 62
     0
 10
233.723
 20
2.1897
 30
0.0
 11
233.537
 21
2.55626
 31
0.0
  0
LINE
  8
0
 62
     0
 10
233.537
 20
2.55626
 30
0.0
 11
233.472
 21
2.61138
 31
0.0
  0
LINE
  8
0
 62
     0
 10
233.66
 20
1.7005
 30
0.0
 11
233.132
 21
0.643544
 31
0.0
  0
LINE
  8
0
 62
     0
 10
232.461
 20
0.228755
 30
0.0
 11
232.559
 21
0.228755
 31
0.0
  0
LINE
  8
0
 62
     0
 10
232.559
 20
0.228755
 30
0.0
 11
232.856
 21
0.341753
 31
0.0
  0
LINE
  8
0
 62
     0
 10
232.856
 20
0.341753
 30
0.0
 11
233.101
 21
0.580154
 31
0.0
  0
LINE
  8
0
 62
     0
 10
233.101
 20
0.580154
 30
0.0
 11
233.132
 21
0.643544
 31
0.0
  0
LINE
  8
0
 62
     0
 10
232.461
 20
0.228755
 30
0.0
 11
128.151
 21
0.228755
 31
0.0
  0
LINE
  8
0
 62
     0
 10
127.479
 20
0.643544
 30
0.0
 11
127.511
 21
0.580154
 31
0.0
  0
LINE
  8
0
 62
     0
 10
127.511
 20
0.580154
 30
0.0
 11
127.757
 21
0.341753
 31
0.0
  0
LINE
  8
0
 62
     0
 10
127.757
 20
0.341753
 30
0.0
 11
128.051
 21
0.228755
 31
0.0
  0
LINE
  8
0
 62
     0
 10
128.051
 20
0.228755
 30
0.0
 11
128.151
 21
0.228755
 31
0.0
  0
LINE
  8
0
 62
     0
 10
127.479
 20
0.643544
 30
0.0
 11
126.952
 21
1.7005
 31
0.0
  0
LINE
  8
0
 62
     0
 10
127.142
 20
2.61138
 30
0.0
 11
127.074
 21
2.55626
 31
0.0
  0
LINE
  8
0
 62
     0
 10
127.074
 20
2.55626
 30
0.0
 11
126.887
 21
2.1897
 31
0.0
  0
LINE
  8
0
 62
     0
 10
126.887
 20
2.1897
 30
0.0
 11
126.912
 21
1.77905
 31
0.0
  0
LINE
  8
0
 62
     0
 10
126.912
 20
1.77905
 30
0.0
 11
126.952
 21
1.7005
 31
0.0
  0
LINE
  8
0
 62
     0
 10
127.142
 20
2.61138
 30
0.0
 11
127.287
 21
2.73403
 31
0.0
  0
LINE
  8
0
 62
     0
 10
127.287
 20
2.73403
 30
0.0
 11
127.648
 21
3.19016
 31
0.0
  0
LINE
  8
0
 62
     0
 10
127.648
 20
3.19016
 30
0.0
 11
127.951
 21
3.87918
 31
0.0
  0
LINE
  8
0
 62
     0
 10
127.951
 20
3.87918
 30
0.0
 11
128.035
 21
4.62746
 31
0.0
  0
LINE
  8
0
 62
     0
 10
128.035
 20
4.62746
 30
0.0
 11
127.951
 21
5.20485
 31
0.0
  0
LINE
  8
0
 62
     0
 10
127.951
 20
5.20485
 30
0.0
 11
127.888
 21
5.38261
 31
0.0
  0
LINE
  8
0
 62
     0
 10
127.888
 20
5.38261
 30
0.0
 11
127.823
 21
5.56175
 31
0.0
  0
LINE
  8
0
 62
     0
 10
127.823
 20
5.56175
 30
0.0
 11
127.517
 21
6.05786
 31
0.0
  0
LINE
  8
0
 62
     0
 10
127.517
 20
6.05786
 30
0.0
 11
126.972
 21
6.57737
 31
0.0
  0
LINE
  8
0
 62
     0
 10
126.972
 20
6.57737
 30
0.0
 11
126.297
 21
6.91226
 31
0.0
  0
LINE
  8
0
 62
     0
 10
126.297
 20
6.91226
 30
0.0
 11
125.727
 21
7.02938
 31
0.0
  0
LINE
  8
0
 62
     0
 10
125.727
 20
7.02938
 30
0.0
 11
125.538
 21
7.02938
 31
0.0
  0
LINE
  8
0
 62
     0
 10
125.538
 20
7.02938
 30
0.0
 11
125.347
 21
7.02938
 31
0.0
  0
LINE
  8
0
 62
     0
 10
125.347
 20
7.02938
 30
0.0
 11
124.776
 21
6.91226
 31
0.0
  0
LINE
  8
0
 62
     0
 10
124.776
 20
6.91226
 30
0.0
 11
124.102
 21
6.57737
 31
0.0
  0
LINE
  8
0
 62
     0
 10
124.102
 20
6.57737
 30
0.0
 11
123.558
 21
6.05786
 31
0.0
  0
LINE
  8
0
 62
     0
 10
123.558
 20
6.05786
 30
0.0
 11
123.252
 21
5.56175
 31
0.0
  0
LINE
  8
0
 62
     0
 10
123.252
 20
5.56175
 30
0.0
 11
123.187
 21
5.38261
 31
0.0
  0
LINE
  8
0
 62
     0
 10
123.187
 20
5.38261
 30
0.0
 11
123.122
 21
5.20485
 31
0.0
  0
LINE
  8
0
 62
     0
 10
123.122
 20
5.20485
 30
0.0
 11
123.038
 21
4.62746
 31
0.0
  0
LINE
  8
0
 62
     0
 10
123.038
 20
4.62746
 30
0.0
 11
123.122
 21
3.87918
 31
0.0
  0
LINE
  8
0
 62
     0
 10
123.122
 20
3.87918
 30
0.0
 11
123.425
 21
3.19016
 31
0.0
  0
LINE
  8
0
 62
     0
 10
123.425
 20
3.19016
 30
0.0
 11
123.788
 21
2.73403
 31
0.0
  0
LINE
  8
0
 62
     0
 10
123.788
 20
2.73403
 30
0.0
 11
123.934
 21
2.61138
 31
0.0
  0
LINE
  8
0
 62
     0
 10
124.123
 20
1.7005
 30
0.0
 11
124.161
 21
1.77905
 31
0.0
  0
LINE
  8
0
 62
     0
 10
124.161
 20
1.77905
 30
0.0
 11
124.186
 21
2.1897
 31
0.0
  0
LINE
  8
0
 62
     0
 10
124.186
 20
2.1897
 30
0.0
 11
124
 21
2.55626
 31
0.0
  0
LINE
  8
0
 62
     0
 10
124
 20
2.55626
 30
0.0
 11
123.934
 21
2.61138
 31
0.0
  0
LINE
  8
0
 62
     0
 10
124.123
 20
1.7005
 30
0.0
 11
123.595
 21
0.643544
 31
0.0
  0
LINE
  8
0
 62
     0
 10
122.924
 20
0.228755
 30
0.0
 11
123.022
 21
0.228755
 31
0.0
  0
LINE
  8
0
 62
     0
 10
123.022
 20
0.228755
 30
0.0
 11
123.318
 21
0.341753
 31
0.0
  0
LINE
  8
0
 62
     0
 10
123.318
 20
0.341753
 30
0.0
 11
123.563
 21
0.580154
 31
0.0
  0
LINE
  8
0
 62
     0
 10
123.563
 20
0.580154
 30
0.0
 11
123.595
 21
0.643544
 31
0.0
  0
LINE
  8
0
 62
     0
 10
122.924
 20
0.228755
 30
0.0
 11
18.6132
 21
0.228755
 31
0.0
  0
LINE
  8
0
 62
     0
 10
17.9421
 20
0.643544
 30
0.0
 11
17.9737
 21
0.580154
 31
0.0
  0
LINE
  8
0
 62
     0
 10
17.9737
 20
0.580154
 30
0.0
 11
18.219
 21
0.341753
 31
0.0
  0
LINE
  8
0
 62
     0
 10
18.219
 20
0.341753
 30
0.0
 11
18.514
 21
0.228755
 31
0.0
  0
LINE
  8
0
 62
     0
 10
18.514
 20
0.228755
 30
0.0
 11
18.6132
 21
0.228755
 31
0.0
  0
LINE
  8
0
 62
     0
 10
17.9421
 20
0.643544
 30
0.0
 11
17.4143
 21
1.7005
 31
0.0
  0
LINE
  8
0
 62
     0
 10
17.6044
 20
2.61138
 30
0.0
 11
17.5369
 21
2.55626
 31
0.0
  0
LINE
  8
0
 62
     0
 10
17.5369
 20
2.55626
 30
0.0
 11
17.3495
 21
2.1897
 31
0.0
  0
LINE
  8
0
 62
     0
 10
17.3495
 20
2.1897
 30
0.0
 11
17.3743
 21
1.77905
 31
0.0
  0
LINE
  8
0
 62
     0
 10
17.3743
 20
1.77905
 30
0.0
 11
17.4143
 21
1.7005
 31
0.0
  0
LINE
  8
0
 62
     0
 10
17.6044
 20
2.61138
 30
0.0
 11
17.7491
 21
2.73403
 31
0.0
  0
LINE
  8
0
 62
     0
 10
17.7491
 20
2.73403
 30
0.0
 11
18.1102
 21
3.19016
 31
0.0
  0
LINE
  8
0
 62
     0
 10
18.1102
 20
3.19016
 30
0.0
 11
18.4133
 21
3.87918
 31
0.0
  0
LINE
  8
0
 62
     0
 10
18.4133
 20
3.87918
 30
0.0
 11
18.4974
 21
4.62746
 31
0.0
  0
LINE
  8
0
 62
     0
 10
18.4974
 20
4.62746
 30
0.0
 11
18.4133
 21
5.20485
 31
0.0
  0
LINE
  8
0
 62
     0
 10
18.4133
 20
5.20485
 30
0.0
 11
18.3499
 21
5.38261
 31
0.0
  0
LINE
  8
0
 62
     0
 10
18.3499
 20
5.38261
 30
0.0
 11
18.2852
 21
5.56175
 31
0.0
  0
LINE
  8
0
 62
     0
 10
18.2852
 20
5.56175
 30
0.0
 11
17.9792
 21
6.05786
 31
0.0
  0
LINE
  8
0
 62
     0
 10
17.9792
 20
6.05786
 30
0.0
 11
17.4349
 21
6.57737
 31
0.0
  0
LINE
  8
0
 62
     0
 10
17.4349
 20
6.57737
 30
0.0
 11
16.7597
 21
6.91226
 31
0.0
  0
LINE
  8
0
 62
     0
 10
16.7597
 20
6.91226
 30
0.0
 11
16.1892
 21
7.02938
 31
0.0
  0
LINE
  8
0
 62
     0
 10
16.1892
 20
7.02938
 30
0.0
 11
16.0004
 21
7.02938
 31
0.0
  0
LINE
  8
0
 62
     0
 10
16.0004
 20
7.02938
 30
0.0
 11
15.8089
 21
7.02938
 31
0.0
  0
LINE
  8
0
 62
     0
 10
15.8089
 20
7.02938
 30
0.0
 11
15.2383
 21
6.91226
 31
0.0
  0
LINE
  8
0
 62
     0
 10
15.2383
 20
6.91226
 30
0.0
 11
14.5645
 21
6.57737
 31
0.0
  0
LINE
  8
0
 62
     0
 10
14.5645
 20
6.57737
 30
0.0
 11
14.0202
 21
6.05786
 31
0.0
  0
LINE
  8
0
 62
     0
 10
14.0202
 20
6.05786
 30
0.0
 11
13.7142
 21
5.56175
 31
0.0
  0
LINE
  8
0
 62
     0
 10
13.7142
 20
5.56175
 30
0.0
 11
13.6495
 21
5.38261
 31
0.0
  0
LINE
  8
0
 62
     0
 10
13.6495
 20
5.38261
 30
0.0
 11
13.5847
 21
5.20485
 31
0.0
  0
LINE
  8
0
 62
     0
 10
13.5847
 20
5.20485
 30
0.0
 11
13.5006
 21
4.62746
 31
0.0
  0
LINE
  8
0
 62
     0
 10
13.5006
 20
4.62746
 30
0.0
 11
13.5847
 21
3.87918
 31
0.0
  0
LINE
  8
0
 62
     0
 10
13.5847
 20
3.87918
 30
0.0
 11
13.8879
 21
3.19016
 31
0.0
  0
LINE
  8
0
 62
     0
 10
13.8879
 20
3.19016
 30
0.0
 11
14.2503
 21
2.73403
 31
0.0
  0
LINE
  8
0
 62
     0
 10
14.2503
 20
2.73403
 30
0.0
 11
14.3964
 21
2.61138
 31
0.0
  0
LINE
  8
0
 62
     0
 10
14.5852
 20
1.7005
 30
0.0
 11
14.6237
 21
1.77905
 31
0.0
  0
LINE
  8
0
 62
     0
 10
14.6237
 20
1.77905
 30
0.0
 11
14.6485
 21
2.1897
 31
0.0
  0
LINE
  8
0
 62
     0
 10
14.6485
 20
2.1897
 30
0.0
 11
14.4625
 21
2.55626
 31
0.0
  0
LINE
  8
0
 62
     0
 10
14.4625
 20
2.55626
 30
0.0
 11
14.3964
 21
2.61138
 31
0.0
  0
LINE
  8
0
 62
     0
 10
14.5852
 20
1.7005
 30
0.0
 11
14.0574
 21
0.643544
 31
0.0
  0
LINE
  8
0
 62
     0
 10
13.3863
 20
0.228755
 30
0.0
 11
13.4841
 21
0.228755
 31
0.0
  0
LINE
  8
0
 62
     0
 10
13.4841
 20
0.228755
 30
0.0
 11
13.7804
 21
0.341753
 31
0.0
  0
LINE
  8
0
 62
     0
 10
13.7804
 20
0.341753
 30
0.0
 11
14.0257
 21
0.580154
 31
0.0
  0
LINE
  8
0
 62
     0
 10
14.0257
 20
0.580154
 30
0.0
 11
14.0574
 21
0.643544
 31
0.0
  0
LINE
  8
0
 62
     0
 10
13.3863
 20
0.228755
 30
0.0
 11
13.1217
 21
0.228755
 31
0.0
  0
LINE
  8
0
 62
     0
 10
263.794
 20
64.5294
 30
0.0
 11
277.795
 21
64.5294
 31
0.0
  0
LINE
  8
0
 62
     0
 10
277.795
 20
64.5294
 30
0.0
 11
277.795
 21
50.5284
 31
0.0
  0
LINE
  8
0
 62
     0
 10
277.795
 20
50.5284
 30
0.0
 11
263.794
 21
50.5284
 31
0.0
  0
LINE
  8
0
 62
     0
 10
263.794
 20
50.5284
 30
0.0
 11
263.794
 21
64.5294
 31
0.0
  0
LINE
  8
0
 62
     0
 10
270.938
 20
83.5794
 30
0.0
 11
284.937
 21
83.5794
 31
0.0
  0
LINE
  8
0
 62
     0
 10
284.937
 20
83.5794
 30
0.0
 11
284.937
 21
69.5784
 31
0.0
  0
LINE
  8
0
 62
     0
 10
284.937
 20
69.5784
 30
0.0
 11
270.938
 21
69.5784
 31
0.0
  0
LINE
  8
0
 62
     0
 10
270.938
 20
69.5784
 30
0.0
 11
270.938
 21
83.5794
 31
0.0
  0
LINE
  8
0
 62
     0
 10
20.9062
 20
45.4794
 30
0.0
 11
34.9057
 21
45.4794
 31
0.0
  0
LINE
  8
0
 62
     0
 10
34.9057
 20
45.4794
 30
0.0
 11
34.9057
 21
31.4785
 31
0.0
  0
LINE
  8
0
 62
     0
 10
34.9057
 20
31.4785
 30
0.0
 11
20.9062
 21
31.4785
 31
0.0
  0
LINE
  8
0
 62
     0
 10
20.9062
 20
31.4785
 30
0.0
 11
20.9062
 21
45.4794
 31
0.0
  0
LINE
  8
0
 62
     0
 10
279.232
 20
67.2289
 30
0.0
 11
286.232
 21
67.2289
 31
0.0
  0
LINE
  8
0
 62
     0
 10
286.232
 20
67.2289
 30
0.0
 11
286.232
 21
48.5292
 31
0.0
  0
LINE
  8
0
 62
     0
 10
286.232
 20
48.5292
 30
0.0
 11
279.232
 21
48.5292
 31
0.0
  0
LINE
  8
0
 62
     0
 10
279.232
 20
48.5292
 30
0.0
 11
279.232
 21
67.2289
 31
0.0
  0
LINE
  8
0
 62
     0
 10
255.356
 20
67.2289
 30
0.0
 11
262.357
 21
67.2289
 31
0.0
  0
LINE
  8
0
 62
     0
 10
262.357
 20
67.2289
 30
0.0
 11
262.357
 21
48.5292
 31
0.0
  0
LINE
  8
0
 62
     0
 10
262.357
 20
48.5292
 30
0.0
 11
255.356
 21
48.5292
 31
0.0
  0
LINE
  8
0
 62
     0
 10
255.356
 20
48.5292
 30
0.0
 11
255.356
 21
67.2289
 31
0.0
  0
LINE
  8
0
 62
     0
 10
36.3442
 20
48.1789
 30
0.0
 11
43.3447
 21
48.1789
 31
0.0
  0
LINE
  8
0
 62
     0
 10
43.3447
 20
48.1789
 30
0.0
 11
43.3447
 21
28.7789
 31
0.0
  0
LINE
  8
0
 62
     0
 10
43.3447
 20
28.7789
 30
0.0
 11
36.3442
 21
28.7789
 31
0.0
  0
LINE
  8
0
 62
     0
 10
36.3442
 20
28.7789
 30
0.0
 11
36.3442
 21
48.1789
 31
0.0
  0
LINE
  8
0
 62
     0
 10
12.4685
 20
48.1789
 30
0.0
 11
19.4689
 21
48.1789
 31
0.0
  0
LINE
  8
0
 62
     0
 10
19.4689
 20
48.1789
 30
0.0
 11
19.4689
 21
28.7789
 31
0.0
  0
LINE
  8
0
 62
     0
 10
19.4689
 20
28.7789
 30
0.0
 11
12.4685
 21
28.7789
 31
0.0
  0
LINE
  8
0
 62
     0
 10
12.4685
 20
28.7789
 30
0.0
 11
12.4685
 21
48.1789
 31
0.0
  0
LINE
  8
0
 62
     0
 10
59.0063
 20
26.4294
 30
0.0
 11
75.3869
 21
26.4294
 31
0.0
  0
LINE
  8
0
 62
     0
 10
75.3869
 20
26.4294
 30
0.0
 11
75.3869
 21
12.4285
 31
0.0
  0
LINE
  8
0
 62
     0
 10
75.3869
 20
12.4285
 30
0.0
 11
59.0063
 21
12.4285
 31
0.0
  0
LINE
  8
0
 62
     0
 10
59.0063
 20
12.4285
 30
0.0
 11
59.0063
 21
26.4294
 31
0.0
  0
LINE
  8
0
 62
     0
 10
270.939
 20
26.4294
 30
0.0
 11
287.318
 21
26.4294
 31
0.0
  0
LINE
  8
0
 62
     0
 10
287.318
 20
26.4294
 30
0.0
 11
287.318
 21
12.4285
 31
0.0
  0
LINE
  8
0
 62
     0
 10
287.318
 20
12.4285
 30
0.0
 11
270.939
 21
12.4285
 31
0.0
  0
LINE
  8
0
 62
     0
 10
270.939
 20
12.4285
 30
0.0
 11
270.939
 21
26.4294
 31
0.0
  0
LINE
  8
0
 62
     0
 10
247.125
 20
26.4294
 30
0.0
 11
263.506
 21
26.4294
 31
0.0
  0
LINE
  8
0
 62
     0
 10
263.506
 20
26.4294
 30
0.0
 11
263.506
 21
12.4285
 31
0.0
  0
LINE
  8
0
 62
     0
 10
263.506
 20
12.4285
 30
0.0
 11
247.125
 21
12.4285
 31
0.0
  0
LINE
  8
0
 62
     0
 10
247.125
 20
12.4285
 30
0.0
 11
247.125
 21
26.4294
 31
0.0
  0
LINE
  8
0
 62
     0
 10
223.313
 20
26.4294
 30
0.0
 11
242.074
 21
26.4294
 31
0.0
  0
LINE
  8
0
 62
     0
 10
242.074
 20
26.4294
 30
0.0
 11
242.074
 21
12.4285
 31
0.0
  0
LINE
  8
0
 62
     0
 10
242.074
 20
12.4285
 30
0.0
 11
223.313
 21
12.4285
 31
0.0
  0
LINE
  8
0
 62
     0
 10
223.313
 20
12.4285
 30
0.0
 11
223.313
 21
26.4294
 31
0.0
  0
LINE
  8
0
 62
     0
 10
35.1937
 20
26.4294
 30
0.0
 11
51.5743
 21
26.4294
 31
0.0
  0
LINE
  8
0
 62
     0
 10
51.5743
 20
26.4294
 30
0.0
 11
51.5743
 21
12.4285
 31
0.0
  0
LINE
  8
0
 62
     0
 10
51.5743
 20
12.4285
 30
0.0
 11
35.1937
 21
12.4285
 31
0.0
  0
LINE
  8
0
 62
     0
 10
35.1937
 20
12.4285
 30
0.0
 11
35.1937
 21
26.4294
 31
0.0
  0
LINE
  8
0
 62
     0
 10
11.3812
 20
26.4294
 30
0.0
 11
27.762
 21
26.4294
 31
0.0
  0
LINE
  8
0
 62
     0
 10
27.762
 20
26.4294
 30
0.0
 11
27.762
 21
12.4285
 31
0.0
  0
LINE
  8
0
 62
     0
 10
27.762
 20
12.4285
 30
0.0
 11
11.3812
 21
12.4285
 31
0.0
  0
LINE
  8
0
 62
     0
 10
11.3812
 20
12.4285
 30
0.0
 11
11.3812
 21
26.4294
 31
0.0
  0
LINE
  8
0
 62
     0
 10
130.444
 20
26.4294
 30
0.0
 11
156.349
 21
26.4294
 31
0.0
  0
LINE
  8
0
 62
     0
 10
156.349
 20
26.4294
 30
0.0
 11
156.349
 21
12.4285
 31
0.0
  0
LINE
  8
0
 62
     0
 10
156.349
 20
12.4285
 30
0.0
 11
130.444
 21
12.4285
 31
0.0
  0
LINE
  8
0
 62
     0
 10
130.444
 20
12.4285
 30
0.0
 11
130.444
 21
26.4294
 31
0.0
  0
LINE
  8
0
 62
     0
 10
83.9378
 20
28.9292
 30
0.0
 11
95.7005
 21
28.9292
 31
0.0
  0
LINE
  8
0
 62
     0
 10
95.7005
 20
28.9292
 30
0.0
 11
95.7005
 21
11.4294
 31
0.0
  0
LINE
  8
0
 62
     0
 10
95.7005
 20
11.4294
 30
0.0
 11
83.9378
 21
11.4294
 31
0.0
  0
LINE
  8
0
 62
     0
 10
83.9378
 20
11.4294
 30
0.0
 11
83.9378
 21
28.9292
 31
0.0
  0
LINE
  8
0
 62
     0
 10
183.95
 20
28.9292
 30
0.0
 11
190.95
 21
28.9292
 31
0.0
  0
LINE
  8
0
 62
     0
 10
190.95
 20
28.9292
 30
0.0
 11
190.95
 21
11.4294
 31
0.0
  0
LINE
  8
0
 62
     0
 10
190.95
 20
11.4294
 30
0.0
 11
183.95
 21
11.4294
 31
0.0
  0
LINE
  8
0
 62
     0
 10
183.95
 20
11.4294
 30
0.0
 11
183.95
 21
28.9292
 31
0.0
  0
LINE
  8
0
 62
     0
 10
209.999
 20
12.4285
 30
0.0
 11
209.999
 21
11.4294
 31
0.0
  0
LINE
  8
0
 62
     0
 10
209.999
 20
11.4294
 30
0.0
 11
202.999
 21
11.4294
 31
0.0
  0
LINE
  8
0
 62
     0
 10
202.999
 20
11.4294
 30
0.0
 11
202.999
 21
12.4285
 31
0.0
  0
LINE
  8
0
 62
     0
 10
202.999
 20
12.4285
 30
0.0
 11
201.881
 21
12.4285
 31
0.0
  0
LINE
  8
0
 62
     0
 10
201.881
 20
12.4285
 30
0.0
 11
201.881
 21
26.4294
 31
0.0
  0
LINE
  8
0
 62
     0
 10
201.881
 20
26.4294
 30
0.0
 11
202.999
 21
26.4294
 31
0.0
  0
LINE
  8
0
 62
     0
 10
202.999
 20
26.4294
 30
0.0
 11
202.999
 21
28.9292
 31
0.0
  0
LINE
  8
0
 62
     0
 10
202.999
 20
28.9292
 30
0.0
 11
209.999
 21
28.9292
 31
0.0
  0
LINE
  8
0
 62
     0
 10
209.999
 20
28.9292
 30
0.0
 11
209.999
 21
26.4294
 31
0.0
  0
LINE
  8
0
 62
     0
 10
209.999
 20
26.4294
 30
0.0
 11
218.262
 21
26.4294
 31
0.0
  0
LINE
  8
0
 62
     0
 10
218.262
 20
26.4294
 30
0.0
 11
218.262
 21
12.4285
 31
0.0
  0
LINE
  8
0
 62
     0
 10
218.262
 20
12.4285
 30
0.0
 11
209.999
 21
12.4285
 31
0.0
  0
ENDSEC
  0
EOF
