  0
SECTION
  2
HEADER
  9
$ACADVER
  1
AC1009
  9
$FILLMODE
 70
 0
  9
$SPLFRAME
 70
 1
  9
$EXTMIN
 10
0
 20
0
 30
0.0
  9
$EXTMAX
 10
1058.33
 20
1058.33
 30
0.0
  0
ENDSEC
  0
SECTION
  2
TABLES
  0
TABLE
  2
LAYER
 70
1
  0
LAYER
  2
0
 70
     0
 62
     7
  6
CONTINUOUS
  0
ENDTAB
  0
ENDSEC
  0
SECTION
  2
ENTITIES
  0
LINE
  8
0
 62
     0
 10
338.934
 20
82.5154
 30
0.0
 11
338.756
 21
82.5154
 31
0.0
  0
LINE
  8
0
 62
     0
 10
338.756
 20
82.5154
 30
0.0
 11
338.227
 21
82.2233
 31
0.0
  0
LINE
  8
0
 62
     0
 10
338.227
 20
82.2233
 30
0.0
 11
337.935
 21
81.6942
 31
0.0
  0
LINE
  8
0
 62
     0
 10
337.935
 20
81.6942
 30
0.0
 11
337.935
 21
81.5164
 31
0.0
  0
LINE
  8
0
 62
     0
 10
338.934
 20
82.5154
 30
0.0
 11
361.036
 21
82.5154
 31
0.0
  0
LINE
  8
0
 62
     0
 10
362.035
 20
81.5164
 30
0.0
 11
362.035
 21
81.6942
 31
0.0
  0
LINE
  8
0
 62
     0
 10
362.035
 20
81.6942
 30
0.0
 11
361.742
 21
82.2233
 31
0.0
  0
LINE
  8
0
 62
     0
 10
361.742
 20
82.2233
 30
0.0
 11
361.213
 21
82.5154
 31
0.0
  0
LINE
  8
0
 62
     0
 10
361.213
 20
82.5154
 30
0.0
 11
361.036
 21
82.5154
 31
0.0
  0
LINE
  8
0
 62
     0
 10
362.035
 20
81.5164
 30
0.0
 11
362.035
 21
71.4664
 31
0.0
  0
LINE
  8
0
 62
     0
 10
362.035
 20
71.4664
 30
0.0
 11
362.035
 21
71.29
 31
0.0
  0
LINE
  8
0
 62
     0
 10
362.035
 20
71.29
 30
0.0
 11
362.327
 21
70.7595
 31
0.0
  0
LINE
  8
0
 62
     0
 10
362.327
 20
70.7595
 30
0.0
 11
362.857
 21
70.466
 31
0.0
  0
LINE
  8
0
 62
     0
 10
362.857
 20
70.466
 30
0.0
 11
363.033
 21
70.466
 31
0.0
  0
LINE
  8
0
 62
     0
 10
363.033
 20
70.466
 30
0.0
 11
368.035
 21
70.466
 31
0.0
  0
LINE
  8
0
 62
     0
 10
368.035
 20
70.466
 30
0.0
 11
368.212
 21
70.466
 31
0.0
  0
LINE
  8
0
 62
     0
 10
368.212
 20
70.466
 30
0.0
 11
368.741
 21
70.7595
 31
0.0
  0
LINE
  8
0
 62
     0
 10
368.741
 20
70.7595
 30
0.0
 11
369.034
 21
71.29
 31
0.0
  0
LINE
  8
0
 62
     0
 10
369.034
 20
71.29
 30
0.0
 11
369.034
 21
71.4664
 31
0.0
  0
LINE
  8
0
 62
     0
 10
369.034
 20
71.4664
 30
0.0
 11
369.034
 21
95.516
 31
0.0
  0
LINE
  8
0
 62
     0
 10
369.034
 20
95.516
 30
0.0
 11
369.034
 21
95.6938
 31
0.0
  0
LINE
  8
0
 62
     0
 10
369.034
 20
95.6938
 30
0.0
 11
368.741
 21
96.2244
 31
0.0
  0
LINE
  8
0
 62
     0
 10
368.741
 20
96.2244
 30
0.0
 11
368.212
 21
96.5165
 31
0.0
  0
LINE
  8
0
 62
     0
 10
368.212
 20
96.5165
 30
0.0
 11
368.035
 21
96.5165
 31
0.0
  0
LINE
  8
0
 62
     0
 10
368.035
 20
96.5165
 30
0.0
 11
322.028
 21
96.5165
 31
0.0
  0
LINE
  8
0
 62
     0
 10
321.028
 20
97.5155
 30
0.0
 11
321.028
 21
97.3391
 31
0.0
  0
LINE
  8
0
 62
     0
 10
321.028
 20
97.3391
 30
0.0
 11
321.32
 21
96.81
 31
0.0
  0
LINE
  8
0
 62
     0
 10
321.32
 20
96.81
 30
0.0
 11
321.85
 21
96.5165
 31
0.0
  0
LINE
  8
0
 62
     0
 10
321.85
 20
96.5165
 30
0.0
 11
322.028
 21
96.5165
 31
0.0
  0
LINE
  8
0
 62
     0
 10
321.028
 20
97.5155
 30
0.0
 11
321.028
 21
114.566
 31
0.0
  0
LINE
  8
0
 62
     0
 10
321.028
 20
114.566
 30
0.0
 11
321.028
 21
114.744
 31
0.0
  0
LINE
  8
0
 62
     0
 10
321.028
 20
114.744
 30
0.0
 11
320.734
 21
115.274
 31
0.0
  0
LINE
  8
0
 62
     0
 10
320.734
 20
115.274
 30
0.0
 11
320.205
 21
115.566
 31
0.0
  0
LINE
  8
0
 62
     0
 10
320.205
 20
115.566
 30
0.0
 11
320.029
 21
115.566
 31
0.0
  0
LINE
  8
0
 62
     0
 10
320.029
 20
115.566
 30
0.0
 11
318.028
 21
115.566
 31
0.0
  0
LINE
  8
0
 62
     0
 10
318.028
 20
115.566
 30
0.0
 11
317.85
 21
115.566
 31
0.0
  0
LINE
  8
0
 62
     0
 10
317.85
 20
115.566
 30
0.0
 11
317.321
 21
115.274
 31
0.0
  0
LINE
  8
0
 62
     0
 10
317.321
 20
115.274
 30
0.0
 11
317.029
 21
114.744
 31
0.0
  0
LINE
  8
0
 62
     0
 10
317.029
 20
114.744
 30
0.0
 11
317.029
 21
114.566
 31
0.0
  0
LINE
  8
0
 62
     0
 10
317.029
 20
114.566
 30
0.0
 11
317.029
 21
83.5159
 31
0.0
  0
LINE
  8
0
 62
     0
 10
317.029
 20
83.5159
 30
0.0
 11
317.029
 21
83.3395
 31
0.0
  0
LINE
  8
0
 62
     0
 10
317.029
 20
83.3395
 30
0.0
 11
317.321
 21
82.8089
 31
0.0
  0
LINE
  8
0
 62
     0
 10
317.321
 20
82.8089
 30
0.0
 11
317.85
 21
82.5154
 31
0.0
  0
LINE
  8
0
 62
     0
 10
317.85
 20
82.5154
 30
0.0
 11
318.028
 21
82.5154
 31
0.0
  0
LINE
  8
0
 62
     0
 10
318.028
 20
82.5154
 30
0.0
 11
320.029
 21
82.5154
 31
0.0
  0
LINE
  8
0
 62
     0
 10
321.028
 20
81.5164
 30
0.0
 11
321.028
 21
81.6942
 31
0.0
  0
LINE
  8
0
 62
     0
 10
321.028
 20
81.6942
 30
0.0
 11
320.734
 21
82.2233
 31
0.0
  0
LINE
  8
0
 62
     0
 10
320.734
 20
82.2233
 30
0.0
 11
320.205
 21
82.5154
 31
0.0
  0
LINE
  8
0
 62
     0
 10
320.205
 20
82.5154
 30
0.0
 11
320.029
 21
82.5154
 31
0.0
  0
LINE
  8
0
 62
     0
 10
321.028
 20
81.5164
 30
0.0
 11
321.028
 21
65.5161
 31
0.0
  0
LINE
  8
0
 62
     0
 10
321.028
 20
65.5161
 30
0.0
 11
321.028
 21
65.3397
 31
0.0
  0
LINE
  8
0
 62
     0
 10
321.028
 20
65.3397
 30
0.0
 11
321.32
 21
64.8092
 31
0.0
  0
LINE
  8
0
 62
     0
 10
321.32
 20
64.8092
 30
0.0
 11
321.85
 21
64.5156
 31
0.0
  0
LINE
  8
0
 62
     0
 10
321.85
 20
64.5156
 30
0.0
 11
322.028
 21
64.5156
 31
0.0
  0
LINE
  8
0
 62
     0
 10
322.028
 20
64.5156
 30
0.0
 11
336.935
 21
64.5156
 31
0.0
  0
LINE
  8
0
 62
     0
 10
336.935
 20
64.5156
 30
0.0
 11
337.111
 21
64.5156
 31
0.0
  0
LINE
  8
0
 62
     0
 10
337.111
 20
64.5156
 30
0.0
 11
337.641
 21
64.8092
 31
0.0
  0
LINE
  8
0
 62
     0
 10
337.641
 20
64.8092
 30
0.0
 11
337.935
 21
65.3397
 31
0.0
  0
LINE
  8
0
 62
     0
 10
337.935
 20
65.3397
 30
0.0
 11
337.935
 21
65.5161
 31
0.0
  0
LINE
  8
0
 62
     0
 10
337.935
 20
65.5161
 30
0.0
 11
337.935
 21
81.5164
 31
0.0
  0
LINE
  8
0
 62
     0
 10
56.0903
 20
154.428
 30
0.0
 11
55.9125
 21
154.428
 31
0.0
  0
LINE
  8
0
 62
     0
 10
55.9125
 20
154.428
 30
0.0
 11
55.3833
 21
154.136
 31
0.0
  0
LINE
  8
0
 62
     0
 10
55.3833
 20
154.136
 30
0.0
 11
55.0912
 21
153.606
 31
0.0
  0
LINE
  8
0
 62
     0
 10
55.0912
 20
153.606
 30
0.0
 11
55.0912
 21
153.428
 31
0.0
  0
LINE
  8
0
 62
     0
 10
56.0903
 20
154.428
 30
0.0
 11
62.8537
 21
154.428
 31
0.0
  0
LINE
  8
0
 62
     0
 10
63.8528
 20
153.428
 30
0.0
 11
63.8528
 21
153.606
 31
0.0
  0
LINE
  8
0
 62
     0
 10
63.8528
 20
153.606
 30
0.0
 11
63.5593
 21
154.136
 31
0.0
  0
LINE
  8
0
 62
     0
 10
63.5593
 20
154.136
 30
0.0
 11
63.0301
 21
154.428
 31
0.0
  0
LINE
  8
0
 62
     0
 10
63.0301
 20
154.428
 30
0.0
 11
62.8537
 21
154.428
 31
0.0
  0
LINE
  8
0
 62
     0
 10
63.8528
 20
153.428
 30
0.0
 11
63.8528
 21
143.523
 31
0.0
  0
LINE
  8
0
 62
     0
 10
63.8528
 20
143.523
 30
0.0
 11
63.8528
 21
143.328
 31
0.0
  0
LINE
  8
0
 62
     0
 10
63.8528
 20
143.328
 30
0.0
 11
64.0098
 21
142.744
 31
0.0
  0
LINE
  8
0
 62
     0
 10
64.0098
 20
142.744
 30
0.0
 11
64.4384
 21
142.109
 31
0.0
  0
LINE
  8
0
 62
     0
 10
64.4384
 20
142.109
 30
0.0
 11
65.0737
 21
141.68
 31
0.0
  0
LINE
  8
0
 62
     0
 10
65.0737
 20
141.68
 30
0.0
 11
65.6579
 21
141.522
 31
0.0
  0
LINE
  8
0
 62
     0
 10
65.6579
 20
141.522
 30
0.0
 11
65.8537
 21
141.522
 31
0.0
  0
LINE
  8
0
 62
     0
 10
65.8537
 20
141.522
 30
0.0
 11
92.4401
 21
141.522
 31
0.0
  0
LINE
  8
0
 62
     0
 10
93.4406
 20
140.523
 30
0.0
 11
93.4406
 21
140.7
 31
0.0
  0
LINE
  8
0
 62
     0
 10
93.4406
 20
140.7
 30
0.0
 11
93.1471
 21
141.23
 31
0.0
  0
LINE
  8
0
 62
     0
 10
93.1471
 20
141.23
 30
0.0
 11
92.6165
 21
141.522
 31
0.0
  0
LINE
  8
0
 62
     0
 10
92.6165
 20
141.522
 30
0.0
 11
92.4401
 21
141.522
 31
0.0
  0
LINE
  8
0
 62
     0
 10
93.4406
 20
140.523
 30
0.0
 11
93.4406
 21
138.522
 31
0.0
  0
LINE
  8
0
 62
     0
 10
92.4401
 20
137.523
 30
0.0
 11
92.6165
 21
137.523
 31
0.0
  0
LINE
  8
0
 62
     0
 10
92.6165
 20
137.523
 30
0.0
 11
93.1471
 21
137.816
 31
0.0
  0
LINE
  8
0
 62
     0
 10
93.1471
 20
137.816
 30
0.0
 11
93.4406
 21
138.345
 31
0.0
  0
LINE
  8
0
 62
     0
 10
93.4406
 20
138.345
 30
0.0
 11
93.4406
 21
138.522
 31
0.0
  0
LINE
  8
0
 62
     0
 10
92.4401
 20
137.523
 30
0.0
 11
41.6842
 21
137.523
 31
0.0
  0
LINE
  8
0
 62
     0
 10
40.6837
 20
138.522
 30
0.0
 11
40.6837
 21
138.345
 31
0.0
  0
LINE
  8
0
 62
     0
 10
40.6837
 20
138.345
 30
0.0
 11
40.9758
 21
137.816
 31
0.0
  0
LINE
  8
0
 62
     0
 10
40.9758
 20
137.816
 30
0.0
 11
41.5064
 21
137.523
 31
0.0
  0
LINE
  8
0
 62
     0
 10
41.5064
 20
137.523
 30
0.0
 11
41.6842
 21
137.523
 31
0.0
  0
LINE
  8
0
 62
     0
 10
40.6837
 20
138.522
 30
0.0
 11
40.6837
 21
140.523
 31
0.0
  0
LINE
  8
0
 62
     0
 10
41.6842
 20
141.522
 30
0.0
 11
41.5064
 21
141.522
 31
0.0
  0
LINE
  8
0
 62
     0
 10
41.5064
 20
141.522
 30
0.0
 11
40.9758
 21
141.23
 31
0.0
  0
LINE
  8
0
 62
     0
 10
40.9758
 20
141.23
 30
0.0
 11
40.6837
 21
140.7
 31
0.0
  0
LINE
  8
0
 62
     0
 10
40.6837
 20
140.7
 30
0.0
 11
40.6837
 21
140.523
 31
0.0
  0
LINE
  8
0
 62
     0
 10
41.6842
 20
141.522
 30
0.0
 11
53.0902
 21
141.522
 31
0.0
  0
LINE
  8
0
 62
     0
 10
53.0902
 20
141.522
 30
0.0
 11
53.2846
 21
141.522
 31
0.0
  0
LINE
  8
0
 62
     0
 10
53.2846
 20
141.522
 30
0.0
 11
53.8688
 21
141.68
 31
0.0
  0
LINE
  8
0
 62
     0
 10
53.8688
 20
141.68
 30
0.0
 11
54.5042
 21
142.109
 31
0.0
  0
LINE
  8
0
 62
     0
 10
54.5042
 20
142.109
 30
0.0
 11
54.9328
 21
142.744
 31
0.0
  0
LINE
  8
0
 62
     0
 10
54.9328
 20
142.744
 30
0.0
 11
55.0912
 21
143.328
 31
0.0
  0
LINE
  8
0
 62
     0
 10
55.0912
 20
143.328
 30
0.0
 11
55.0912
 21
143.523
 31
0.0
  0
LINE
  8
0
 62
     0
 10
55.0912
 20
143.523
 30
0.0
 11
55.0912
 21
153.428
 31
0.0
  0
LINE
  8
0
 62
     0
 10
148.959
 20
154.428
 30
0.0
 11
148.781
 21
154.428
 31
0.0
  0
LINE
  8
0
 62
     0
 10
148.781
 20
154.428
 30
0.0
 11
148.252
 21
154.136
 31
0.0
  0
LINE
  8
0
 62
     0
 10
148.252
 20
154.136
 30
0.0
 11
147.96
 21
153.606
 31
0.0
  0
LINE
  8
0
 62
     0
 10
147.96
 20
153.606
 30
0.0
 11
147.96
 21
153.428
 31
0.0
  0
LINE
  8
0
 62
     0
 10
148.959
 20
154.428
 30
0.0
 11
150.96
 21
154.428
 31
0.0
  0
LINE
  8
0
 62
     0
 10
151.959
 20
153.428
 30
0.0
 11
151.959
 21
153.606
 31
0.0
  0
LINE
  8
0
 62
     0
 10
151.959
 20
153.606
 30
0.0
 11
151.666
 21
154.136
 31
0.0
  0
LINE
  8
0
 62
     0
 10
151.666
 20
154.136
 30
0.0
 11
151.136
 21
154.428
 31
0.0
  0
LINE
  8
0
 62
     0
 10
151.136
 20
154.428
 30
0.0
 11
150.96
 21
154.428
 31
0.0
  0
LINE
  8
0
 62
     0
 10
151.959
 20
153.428
 30
0.0
 11
151.959
 21
143.523
 31
0.0
  0
LINE
  8
0
 62
     0
 10
151.959
 20
143.523
 30
0.0
 11
151.959
 21
143.328
 31
0.0
  0
LINE
  8
0
 62
     0
 10
151.959
 20
143.328
 30
0.0
 11
152.116
 21
142.744
 31
0.0
  0
LINE
  8
0
 62
     0
 10
152.116
 20
142.744
 30
0.0
 11
152.545
 21
142.109
 31
0.0
  0
LINE
  8
0
 62
     0
 10
152.545
 20
142.109
 30
0.0
 11
153.18
 21
141.68
 31
0.0
  0
LINE
  8
0
 62
     0
 10
153.18
 20
141.68
 30
0.0
 11
153.764
 21
141.522
 31
0.0
  0
LINE
  8
0
 62
     0
 10
153.764
 20
141.522
 30
0.0
 11
153.96
 21
141.522
 31
0.0
  0
LINE
  8
0
 62
     0
 10
153.96
 20
141.522
 30
0.0
 11
180.546
 21
141.522
 31
0.0
  0
LINE
  8
0
 62
     0
 10
181.547
 20
140.523
 30
0.0
 11
181.547
 21
140.7
 31
0.0
  0
LINE
  8
0
 62
     0
 10
181.547
 20
140.7
 30
0.0
 11
181.253
 21
141.23
 31
0.0
  0
LINE
  8
0
 62
     0
 10
181.253
 20
141.23
 30
0.0
 11
180.723
 21
141.522
 31
0.0
  0
LINE
  8
0
 62
     0
 10
180.723
 20
141.522
 30
0.0
 11
180.546
 21
141.522
 31
0.0
  0
LINE
  8
0
 62
     0
 10
181.547
 20
140.523
 30
0.0
 11
181.547
 21
138.522
 31
0.0
  0
LINE
  8
0
 62
     0
 10
180.546
 20
137.523
 30
0.0
 11
180.723
 21
137.523
 31
0.0
  0
LINE
  8
0
 62
     0
 10
180.723
 20
137.523
 30
0.0
 11
181.253
 21
137.816
 31
0.0
  0
LINE
  8
0
 62
     0
 10
181.253
 20
137.816
 30
0.0
 11
181.547
 21
138.345
 31
0.0
  0
LINE
  8
0
 62
     0
 10
181.547
 20
138.345
 30
0.0
 11
181.547
 21
138.522
 31
0.0
  0
LINE
  8
0
 62
     0
 10
180.546
 20
137.523
 30
0.0
 11
118.872
 21
137.523
 31
0.0
  0
LINE
  8
0
 62
     0
 10
117.872
 20
138.522
 30
0.0
 11
117.872
 21
138.345
 31
0.0
  0
LINE
  8
0
 62
     0
 10
117.872
 20
138.345
 30
0.0
 11
118.164
 21
137.816
 31
0.0
  0
LINE
  8
0
 62
     0
 10
118.164
 20
137.816
 30
0.0
 11
118.695
 21
137.523
 31
0.0
  0
LINE
  8
0
 62
     0
 10
118.695
 20
137.523
 30
0.0
 11
118.872
 21
137.523
 31
0.0
  0
LINE
  8
0
 62
     0
 10
117.872
 20
138.522
 30
0.0
 11
117.872
 21
140.523
 31
0.0
  0
LINE
  8
0
 62
     0
 10
118.872
 20
141.522
 30
0.0
 11
118.695
 21
141.522
 31
0.0
  0
LINE
  8
0
 62
     0
 10
118.695
 20
141.522
 30
0.0
 11
118.164
 21
141.23
 31
0.0
  0
LINE
  8
0
 62
     0
 10
118.164
 20
141.23
 30
0.0
 11
117.872
 21
140.7
 31
0.0
  0
LINE
  8
0
 62
     0
 10
117.872
 20
140.7
 30
0.0
 11
117.872
 21
140.523
 31
0.0
  0
LINE
  8
0
 62
     0
 10
118.872
 20
141.522
 30
0.0
 11
145.959
 21
141.522
 31
0.0
  0
LINE
  8
0
 62
     0
 10
145.959
 20
141.522
 30
0.0
 11
146.153
 21
141.522
 31
0.0
  0
LINE
  8
0
 62
     0
 10
146.153
 20
141.522
 30
0.0
 11
146.738
 21
141.68
 31
0.0
  0
LINE
  8
0
 62
     0
 10
146.738
 20
141.68
 30
0.0
 11
147.373
 21
142.109
 31
0.0
  0
LINE
  8
0
 62
     0
 10
147.373
 20
142.109
 30
0.0
 11
147.802
 21
142.744
 31
0.0
  0
LINE
  8
0
 62
     0
 10
147.802
 20
142.744
 30
0.0
 11
147.96
 21
143.328
 31
0.0
  0
LINE
  8
0
 62
     0
 10
147.96
 20
143.328
 30
0.0
 11
147.96
 21
143.523
 31
0.0
  0
LINE
  8
0
 62
     0
 10
147.96
 20
143.523
 30
0.0
 11
147.96
 21
153.428
 31
0.0
  0
LINE
  8
0
 62
     0
 10
234.684
 20
154.428
 30
0.0
 11
234.506
 21
154.428
 31
0.0
  0
LINE
  8
0
 62
     0
 10
234.506
 20
154.428
 30
0.0
 11
233.977
 21
154.136
 31
0.0
  0
LINE
  8
0
 62
     0
 10
233.977
 20
154.136
 30
0.0
 11
233.685
 21
153.606
 31
0.0
  0
LINE
  8
0
 62
     0
 10
233.685
 20
153.606
 30
0.0
 11
233.685
 21
153.428
 31
0.0
  0
LINE
  8
0
 62
     0
 10
234.684
 20
154.428
 30
0.0
 11
236.685
 21
154.428
 31
0.0
  0
LINE
  8
0
 62
     0
 10
237.684
 20
153.428
 30
0.0
 11
237.684
 21
153.606
 31
0.0
  0
LINE
  8
0
 62
     0
 10
237.684
 20
153.606
 30
0.0
 11
237.391
 21
154.136
 31
0.0
  0
LINE
  8
0
 62
     0
 10
237.391
 20
154.136
 30
0.0
 11
236.861
 21
154.428
 31
0.0
  0
LINE
  8
0
 62
     0
 10
236.861
 20
154.428
 30
0.0
 11
236.685
 21
154.428
 31
0.0
  0
LINE
  8
0
 62
     0
 10
237.684
 20
153.428
 30
0.0
 11
237.684
 21
143.523
 31
0.0
  0
LINE
  8
0
 62
     0
 10
237.684
 20
143.523
 30
0.0
 11
237.684
 21
143.328
 31
0.0
  0
LINE
  8
0
 62
     0
 10
237.684
 20
143.328
 30
0.0
 11
237.841
 21
142.744
 31
0.0
  0
LINE
  8
0
 62
     0
 10
237.841
 20
142.744
 30
0.0
 11
238.27
 21
142.109
 31
0.0
  0
LINE
  8
0
 62
     0
 10
238.27
 20
142.109
 30
0.0
 11
238.905
 21
141.68
 31
0.0
  0
LINE
  8
0
 62
     0
 10
238.905
 20
141.68
 30
0.0
 11
239.489
 21
141.522
 31
0.0
  0
LINE
  8
0
 62
     0
 10
239.489
 20
141.522
 30
0.0
 11
239.685
 21
141.522
 31
0.0
  0
LINE
  8
0
 62
     0
 10
239.685
 20
141.522
 30
0.0
 11
266.271
 21
141.522
 31
0.0
  0
LINE
  8
0
 62
     0
 10
267.272
 20
140.523
 30
0.0
 11
267.272
 21
140.7
 31
0.0
  0
LINE
  8
0
 62
     0
 10
267.272
 20
140.7
 30
0.0
 11
266.978
 21
141.23
 31
0.0
  0
LINE
  8
0
 62
     0
 10
266.978
 20
141.23
 30
0.0
 11
266.448
 21
141.522
 31
0.0
  0
LINE
  8
0
 62
     0
 10
266.448
 20
141.522
 30
0.0
 11
266.271
 21
141.522
 31
0.0
  0
LINE
  8
0
 62
     0
 10
267.272
 20
140.523
 30
0.0
 11
267.272
 21
138.522
 31
0.0
  0
LINE
  8
0
 62
     0
 10
266.271
 20
137.523
 30
0.0
 11
266.448
 21
137.523
 31
0.0
  0
LINE
  8
0
 62
     0
 10
266.448
 20
137.523
 30
0.0
 11
266.978
 21
137.816
 31
0.0
  0
LINE
  8
0
 62
     0
 10
266.978
 20
137.816
 30
0.0
 11
267.272
 21
138.345
 31
0.0
  0
LINE
  8
0
 62
     0
 10
267.272
 20
138.345
 30
0.0
 11
267.272
 21
138.522
 31
0.0
  0
LINE
  8
0
 62
     0
 10
266.271
 20
137.523
 30
0.0
 11
204.597
 21
137.523
 31
0.0
  0
LINE
  8
0
 62
     0
 10
203.597
 20
138.522
 30
0.0
 11
203.597
 21
138.345
 31
0.0
  0
LINE
  8
0
 62
     0
 10
203.597
 20
138.345
 30
0.0
 11
203.889
 21
137.816
 31
0.0
  0
LINE
  8
0
 62
     0
 10
203.889
 20
137.816
 30
0.0
 11
204.42
 21
137.523
 31
0.0
  0
LINE
  8
0
 62
     0
 10
204.42
 20
137.523
 30
0.0
 11
204.597
 21
137.523
 31
0.0
  0
LINE
  8
0
 62
     0
 10
203.597
 20
138.522
 30
0.0
 11
203.597
 21
140.523
 31
0.0
  0
LINE
  8
0
 62
     0
 10
204.597
 20
141.522
 30
0.0
 11
204.42
 21
141.522
 31
0.0
  0
LINE
  8
0
 62
     0
 10
204.42
 20
141.522
 30
0.0
 11
203.889
 21
141.23
 31
0.0
  0
LINE
  8
0
 62
     0
 10
203.889
 20
141.23
 30
0.0
 11
203.597
 21
140.7
 31
0.0
  0
LINE
  8
0
 62
     0
 10
203.597
 20
140.7
 30
0.0
 11
203.597
 21
140.523
 31
0.0
  0
LINE
  8
0
 62
     0
 10
204.597
 20
141.522
 30
0.0
 11
231.684
 21
141.522
 31
0.0
  0
LINE
  8
0
 62
     0
 10
231.684
 20
141.522
 30
0.0
 11
231.878
 21
141.522
 31
0.0
  0
LINE
  8
0
 62
     0
 10
231.878
 20
141.522
 30
0.0
 11
232.463
 21
141.68
 31
0.0
  0
LINE
  8
0
 62
     0
 10
232.463
 20
141.68
 30
0.0
 11
233.098
 21
142.109
 31
0.0
  0
LINE
  8
0
 62
     0
 10
233.098
 20
142.109
 30
0.0
 11
233.527
 21
142.744
 31
0.0
  0
LINE
  8
0
 62
     0
 10
233.527
 20
142.744
 30
0.0
 11
233.685
 21
143.328
 31
0.0
  0
LINE
  8
0
 62
     0
 10
233.685
 20
143.328
 30
0.0
 11
233.685
 21
143.523
 31
0.0
  0
LINE
  8
0
 62
     0
 10
233.685
 20
143.523
 30
0.0
 11
233.685
 21
153.428
 31
0.0
  0
LINE
  8
0
 62
     0
 10
314.123
 20
140.523
 30
0.0
 11
314.123
 21
140.7
 31
0.0
  0
LINE
  8
0
 62
     0
 10
314.123
 20
140.7
 30
0.0
 11
313.829
 21
141.23
 31
0.0
  0
LINE
  8
0
 62
     0
 10
313.829
 20
141.23
 30
0.0
 11
313.298
 21
141.522
 31
0.0
  0
LINE
  8
0
 62
     0
 10
313.298
 20
141.522
 30
0.0
 11
313.122
 21
141.522
 31
0.0
  0
LINE
  8
0
 62
     0
 10
314.123
 20
140.523
 30
0.0
 11
314.123
 21
139.522
 31
0.0
  0
LINE
  8
0
 62
     0
 10
313.122
 20
138.522
 30
0.0
 11
313.298
 21
138.522
 31
0.0
  0
LINE
  8
0
 62
     0
 10
313.298
 20
138.522
 30
0.0
 11
313.829
 21
138.815
 31
0.0
  0
LINE
  8
0
 62
     0
 10
313.829
 20
138.815
 30
0.0
 11
314.123
 21
139.346
 31
0.0
  0
LINE
  8
0
 62
     0
 10
314.123
 20
139.346
 30
0.0
 11
314.123
 21
139.522
 31
0.0
  0
LINE
  8
0
 62
     0
 10
313.122
 20
138.522
 30
0.0
 11
282.072
 21
138.522
 31
0.0
  0
LINE
  8
0
 62
     0
 10
281.071
 20
139.522
 30
0.0
 11
281.071
 21
139.346
 31
0.0
  0
LINE
  8
0
 62
     0
 10
281.071
 20
139.346
 30
0.0
 11
281.364
 21
138.815
 31
0.0
  0
LINE
  8
0
 62
     0
 10
281.364
 20
138.815
 30
0.0
 11
281.894
 21
138.522
 31
0.0
  0
LINE
  8
0
 62
     0
 10
281.894
 20
138.522
 30
0.0
 11
282.072
 21
138.522
 31
0.0
  0
LINE
  8
0
 62
     0
 10
281.071
 20
139.522
 30
0.0
 11
281.071
 21
140.523
 31
0.0
  0
LINE
  8
0
 62
     0
 10
282.072
 20
141.522
 30
0.0
 11
281.894
 21
141.522
 31
0.0
  0
LINE
  8
0
 62
     0
 10
281.894
 20
141.522
 30
0.0
 11
281.364
 21
141.23
 31
0.0
  0
LINE
  8
0
 62
     0
 10
281.364
 20
141.23
 30
0.0
 11
281.071
 21
140.7
 31
0.0
  0
LINE
  8
0
 62
     0
 10
281.071
 20
140.7
 30
0.0
 11
281.071
 21
140.523
 31
0.0
  0
LINE
  8
0
 62
     0
 10
282.072
 20
141.522
 30
0.0
 11
313.122
 21
141.522
 31
0.0
  0
LINE
  8
0
 62
     0
 10
328.459
 20
138.522
 30
0.0
 11
328.459
 21
138.345
 31
0.0
  0
LINE
  8
0
 62
     0
 10
328.459
 20
138.345
 30
0.0
 11
328.752
 21
137.816
 31
0.0
  0
LINE
  8
0
 62
     0
 10
328.752
 20
137.816
 30
0.0
 11
329.282
 21
137.523
 31
0.0
  0
LINE
  8
0
 62
     0
 10
329.282
 20
137.523
 30
0.0
 11
329.46
 21
137.523
 31
0.0
  0
LINE
  8
0
 62
     0
 10
328.459
 20
138.522
 30
0.0
 11
328.459
 21
140.523
 31
0.0
  0
LINE
  8
0
 62
     0
 10
329.46
 20
141.522
 30
0.0
 11
329.282
 21
141.522
 31
0.0
  0
LINE
  8
0
 62
     0
 10
329.282
 20
141.522
 30
0.0
 11
328.752
 21
141.23
 31
0.0
  0
LINE
  8
0
 62
     0
 10
328.752
 20
141.23
 30
0.0
 11
328.459
 21
140.7
 31
0.0
  0
LINE
  8
0
 62
     0
 10
328.459
 20
140.7
 30
0.0
 11
328.459
 21
140.523
 31
0.0
  0
LINE
  8
0
 62
     0
 10
329.46
 20
141.522
 30
0.0
 11
370.508
 21
141.522
 31
0.0
  0
LINE
  8
0
 62
     0
 10
371.51
 20
140.523
 30
0.0
 11
371.51
 21
140.7
 31
0.0
  0
LINE
  8
0
 62
     0
 10
371.51
 20
140.7
 30
0.0
 11
371.217
 21
141.23
 31
0.0
  0
LINE
  8
0
 62
     0
 10
371.217
 20
141.23
 30
0.0
 11
370.685
 21
141.522
 31
0.0
  0
LINE
  8
0
 62
     0
 10
370.685
 20
141.522
 30
0.0
 11
370.508
 21
141.522
 31
0.0
  0
LINE
  8
0
 62
     0
 10
371.51
 20
140.523
 30
0.0
 11
371.51
 21
138.522
 31
0.0
  0
LINE
  8
0
 62
     0
 10
370.508
 20
137.523
 30
0.0
 11
370.685
 21
137.523
 31
0.0
  0
LINE
  8
0
 62
     0
 10
370.685
 20
137.523
 30
0.0
 11
371.217
 21
137.816
 31
0.0
  0
LINE
  8
0
 62
     0
 10
371.217
 20
137.816
 30
0.0
 11
371.51
 21
138.345
 31
0.0
  0
LINE
  8
0
 62
     0
 10
371.51
 20
138.345
 30
0.0
 11
371.51
 21
138.522
 31
0.0
  0
LINE
  8
0
 62
     0
 10
370.508
 20
137.523
 30
0.0
 11
329.46
 21
137.523
 31
0.0
  0
LINE
  8
0
 62
     0
 10
295.359
 20
115.566
 30
0.0
 11
309.359
 21
115.566
 31
0.0
  0
LINE
  8
0
 62
     0
 10
309.359
 20
115.566
 30
0.0
 11
309.359
 21
101.565
 31
0.0
  0
LINE
  8
0
 62
     0
 10
309.359
 20
101.565
 30
0.0
 11
295.359
 21
101.565
 31
0.0
  0
LINE
  8
0
 62
     0
 10
295.359
 20
101.565
 30
0.0
 11
295.359
 21
115.566
 31
0.0
  0
LINE
  8
0
 62
     0
 10
36.4822
 20
32.6554
 30
0.0
 11
36.5524
 21
32.5851
 31
0.0
  0
LINE
  8
0
 62
     0
 10
36.5524
 20
32.5851
 30
0.0
 11
36.9686
 21
32.3301
 31
0.0
  0
LINE
  8
0
 62
     0
 10
36.9686
 20
32.3301
 30
0.0
 11
37.3987
 21
32.2158
 31
0.0
  0
LINE
  8
0
 62
     0
 10
37.3987
 20
32.2158
 30
0.0
 11
37.5433
 21
32.2158
 31
0.0
  0
LINE
  8
0
 62
     0
 10
36.4822
 20
32.6554
 30
0.0
 11
24.8612
 21
44.2764
 31
0.0
  0
LINE
  8
0
 62
     0
 10
24.4216
 20
45.3376
 30
0.0
 11
24.4216
 21
45.194
 31
0.0
  0
LINE
  8
0
 62
     0
 10
24.4216
 20
45.194
 30
0.0
 11
24.536
 21
44.7643
 31
0.0
  0
LINE
  8
0
 62
     0
 10
24.536
 20
44.7643
 30
0.0
 11
24.7909
 21
44.3466
 31
0.0
  0
LINE
  8
0
 62
     0
 10
24.7909
 20
44.3466
 30
0.0
 11
24.8612
 21
44.2764
 31
0.0
  0
LINE
  8
0
 62
     0
 10
24.4216
 20
45.3376
 30
0.0
 11
24.4216
 21
157.507
 31
0.0
  0
LINE
  8
0
 62
     0
 10
24.8612
 20
158.568
 30
0.0
 11
24.7909
 21
158.498
 31
0.0
  0
LINE
  8
0
 62
     0
 10
24.7909
 20
158.498
 30
0.0
 11
24.536
 21
158.081
 31
0.0
  0
LINE
  8
0
 62
     0
 10
24.536
 20
158.081
 30
0.0
 11
24.4216
 21
157.652
 31
0.0
  0
LINE
  8
0
 62
     0
 10
24.4216
 20
157.652
 30
0.0
 11
24.4216
 21
157.507
 31
0.0
  0
LINE
  8
0
 62
     0
 10
24.8612
 20
158.568
 30
0.0
 11
36.4822
 21
170.189
 31
0.0
  0
LINE
  8
0
 62
     0
 10
37.5433
 20
170.629
 30
0.0
 11
37.3987
 21
170.629
 31
0.0
  0
LINE
  8
0
 62
     0
 10
37.3987
 20
170.629
 30
0.0
 11
36.9686
 21
170.514
 31
0.0
  0
LINE
  8
0
 62
     0
 10
36.9686
 20
170.514
 30
0.0
 11
36.5524
 21
170.259
 31
0.0
  0
LINE
  8
0
 62
     0
 10
36.5524
 20
170.259
 30
0.0
 11
36.4822
 21
170.189
 31
0.0
  0
LINE
  8
0
 62
     0
 10
37.5433
 20
170.629
 30
0.0
 11
37.8079
 21
170.629
 31
0.0
  0
LINE
  8
0
 62
     0
 10
38.4789
 20
170.214
 30
0.0
 11
38.4471
 21
170.277
 31
0.0
  0
LINE
  8
0
 62
     0
 10
38.4471
 20
170.277
 30
0.0
 11
38.202
 21
170.517
 31
0.0
  0
LINE
  8
0
 62
     0
 10
38.202
 20
170.517
 30
0.0
 11
37.9056
 21
170.629
 31
0.0
  0
LINE
  8
0
 62
     0
 10
37.9056
 20
170.629
 30
0.0
 11
37.8079
 21
170.629
 31
0.0
  0
LINE
  8
0
 62
     0
 10
38.4789
 20
170.214
 30
0.0
 11
39.008
 21
169.157
 31
0.0
  0
LINE
  8
0
 62
     0
 10
38.8179
 20
168.246
 30
0.0
 11
38.8842
 21
168.303
 31
0.0
  0
LINE
  8
0
 62
     0
 10
38.8842
 20
168.303
 30
0.0
 11
39.0701
 21
168.669
 31
0.0
  0
LINE
  8
0
 62
     0
 10
39.0701
 20
168.669
 30
0.0
 11
39.0469
 21
169.08
 31
0.0
  0
LINE
  8
0
 62
     0
 10
39.0469
 20
169.08
 30
0.0
 11
39.008
 21
169.157
 31
0.0
  0
LINE
  8
0
 62
     0
 10
38.8179
 20
168.246
 30
0.0
 11
38.6719
 21
168.125
 31
0.0
  0
LINE
  8
0
 62
     0
 10
38.6719
 20
168.125
 30
0.0
 11
38.3096
 21
167.669
 31
0.0
  0
LINE
  8
0
 62
     0
 10
38.3096
 20
167.669
 30
0.0
 11
38.0076
 21
166.98
 31
0.0
  0
LINE
  8
0
 62
     0
 10
38.0076
 20
166.98
 30
0.0
 11
37.9236
 21
166.231
 31
0.0
  0
LINE
  8
0
 62
     0
 10
37.9236
 20
166.231
 30
0.0
 11
38.0076
 21
165.654
 31
0.0
  0
LINE
  8
0
 62
     0
 10
38.0076
 20
165.654
 30
0.0
 11
38.0725
 21
165.475
 31
0.0
  0
LINE
  8
0
 62
     0
 10
38.0725
 20
165.475
 30
0.0
 11
38.136
 21
165.297
 31
0.0
  0
LINE
  8
0
 62
     0
 10
38.136
 20
165.297
 30
0.0
 11
38.4418
 21
164.801
 31
0.0
  0
LINE
  8
0
 62
     0
 10
38.4418
 20
164.801
 30
0.0
 11
38.9862
 21
164.282
 31
0.0
  0
LINE
  8
0
 62
     0
 10
38.9862
 20
164.282
 30
0.0
 11
39.6614
 21
163.946
 31
0.0
  0
LINE
  8
0
 62
     0
 10
39.6614
 20
163.946
 30
0.0
 11
40.2318
 21
163.828
 31
0.0
  0
LINE
  8
0
 62
     0
 10
40.2318
 20
163.828
 30
0.0
 11
40.422
 21
163.828
 31
0.0
  0
LINE
  8
0
 62
     0
 10
40.422
 20
163.828
 30
0.0
 11
40.6107
 21
163.828
 31
0.0
  0
LINE
  8
0
 62
     0
 10
40.6107
 20
163.828
 30
0.0
 11
41.1812
 21
163.946
 31
0.0
  0
LINE
  8
0
 62
     0
 10
41.1812
 20
163.946
 30
0.0
 11
41.8564
 21
164.282
 31
0.0
  0
LINE
  8
0
 62
     0
 10
41.8564
 20
164.282
 30
0.0
 11
42.4007
 21
164.801
 31
0.0
  0
LINE
  8
0
 62
     0
 10
42.4007
 20
164.801
 30
0.0
 11
42.7069
 21
165.297
 31
0.0
  0
LINE
  8
0
 62
     0
 10
42.7069
 20
165.297
 30
0.0
 11
42.7715
 21
165.475
 31
0.0
  0
LINE
  8
0
 62
     0
 10
42.7715
 20
165.475
 30
0.0
 11
42.8364
 21
165.654
 31
0.0
  0
LINE
  8
0
 62
     0
 10
42.8364
 20
165.654
 30
0.0
 11
42.9189
 21
166.231
 31
0.0
  0
LINE
  8
0
 62
     0
 10
42.9189
 20
166.231
 30
0.0
 11
42.835
 21
166.98
 31
0.0
  0
LINE
  8
0
 62
     0
 10
42.835
 20
166.98
 30
0.0
 11
42.533
 21
167.669
 31
0.0
  0
LINE
  8
0
 62
     0
 10
42.533
 20
167.669
 30
0.0
 11
42.1707
 21
168.125
 31
0.0
  0
LINE
  8
0
 62
     0
 10
42.1707
 20
168.125
 30
0.0
 11
42.0261
 21
168.246
 31
0.0
  0
LINE
  8
0
 62
     0
 10
41.8359
 20
169.157
 30
0.0
 11
41.7961
 21
169.08
 31
0.0
  0
LINE
  8
0
 62
     0
 10
41.7961
 20
169.08
 30
0.0
 11
41.771
 21
168.669
 31
0.0
  0
LINE
  8
0
 62
     0
 10
41.771
 20
168.669
 30
0.0
 11
41.9587
 21
168.303
 31
0.0
  0
LINE
  8
0
 62
     0
 10
41.9587
 20
168.303
 30
0.0
 11
42.0261
 21
168.246
 31
0.0
  0
LINE
  8
0
 62
     0
 10
41.8359
 20
169.157
 30
0.0
 11
42.3651
 21
170.214
 31
0.0
  0
LINE
  8
0
 62
     0
 10
43.0347
 20
170.629
 30
0.0
 11
42.9355
 21
170.629
 31
0.0
  0
LINE
  8
0
 62
     0
 10
42.9355
 20
170.629
 30
0.0
 11
42.6406
 21
170.517
 31
0.0
  0
LINE
  8
0
 62
     0
 10
42.6406
 20
170.517
 30
0.0
 11
42.3968
 21
170.277
 31
0.0
  0
LINE
  8
0
 62
     0
 10
42.3968
 20
170.277
 30
0.0
 11
42.3651
 21
170.214
 31
0.0
  0
LINE
  8
0
 62
     0
 10
43.0347
 20
170.629
 30
0.0
 11
147.345
 21
170.629
 31
0.0
  0
LINE
  8
0
 62
     0
 10
148.016
 20
170.214
 30
0.0
 11
147.985
 21
170.277
 31
0.0
  0
LINE
  8
0
 62
     0
 10
147.985
 20
170.277
 30
0.0
 11
147.739
 21
170.517
 31
0.0
  0
LINE
  8
0
 62
     0
 10
147.739
 20
170.517
 30
0.0
 11
147.443
 21
170.629
 31
0.0
  0
LINE
  8
0
 62
     0
 10
147.443
 20
170.629
 30
0.0
 11
147.345
 21
170.629
 31
0.0
  0
LINE
  8
0
 62
     0
 10
148.016
 20
170.214
 30
0.0
 11
148.546
 21
169.157
 31
0.0
  0
LINE
  8
0
 62
     0
 10
148.355
 20
168.246
 30
0.0
 11
148.422
 21
168.303
 31
0.0
  0
LINE
  8
0
 62
     0
 10
148.422
 20
168.303
 30
0.0
 11
148.608
 21
168.669
 31
0.0
  0
LINE
  8
0
 62
     0
 10
148.608
 20
168.669
 30
0.0
 11
148.584
 21
169.08
 31
0.0
  0
LINE
  8
0
 62
     0
 10
148.584
 20
169.08
 30
0.0
 11
148.546
 21
169.157
 31
0.0
  0
LINE
  8
0
 62
     0
 10
148.355
 20
168.246
 30
0.0
 11
148.209
 21
168.125
 31
0.0
  0
LINE
  8
0
 62
     0
 10
148.209
 20
168.125
 30
0.0
 11
147.847
 21
167.669
 31
0.0
  0
LINE
  8
0
 62
     0
 10
147.847
 20
167.669
 30
0.0
 11
147.545
 21
166.98
 31
0.0
  0
LINE
  8
0
 62
     0
 10
147.545
 20
166.98
 30
0.0
 11
147.461
 21
166.231
 31
0.0
  0
LINE
  8
0
 62
     0
 10
147.461
 20
166.231
 30
0.0
 11
147.545
 21
165.654
 31
0.0
  0
LINE
  8
0
 62
     0
 10
147.545
 20
165.654
 30
0.0
 11
147.61
 21
165.475
 31
0.0
  0
LINE
  8
0
 62
     0
 10
147.61
 20
165.475
 30
0.0
 11
147.673
 21
165.297
 31
0.0
  0
LINE
  8
0
 62
     0
 10
147.673
 20
165.297
 30
0.0
 11
147.979
 21
164.801
 31
0.0
  0
LINE
  8
0
 62
     0
 10
147.979
 20
164.801
 30
0.0
 11
148.524
 21
164.282
 31
0.0
  0
LINE
  8
0
 62
     0
 10
148.524
 20
164.282
 30
0.0
 11
149.199
 21
163.946
 31
0.0
  0
LINE
  8
0
 62
     0
 10
149.199
 20
163.946
 30
0.0
 11
149.769
 21
163.828
 31
0.0
  0
LINE
  8
0
 62
     0
 10
149.769
 20
163.828
 30
0.0
 11
149.959
 21
163.828
 31
0.0
  0
LINE
  8
0
 62
     0
 10
149.959
 20
163.828
 30
0.0
 11
150.148
 21
163.828
 31
0.0
  0
LINE
  8
0
 62
     0
 10
150.148
 20
163.828
 30
0.0
 11
150.719
 21
163.946
 31
0.0
  0
LINE
  8
0
 62
     0
 10
150.719
 20
163.946
 30
0.0
 11
151.394
 21
164.282
 31
0.0
  0
LINE
  8
0
 62
     0
 10
151.394
 20
164.282
 30
0.0
 11
151.938
 21
164.801
 31
0.0
  0
LINE
  8
0
 62
     0
 10
151.938
 20
164.801
 30
0.0
 11
152.244
 21
165.297
 31
0.0
  0
LINE
  8
0
 62
     0
 10
152.244
 20
165.297
 30
0.0
 11
152.309
 21
165.475
 31
0.0
  0
LINE
  8
0
 62
     0
 10
152.309
 20
165.475
 30
0.0
 11
152.374
 21
165.654
 31
0.0
  0
LINE
  8
0
 62
     0
 10
152.374
 20
165.654
 30
0.0
 11
152.456
 21
166.231
 31
0.0
  0
LINE
  8
0
 62
     0
 10
152.456
 20
166.231
 30
0.0
 11
152.372
 21
166.98
 31
0.0
  0
LINE
  8
0
 62
     0
 10
152.372
 20
166.98
 30
0.0
 11
152.071
 21
167.669
 31
0.0
  0
LINE
  8
0
 62
     0
 10
152.071
 20
167.669
 30
0.0
 11
151.708
 21
168.125
 31
0.0
  0
LINE
  8
0
 62
     0
 10
151.708
 20
168.125
 30
0.0
 11
151.564
 21
168.246
 31
0.0
  0
LINE
  8
0
 62
     0
 10
151.373
 20
169.157
 30
0.0
 11
151.334
 21
169.08
 31
0.0
  0
LINE
  8
0
 62
     0
 10
151.334
 20
169.08
 30
0.0
 11
151.309
 21
168.669
 31
0.0
  0
LINE
  8
0
 62
     0
 10
151.309
 20
168.669
 30
0.0
 11
151.496
 21
168.303
 31
0.0
  0
LINE
  8
0
 62
     0
 10
151.496
 20
168.303
 30
0.0
 11
151.564
 21
168.246
 31
0.0
  0
LINE
  8
0
 62
     0
 10
151.373
 20
169.157
 30
0.0
 11
151.903
 21
170.214
 31
0.0
  0
LINE
  8
0
 62
     0
 10
152.572
 20
170.629
 30
0.0
 11
152.473
 21
170.629
 31
0.0
  0
LINE
  8
0
 62
     0
 10
152.473
 20
170.629
 30
0.0
 11
152.178
 21
170.517
 31
0.0
  0
LINE
  8
0
 62
     0
 10
152.178
 20
170.517
 30
0.0
 11
151.934
 21
170.277
 31
0.0
  0
LINE
  8
0
 62
     0
 10
151.934
 20
170.277
 30
0.0
 11
151.903
 21
170.214
 31
0.0
  0
LINE
  8
0
 62
     0
 10
152.572
 20
170.629
 30
0.0
 11
256.883
 21
170.629
 31
0.0
  0
LINE
  8
0
 62
     0
 10
257.554
 20
170.214
 30
0.0
 11
257.522
 21
170.277
 31
0.0
  0
LINE
  8
0
 62
     0
 10
257.522
 20
170.277
 30
0.0
 11
257.277
 21
170.517
 31
0.0
  0
LINE
  8
0
 62
     0
 10
257.277
 20
170.517
 30
0.0
 11
256.981
 21
170.629
 31
0.0
  0
LINE
  8
0
 62
     0
 10
256.981
 20
170.629
 30
0.0
 11
256.883
 21
170.629
 31
0.0
  0
LINE
  8
0
 62
     0
 10
257.554
 20
170.214
 30
0.0
 11
258.083
 21
169.157
 31
0.0
  0
LINE
  8
0
 62
     0
 10
257.893
 20
168.246
 30
0.0
 11
257.959
 21
168.303
 31
0.0
  0
LINE
  8
0
 62
     0
 10
257.959
 20
168.303
 30
0.0
 11
258.145
 21
168.669
 31
0.0
  0
LINE
  8
0
 62
     0
 10
258.145
 20
168.669
 30
0.0
 11
258.122
 21
169.08
 31
0.0
  0
LINE
  8
0
 62
     0
 10
258.122
 20
169.08
 30
0.0
 11
258.083
 21
169.157
 31
0.0
  0
LINE
  8
0
 62
     0
 10
257.893
 20
168.246
 30
0.0
 11
257.747
 21
168.125
 31
0.0
  0
LINE
  8
0
 62
     0
 10
257.747
 20
168.125
 30
0.0
 11
257.385
 21
167.669
 31
0.0
  0
LINE
  8
0
 62
     0
 10
257.385
 20
167.669
 30
0.0
 11
257.083
 21
166.98
 31
0.0
  0
LINE
  8
0
 62
     0
 10
257.083
 20
166.98
 30
0.0
 11
256.999
 21
166.231
 31
0.0
  0
LINE
  8
0
 62
     0
 10
256.999
 20
166.231
 30
0.0
 11
257.083
 21
165.654
 31
0.0
  0
LINE
  8
0
 62
     0
 10
257.083
 20
165.654
 30
0.0
 11
257.147
 21
165.475
 31
0.0
  0
LINE
  8
0
 62
     0
 10
257.147
 20
165.475
 30
0.0
 11
257.211
 21
165.297
 31
0.0
  0
LINE
  8
0
 62
     0
 10
257.211
 20
165.297
 30
0.0
 11
257.517
 21
164.801
 31
0.0
  0
LINE
  8
0
 62
     0
 10
257.517
 20
164.801
 30
0.0
 11
258.061
 21
164.282
 31
0.0
  0
LINE
  8
0
 62
     0
 10
258.061
 20
164.282
 30
0.0
 11
258.736
 21
163.946
 31
0.0
  0
LINE
  8
0
 62
     0
 10
258.736
 20
163.946
 30
0.0
 11
259.307
 21
163.828
 31
0.0
  0
LINE
  8
0
 62
     0
 10
259.307
 20
163.828
 30
0.0
 11
259.497
 21
163.828
 31
0.0
  0
LINE
  8
0
 62
     0
 10
259.497
 20
163.828
 30
0.0
 11
259.686
 21
163.828
 31
0.0
  0
LINE
  8
0
 62
     0
 10
259.686
 20
163.828
 30
0.0
 11
260.256
 21
163.946
 31
0.0
  0
LINE
  8
0
 62
     0
 10
260.256
 20
163.946
 30
0.0
 11
260.931
 21
164.282
 31
0.0
  0
LINE
  8
0
 62
     0
 10
260.931
 20
164.282
 30
0.0
 11
261.476
 21
164.801
 31
0.0
  0
LINE
  8
0
 62
     0
 10
261.476
 20
164.801
 30
0.0
 11
261.782
 21
165.297
 31
0.0
  0
LINE
  8
0
 62
     0
 10
261.782
 20
165.297
 30
0.0
 11
261.846
 21
165.475
 31
0.0
  0
LINE
  8
0
 62
     0
 10
261.846
 20
165.475
 30
0.0
 11
261.911
 21
165.654
 31
0.0
  0
LINE
  8
0
 62
     0
 10
261.911
 20
165.654
 30
0.0
 11
261.994
 21
166.231
 31
0.0
  0
LINE
  8
0
 62
     0
 10
261.994
 20
166.231
 30
0.0
 11
261.91
 21
166.98
 31
0.0
  0
LINE
  8
0
 62
     0
 10
261.91
 20
166.98
 30
0.0
 11
261.608
 21
167.669
 31
0.0
  0
LINE
  8
0
 62
     0
 10
261.608
 20
167.669
 30
0.0
 11
261.246
 21
168.125
 31
0.0
  0
LINE
  8
0
 62
     0
 10
261.246
 20
168.125
 30
0.0
 11
261.101
 21
168.246
 31
0.0
  0
LINE
  8
0
 62
     0
 10
260.911
 20
169.157
 30
0.0
 11
260.871
 21
169.08
 31
0.0
  0
LINE
  8
0
 62
     0
 10
260.871
 20
169.08
 30
0.0
 11
260.846
 21
168.669
 31
0.0
  0
LINE
  8
0
 62
     0
 10
260.846
 20
168.669
 30
0.0
 11
261.034
 21
168.303
 31
0.0
  0
LINE
  8
0
 62
     0
 10
261.034
 20
168.303
 30
0.0
 11
261.101
 21
168.246
 31
0.0
  0
LINE
  8
0
 62
     0
 10
260.911
 20
169.157
 30
0.0
 11
261.44
 21
170.214
 31
0.0
  0
LINE
  8
0
 62
     0
 10
262.11
 20
170.629
 30
0.0
 11
262.011
 21
170.629
 31
0.0
  0
LINE
  8
0
 62
     0
 10
262.011
 20
170.629
 30
0.0
 11
261.716
 21
170.517
 31
0.0
  0
LINE
  8
0
 62
     0
 10
261.716
 20
170.517
 30
0.0
 11
261.472
 21
170.277
 31
0.0
  0
LINE
  8
0
 62
     0
 10
261.472
 20
170.277
 30
0.0
 11
261.44
 21
170.214
 31
0.0
  0
LINE
  8
0
 62
     0
 10
262.11
 20
170.629
 30
0.0
 11
366.42
 21
170.629
 31
0.0
  0
LINE
  8
0
 62
     0
 10
367.09
 20
170.214
 30
0.0
 11
367.058
 21
170.277
 31
0.0
  0
LINE
  8
0
 62
     0
 10
367.058
 20
170.277
 30
0.0
 11
366.815
 21
170.517
 31
0.0
  0
LINE
  8
0
 62
     0
 10
366.815
 20
170.517
 30
0.0
 11
366.518
 21
170.629
 31
0.0
  0
LINE
  8
0
 62
     0
 10
366.518
 20
170.629
 30
0.0
 11
366.42
 21
170.629
 31
0.0
  0
LINE
  8
0
 62
     0
 10
367.09
 20
170.214
 30
0.0
 11
367.619
 21
169.157
 31
0.0
  0
LINE
  8
0
 62
     0
 10
367.432
 20
168.246
 30
0.0
 11
367.496
 21
168.303
 31
0.0
  0
LINE
  8
0
 62
     0
 10
367.496
 20
168.303
 30
0.0
 11
367.683
 21
168.669
 31
0.0
  0
LINE
  8
0
 62
     0
 10
367.683
 20
168.669
 30
0.0
 11
367.658
 21
169.08
 31
0.0
  0
LINE
  8
0
 62
     0
 10
367.658
 20
169.08
 30
0.0
 11
367.619
 21
169.157
 31
0.0
  0
LINE
  8
0
 62
     0
 10
367.432
 20
168.246
 30
0.0
 11
367.284
 21
168.125
 31
0.0
  0
LINE
  8
0
 62
     0
 10
367.284
 20
168.125
 30
0.0
 11
366.921
 21
167.669
 31
0.0
  0
LINE
  8
0
 62
     0
 10
366.921
 20
167.669
 30
0.0
 11
366.621
 21
166.98
 31
0.0
  0
LINE
  8
0
 62
     0
 10
366.621
 20
166.98
 30
0.0
 11
366.536
 21
166.231
 31
0.0
  0
LINE
  8
0
 62
     0
 10
366.536
 20
166.231
 30
0.0
 11
366.621
 21
165.654
 31
0.0
  0
LINE
  8
0
 62
     0
 10
366.621
 20
165.654
 30
0.0
 11
366.684
 21
165.475
 31
0.0
  0
LINE
  8
0
 62
     0
 10
366.684
 20
165.475
 30
0.0
 11
366.748
 21
165.297
 31
0.0
  0
LINE
  8
0
 62
     0
 10
366.748
 20
165.297
 30
0.0
 11
367.055
 21
164.801
 31
0.0
  0
LINE
  8
0
 62
     0
 10
367.055
 20
164.801
 30
0.0
 11
367.598
 21
164.282
 31
0.0
  0
LINE
  8
0
 62
     0
 10
367.598
 20
164.282
 30
0.0
 11
368.275
 21
163.946
 31
0.0
  0
LINE
  8
0
 62
     0
 10
368.275
 20
163.946
 30
0.0
 11
368.843
 21
163.828
 31
0.0
  0
LINE
  8
0
 62
     0
 10
368.843
 20
163.828
 30
0.0
 11
369.034
 21
163.828
 31
0.0
  0
LINE
  8
0
 62
     0
 10
369.034
 20
163.828
 30
0.0
 11
369.224
 21
163.828
 31
0.0
  0
LINE
  8
0
 62
     0
 10
369.224
 20
163.828
 30
0.0
 11
369.792
 21
163.946
 31
0.0
  0
LINE
  8
0
 62
     0
 10
369.792
 20
163.946
 30
0.0
 11
370.47
 21
164.282
 31
0.0
  0
LINE
  8
0
 62
     0
 10
370.47
 20
164.282
 30
0.0
 11
371.013
 21
164.801
 31
0.0
  0
LINE
  8
0
 62
     0
 10
371.013
 20
164.801
 30
0.0
 11
371.32
 21
165.297
 31
0.0
  0
LINE
  8
0
 62
     0
 10
371.32
 20
165.297
 30
0.0
 11
371.383
 21
165.475
 31
0.0
  0
LINE
  8
0
 62
     0
 10
371.383
 20
165.475
 30
0.0
 11
371.45
 21
165.654
 31
0.0
  0
LINE
  8
0
 62
     0
 10
371.45
 20
165.654
 30
0.0
 11
371.531
 21
166.231
 31
0.0
  0
LINE
  8
0
 62
     0
 10
371.531
 20
166.231
 30
0.0
 11
371.447
 21
166.98
 31
0.0
  0
LINE
  8
0
 62
     0
 10
371.447
 20
166.98
 30
0.0
 11
371.147
 21
167.669
 31
0.0
  0
LINE
  8
0
 62
     0
 10
371.147
 20
167.669
 30
0.0
 11
370.784
 21
168.125
 31
0.0
  0
LINE
  8
0
 62
     0
 10
370.784
 20
168.125
 30
0.0
 11
370.639
 21
168.246
 31
0.0
  0
LINE
  8
0
 62
     0
 10
370.448
 20
169.157
 30
0.0
 11
370.41
 21
169.08
 31
0.0
  0
LINE
  8
0
 62
     0
 10
370.41
 20
169.08
 30
0.0
 11
370.385
 21
168.669
 31
0.0
  0
LINE
  8
0
 62
     0
 10
370.385
 20
168.669
 30
0.0
 11
370.572
 21
168.303
 31
0.0
  0
LINE
  8
0
 62
     0
 10
370.572
 20
168.303
 30
0.0
 11
370.639
 21
168.246
 31
0.0
  0
LINE
  8
0
 62
     0
 10
370.448
 20
169.157
 30
0.0
 11
370.978
 21
170.214
 31
0.0
  0
LINE
  8
0
 62
     0
 10
371.648
 20
170.629
 30
0.0
 11
371.549
 21
170.629
 31
0.0
  0
LINE
  8
0
 62
     0
 10
371.549
 20
170.629
 30
0.0
 11
371.253
 21
170.517
 31
0.0
  0
LINE
  8
0
 62
     0
 10
371.253
 20
170.517
 30
0.0
 11
371.009
 21
170.277
 31
0.0
  0
LINE
  8
0
 62
     0
 10
371.009
 20
170.277
 30
0.0
 11
370.978
 21
170.214
 31
0.0
  0
LINE
  8
0
 62
     0
 10
371.648
 20
170.629
 30
0.0
 11
371.912
 21
170.629
 31
0.0
  0
LINE
  8
0
 62
     0
 10
372.974
 20
170.189
 30
0.0
 11
372.904
 21
170.259
 31
0.0
  0
LINE
  8
0
 62
     0
 10
372.904
 20
170.259
 30
0.0
 11
372.487
 21
170.514
 31
0.0
  0
LINE
  8
0
 62
     0
 10
372.487
 20
170.514
 30
0.0
 11
372.057
 21
170.629
 31
0.0
  0
LINE
  8
0
 62
     0
 10
372.057
 20
170.629
 30
0.0
 11
371.912
 21
170.629
 31
0.0
  0
LINE
  8
0
 62
     0
 10
372.974
 20
170.189
 30
0.0
 11
384.595
 21
158.568
 31
0.0
  0
LINE
  8
0
 62
     0
 10
385.036
 20
157.507
 30
0.0
 11
385.036
 21
157.652
 31
0.0
  0
LINE
  8
0
 62
     0
 10
385.036
 20
157.652
 30
0.0
 11
384.919
 21
158.081
 31
0.0
  0
LINE
  8
0
 62
     0
 10
384.919
 20
158.081
 30
0.0
 11
384.665
 21
158.498
 31
0.0
  0
LINE
  8
0
 62
     0
 10
384.665
 20
158.498
 30
0.0
 11
384.595
 21
158.568
 31
0.0
  0
LINE
  8
0
 62
     0
 10
385.036
 20
157.507
 30
0.0
 11
385.036
 21
45.3376
 31
0.0
  0
LINE
  8
0
 62
     0
 10
384.595
 20
44.2764
 30
0.0
 11
384.665
 21
44.3466
 31
0.0
  0
LINE
  8
0
 62
     0
 10
384.665
 20
44.3466
 30
0.0
 11
384.919
 21
44.7643
 31
0.0
  0
LINE
  8
0
 62
     0
 10
384.919
 20
44.7643
 30
0.0
 11
385.036
 21
45.194
 31
0.0
  0
LINE
  8
0
 62
     0
 10
385.036
 20
45.194
 30
0.0
 11
385.036
 21
45.3376
 31
0.0
  0
LINE
  8
0
 62
     0
 10
384.595
 20
44.2764
 30
0.0
 11
372.974
 21
32.6554
 31
0.0
  0
LINE
  8
0
 62
     0
 10
371.912
 20
32.2158
 30
0.0
 11
372.057
 21
32.2158
 31
0.0
  0
LINE
  8
0
 62
     0
 10
372.057
 20
32.2158
 30
0.0
 11
372.487
 21
32.3301
 31
0.0
  0
LINE
  8
0
 62
     0
 10
372.487
 20
32.3301
 30
0.0
 11
372.904
 21
32.5851
 31
0.0
  0
LINE
  8
0
 62
     0
 10
372.904
 20
32.5851
 30
0.0
 11
372.974
 21
32.6554
 31
0.0
  0
LINE
  8
0
 62
     0
 10
371.912
 20
32.2158
 30
0.0
 11
371.648
 21
32.2158
 31
0.0
  0
LINE
  8
0
 62
     0
 10
370.978
 20
32.6306
 30
0.0
 11
371.009
 21
32.5672
 31
0.0
  0
LINE
  8
0
 62
     0
 10
371.009
 20
32.5672
 30
0.0
 11
371.253
 21
32.3288
 31
0.0
  0
LINE
  8
0
 62
     0
 10
371.253
 20
32.3288
 30
0.0
 11
371.549
 21
32.2158
 31
0.0
  0
LINE
  8
0
 62
     0
 10
371.549
 20
32.2158
 30
0.0
 11
371.648
 21
32.2158
 31
0.0
  0
LINE
  8
0
 62
     0
 10
370.978
 20
32.6306
 30
0.0
 11
370.448
 21
33.6875
 31
0.0
  0
LINE
  8
0
 62
     0
 10
370.639
 20
34.5984
 30
0.0
 11
370.572
 21
34.5433
 31
0.0
  0
LINE
  8
0
 62
     0
 10
370.572
 20
34.5433
 30
0.0
 11
370.385
 21
34.1767
 31
0.0
  0
LINE
  8
0
 62
     0
 10
370.385
 20
34.1767
 30
0.0
 11
370.41
 21
33.7661
 31
0.0
  0
LINE
  8
0
 62
     0
 10
370.41
 20
33.7661
 30
0.0
 11
370.448
 21
33.6875
 31
0.0
  0
LINE
  8
0
 62
     0
 10
370.639
 20
34.5984
 30
0.0
 11
370.784
 21
34.7211
 31
0.0
  0
LINE
  8
0
 62
     0
 10
370.784
 20
34.7211
 30
0.0
 11
371.147
 21
35.1772
 31
0.0
  0
LINE
  8
0
 62
     0
 10
371.147
 20
35.1772
 30
0.0
 11
371.447
 21
35.8662
 31
0.0
  0
LINE
  8
0
 62
     0
 10
371.447
 20
35.8662
 30
0.0
 11
371.531
 21
36.6145
 31
0.0
  0
LINE
  8
0
 62
     0
 10
371.531
 20
36.6145
 30
0.0
 11
371.45
 21
37.192
 31
0.0
  0
LINE
  8
0
 62
     0
 10
371.45
 20
37.192
 30
0.0
 11
371.383
 21
37.3698
 31
0.0
  0
LINE
  8
0
 62
     0
 10
371.383
 20
37.3698
 30
0.0
 11
371.32
 21
37.549
 31
0.0
  0
LINE
  8
0
 62
     0
 10
371.32
 20
37.549
 30
0.0
 11
371.013
 21
38.045
 31
0.0
  0
LINE
  8
0
 62
     0
 10
371.013
 20
38.045
 30
0.0
 11
370.47
 21
38.5643
 31
0.0
  0
LINE
  8
0
 62
     0
 10
370.47
 20
38.5643
 30
0.0
 11
369.792
 21
38.8994
 31
0.0
  0
LINE
  8
0
 62
     0
 10
369.792
 20
38.8994
 30
0.0
 11
369.224
 21
39.0165
 31
0.0
  0
LINE
  8
0
 62
     0
 10
369.224
 20
39.0165
 30
0.0
 11
369.034
 21
39.0165
 31
0.0
  0
LINE
  8
0
 62
     0
 10
369.034
 20
39.0165
 30
0.0
 11
368.843
 21
39.0165
 31
0.0
  0
LINE
  8
0
 62
     0
 10
368.843
 20
39.0165
 30
0.0
 11
368.275
 21
38.8994
 31
0.0
  0
LINE
  8
0
 62
     0
 10
368.275
 20
38.8994
 30
0.0
 11
367.598
 21
38.5643
 31
0.0
  0
LINE
  8
0
 62
     0
 10
367.598
 20
38.5643
 30
0.0
 11
367.055
 21
38.045
 31
0.0
  0
LINE
  8
0
 62
     0
 10
367.055
 20
38.045
 30
0.0
 11
366.751
 21
37.549
 31
0.0
  0
LINE
  8
0
 62
     0
 10
366.751
 20
37.549
 30
0.0
 11
366.684
 21
37.3698
 31
0.0
  0
LINE
  8
0
 62
     0
 10
366.684
 20
37.3698
 30
0.0
 11
366.621
 21
37.192
 31
0.0
  0
LINE
  8
0
 62
     0
 10
366.621
 20
37.192
 30
0.0
 11
366.536
 21
36.6145
 31
0.0
  0
LINE
  8
0
 62
     0
 10
366.536
 20
36.6145
 30
0.0
 11
366.621
 21
35.8662
 31
0.0
  0
LINE
  8
0
 62
     0
 10
366.621
 20
35.8662
 30
0.0
 11
366.921
 21
35.1772
 31
0.0
  0
LINE
  8
0
 62
     0
 10
366.921
 20
35.1772
 30
0.0
 11
367.284
 21
34.7211
 31
0.0
  0
LINE
  8
0
 62
     0
 10
367.284
 20
34.7211
 30
0.0
 11
367.432
 21
34.5984
 31
0.0
  0
LINE
  8
0
 62
     0
 10
367.619
 20
33.6875
 30
0.0
 11
367.658
 21
33.7661
 31
0.0
  0
LINE
  8
0
 62
     0
 10
367.658
 20
33.7661
 30
0.0
 11
367.683
 21
34.1767
 31
0.0
  0
LINE
  8
0
 62
     0
 10
367.683
 20
34.1767
 30
0.0
 11
367.496
 21
34.5433
 31
0.0
  0
LINE
  8
0
 62
     0
 10
367.496
 20
34.5433
 30
0.0
 11
367.432
 21
34.5984
 31
0.0
  0
LINE
  8
0
 62
     0
 10
367.619
 20
33.6875
 30
0.0
 11
367.09
 21
32.6306
 31
0.0
  0
LINE
  8
0
 62
     0
 10
366.42
 20
32.2158
 30
0.0
 11
366.518
 21
32.2158
 31
0.0
  0
LINE
  8
0
 62
     0
 10
366.518
 20
32.2158
 30
0.0
 11
366.815
 21
32.3288
 31
0.0
  0
LINE
  8
0
 62
     0
 10
366.815
 20
32.3288
 30
0.0
 11
367.058
 21
32.5672
 31
0.0
  0
LINE
  8
0
 62
     0
 10
367.058
 20
32.5672
 30
0.0
 11
367.09
 21
32.6306
 31
0.0
  0
LINE
  8
0
 62
     0
 10
366.42
 20
32.2158
 30
0.0
 11
262.11
 21
32.2158
 31
0.0
  0
LINE
  8
0
 62
     0
 10
261.44
 20
32.6306
 30
0.0
 11
261.472
 21
32.5672
 31
0.0
  0
LINE
  8
0
 62
     0
 10
261.472
 20
32.5672
 30
0.0
 11
261.716
 21
32.3288
 31
0.0
  0
LINE
  8
0
 62
     0
 10
261.716
 20
32.3288
 30
0.0
 11
262.011
 21
32.2158
 31
0.0
  0
LINE
  8
0
 62
     0
 10
262.011
 20
32.2158
 30
0.0
 11
262.11
 21
32.2158
 31
0.0
  0
LINE
  8
0
 62
     0
 10
261.44
 20
32.6306
 30
0.0
 11
260.911
 21
33.6875
 31
0.0
  0
LINE
  8
0
 62
     0
 10
261.101
 20
34.5984
 30
0.0
 11
261.034
 21
34.5433
 31
0.0
  0
LINE
  8
0
 62
     0
 10
261.034
 20
34.5433
 30
0.0
 11
260.846
 21
34.1767
 31
0.0
  0
LINE
  8
0
 62
     0
 10
260.846
 20
34.1767
 30
0.0
 11
260.871
 21
33.7661
 31
0.0
  0
LINE
  8
0
 62
     0
 10
260.871
 20
33.7661
 30
0.0
 11
260.911
 21
33.6875
 31
0.0
  0
LINE
  8
0
 62
     0
 10
261.101
 20
34.5984
 30
0.0
 11
261.246
 21
34.7211
 31
0.0
  0
LINE
  8
0
 62
     0
 10
261.246
 20
34.7211
 30
0.0
 11
261.608
 21
35.1772
 31
0.0
  0
LINE
  8
0
 62
     0
 10
261.608
 20
35.1772
 30
0.0
 11
261.91
 21
35.8662
 31
0.0
  0
LINE
  8
0
 62
     0
 10
261.91
 20
35.8662
 30
0.0
 11
261.994
 21
36.6145
 31
0.0
  0
LINE
  8
0
 62
     0
 10
261.994
 20
36.6145
 30
0.0
 11
261.911
 21
37.192
 31
0.0
  0
LINE
  8
0
 62
     0
 10
261.911
 20
37.192
 30
0.0
 11
261.846
 21
37.3698
 31
0.0
  0
LINE
  8
0
 62
     0
 10
261.846
 20
37.3698
 30
0.0
 11
261.782
 21
37.549
 31
0.0
  0
LINE
  8
0
 62
     0
 10
261.782
 20
37.549
 30
0.0
 11
261.476
 21
38.045
 31
0.0
  0
LINE
  8
0
 62
     0
 10
261.476
 20
38.045
 30
0.0
 11
260.931
 21
38.5643
 31
0.0
  0
LINE
  8
0
 62
     0
 10
260.931
 20
38.5643
 30
0.0
 11
260.256
 21
38.8994
 31
0.0
  0
LINE
  8
0
 62
     0
 10
260.256
 20
38.8994
 30
0.0
 11
259.686
 21
39.0165
 31
0.0
  0
LINE
  8
0
 62
     0
 10
259.686
 20
39.0165
 30
0.0
 11
259.497
 21
39.0165
 31
0.0
  0
LINE
  8
0
 62
     0
 10
259.497
 20
39.0165
 30
0.0
 11
259.307
 21
39.0165
 31
0.0
  0
LINE
  8
0
 62
     0
 10
259.307
 20
39.0165
 30
0.0
 11
258.736
 21
38.8994
 31
0.0
  0
LINE
  8
0
 62
     0
 10
258.736
 20
38.8994
 30
0.0
 11
258.061
 21
38.5643
 31
0.0
  0
LINE
  8
0
 62
     0
 10
258.061
 20
38.5643
 30
0.0
 11
257.517
 21
38.045
 31
0.0
  0
LINE
  8
0
 62
     0
 10
257.517
 20
38.045
 30
0.0
 11
257.212
 21
37.549
 31
0.0
  0
LINE
  8
0
 62
     0
 10
257.212
 20
37.549
 30
0.0
 11
257.147
 21
37.3698
 31
0.0
  0
LINE
  8
0
 62
     0
 10
257.147
 20
37.3698
 30
0.0
 11
257.083
 21
37.192
 31
0.0
  0
LINE
  8
0
 62
     0
 10
257.083
 20
37.192
 30
0.0
 11
256.999
 21
36.6145
 31
0.0
  0
LINE
  8
0
 62
     0
 10
256.999
 20
36.6145
 30
0.0
 11
257.083
 21
35.8662
 31
0.0
  0
LINE
  8
0
 62
     0
 10
257.083
 20
35.8662
 30
0.0
 11
257.385
 21
35.1772
 31
0.0
  0
LINE
  8
0
 62
     0
 10
257.385
 20
35.1772
 30
0.0
 11
257.747
 21
34.7211
 31
0.0
  0
LINE
  8
0
 62
     0
 10
257.747
 20
34.7211
 30
0.0
 11
257.893
 21
34.5984
 31
0.0
  0
LINE
  8
0
 62
     0
 10
258.083
 20
33.6875
 30
0.0
 11
258.122
 21
33.7661
 31
0.0
  0
LINE
  8
0
 62
     0
 10
258.122
 20
33.7661
 30
0.0
 11
258.145
 21
34.1767
 31
0.0
  0
LINE
  8
0
 62
     0
 10
258.145
 20
34.1767
 30
0.0
 11
257.959
 21
34.5433
 31
0.0
  0
LINE
  8
0
 62
     0
 10
257.959
 20
34.5433
 30
0.0
 11
257.893
 21
34.5984
 31
0.0
  0
LINE
  8
0
 62
     0
 10
258.083
 20
33.6875
 30
0.0
 11
257.554
 21
32.6306
 31
0.0
  0
LINE
  8
0
 62
     0
 10
256.883
 20
32.2158
 30
0.0
 11
256.981
 21
32.2158
 31
0.0
  0
LINE
  8
0
 62
     0
 10
256.981
 20
32.2158
 30
0.0
 11
257.277
 21
32.3288
 31
0.0
  0
LINE
  8
0
 62
     0
 10
257.277
 20
32.3288
 30
0.0
 11
257.522
 21
32.5672
 31
0.0
  0
LINE
  8
0
 62
     0
 10
257.522
 20
32.5672
 30
0.0
 11
257.554
 21
32.6306
 31
0.0
  0
LINE
  8
0
 62
     0
 10
256.883
 20
32.2158
 30
0.0
 11
152.572
 21
32.2158
 31
0.0
  0
LINE
  8
0
 62
     0
 10
151.903
 20
32.6306
 30
0.0
 11
151.934
 21
32.5672
 31
0.0
  0
LINE
  8
0
 62
     0
 10
151.934
 20
32.5672
 30
0.0
 11
152.178
 21
32.3288
 31
0.0
  0
LINE
  8
0
 62
     0
 10
152.178
 20
32.3288
 30
0.0
 11
152.473
 21
32.2158
 31
0.0
  0
LINE
  8
0
 62
     0
 10
152.473
 20
32.2158
 30
0.0
 11
152.572
 21
32.2158
 31
0.0
  0
LINE
  8
0
 62
     0
 10
151.903
 20
32.6306
 30
0.0
 11
151.373
 21
33.6875
 31
0.0
  0
LINE
  8
0
 62
     0
 10
151.564
 20
34.5984
 30
0.0
 11
151.496
 21
34.5433
 31
0.0
  0
LINE
  8
0
 62
     0
 10
151.496
 20
34.5433
 30
0.0
 11
151.309
 21
34.1767
 31
0.0
  0
LINE
  8
0
 62
     0
 10
151.309
 20
34.1767
 30
0.0
 11
151.334
 21
33.7661
 31
0.0
  0
LINE
  8
0
 62
     0
 10
151.334
 20
33.7661
 30
0.0
 11
151.373
 21
33.6875
 31
0.0
  0
LINE
  8
0
 62
     0
 10
151.564
 20
34.5984
 30
0.0
 11
151.708
 21
34.7211
 31
0.0
  0
LINE
  8
0
 62
     0
 10
151.708
 20
34.7211
 30
0.0
 11
152.071
 21
35.1772
 31
0.0
  0
LINE
  8
0
 62
     0
 10
152.071
 20
35.1772
 30
0.0
 11
152.372
 21
35.8662
 31
0.0
  0
LINE
  8
0
 62
     0
 10
152.372
 20
35.8662
 30
0.0
 11
152.456
 21
36.6145
 31
0.0
  0
LINE
  8
0
 62
     0
 10
152.456
 20
36.6145
 30
0.0
 11
152.374
 21
37.192
 31
0.0
  0
LINE
  8
0
 62
     0
 10
152.374
 20
37.192
 30
0.0
 11
152.309
 21
37.3698
 31
0.0
  0
LINE
  8
0
 62
     0
 10
152.309
 20
37.3698
 30
0.0
 11
152.244
 21
37.549
 31
0.0
  0
LINE
  8
0
 62
     0
 10
152.244
 20
37.549
 30
0.0
 11
151.938
 21
38.045
 31
0.0
  0
LINE
  8
0
 62
     0
 10
151.938
 20
38.045
 30
0.0
 11
151.394
 21
38.5643
 31
0.0
  0
LINE
  8
0
 62
     0
 10
151.394
 20
38.5643
 30
0.0
 11
150.719
 21
38.8994
 31
0.0
  0
LINE
  8
0
 62
     0
 10
150.719
 20
38.8994
 30
0.0
 11
150.148
 21
39.0165
 31
0.0
  0
LINE
  8
0
 62
     0
 10
150.148
 20
39.0165
 30
0.0
 11
149.959
 21
39.0165
 31
0.0
  0
LINE
  8
0
 62
     0
 10
149.959
 20
39.0165
 30
0.0
 11
149.769
 21
39.0165
 31
0.0
  0
LINE
  8
0
 62
     0
 10
149.769
 20
39.0165
 30
0.0
 11
149.199
 21
38.8994
 31
0.0
  0
LINE
  8
0
 62
     0
 10
149.199
 20
38.8994
 30
0.0
 11
148.524
 21
38.5643
 31
0.0
  0
LINE
  8
0
 62
     0
 10
148.524
 20
38.5643
 30
0.0
 11
147.979
 21
38.045
 31
0.0
  0
LINE
  8
0
 62
     0
 10
147.979
 20
38.045
 30
0.0
 11
147.675
 21
37.549
 31
0.0
  0
LINE
  8
0
 62
     0
 10
147.675
 20
37.549
 30
0.0
 11
147.61
 21
37.3698
 31
0.0
  0
LINE
  8
0
 62
     0
 10
147.61
 20
37.3698
 30
0.0
 11
147.545
 21
37.192
 31
0.0
  0
LINE
  8
0
 62
     0
 10
147.545
 20
37.192
 30
0.0
 11
147.461
 21
36.6145
 31
0.0
  0
LINE
  8
0
 62
     0
 10
147.461
 20
36.6145
 30
0.0
 11
147.545
 21
35.8662
 31
0.0
  0
LINE
  8
0
 62
     0
 10
147.545
 20
35.8662
 30
0.0
 11
147.847
 21
35.1772
 31
0.0
  0
LINE
  8
0
 62
     0
 10
147.847
 20
35.1772
 30
0.0
 11
148.209
 21
34.7211
 31
0.0
  0
LINE
  8
0
 62
     0
 10
148.209
 20
34.7211
 30
0.0
 11
148.355
 21
34.5984
 31
0.0
  0
LINE
  8
0
 62
     0
 10
148.546
 20
33.6875
 30
0.0
 11
148.584
 21
33.7661
 31
0.0
  0
LINE
  8
0
 62
     0
 10
148.584
 20
33.7661
 30
0.0
 11
148.608
 21
34.1767
 31
0.0
  0
LINE
  8
0
 62
     0
 10
148.608
 20
34.1767
 30
0.0
 11
148.422
 21
34.5433
 31
0.0
  0
LINE
  8
0
 62
     0
 10
148.422
 20
34.5433
 30
0.0
 11
148.355
 21
34.5984
 31
0.0
  0
LINE
  8
0
 62
     0
 10
148.546
 20
33.6875
 30
0.0
 11
148.016
 21
32.6306
 31
0.0
  0
LINE
  8
0
 62
     0
 10
147.345
 20
32.2158
 30
0.0
 11
147.443
 21
32.2158
 31
0.0
  0
LINE
  8
0
 62
     0
 10
147.443
 20
32.2158
 30
0.0
 11
147.739
 21
32.3288
 31
0.0
  0
LINE
  8
0
 62
     0
 10
147.739
 20
32.3288
 30
0.0
 11
147.985
 21
32.5672
 31
0.0
  0
LINE
  8
0
 62
     0
 10
147.985
 20
32.5672
 30
0.0
 11
148.016
 21
32.6306
 31
0.0
  0
LINE
  8
0
 62
     0
 10
147.345
 20
32.2158
 30
0.0
 11
43.0347
 21
32.2158
 31
0.0
  0
LINE
  8
0
 62
     0
 10
42.3651
 20
32.6306
 30
0.0
 11
42.3968
 21
32.5672
 31
0.0
  0
LINE
  8
0
 62
     0
 10
42.3968
 20
32.5672
 30
0.0
 11
42.6406
 21
32.3288
 31
0.0
  0
LINE
  8
0
 62
     0
 10
42.6406
 20
32.3288
 30
0.0
 11
42.9355
 21
32.2158
 31
0.0
  0
LINE
  8
0
 62
     0
 10
42.9355
 20
32.2158
 30
0.0
 11
43.0347
 21
32.2158
 31
0.0
  0
LINE
  8
0
 62
     0
 10
42.3651
 20
32.6306
 30
0.0
 11
41.8359
 21
33.6875
 31
0.0
  0
LINE
  8
0
 62
     0
 10
42.0261
 20
34.5984
 30
0.0
 11
41.9587
 21
34.5433
 31
0.0
  0
LINE
  8
0
 62
     0
 10
41.9587
 20
34.5433
 30
0.0
 11
41.771
 21
34.1767
 31
0.0
  0
LINE
  8
0
 62
     0
 10
41.771
 20
34.1767
 30
0.0
 11
41.7961
 21
33.7661
 31
0.0
  0
LINE
  8
0
 62
     0
 10
41.7961
 20
33.7661
 30
0.0
 11
41.8359
 21
33.6875
 31
0.0
  0
LINE
  8
0
 62
     0
 10
42.0261
 20
34.5984
 30
0.0
 11
42.1707
 21
34.7211
 31
0.0
  0
LINE
  8
0
 62
     0
 10
42.1707
 20
34.7211
 30
0.0
 11
42.533
 21
35.1772
 31
0.0
  0
LINE
  8
0
 62
     0
 10
42.533
 20
35.1772
 30
0.0
 11
42.835
 21
35.8662
 31
0.0
  0
LINE
  8
0
 62
     0
 10
42.835
 20
35.8662
 30
0.0
 11
42.9189
 21
36.6145
 31
0.0
  0
LINE
  8
0
 62
     0
 10
42.9189
 20
36.6145
 30
0.0
 11
42.8364
 21
37.192
 31
0.0
  0
LINE
  8
0
 62
     0
 10
42.8364
 20
37.192
 30
0.0
 11
42.7715
 21
37.3698
 31
0.0
  0
LINE
  8
0
 62
     0
 10
42.7715
 20
37.3698
 30
0.0
 11
42.7069
 21
37.549
 31
0.0
  0
LINE
  8
0
 62
     0
 10
42.7069
 20
37.549
 30
0.0
 11
42.4007
 21
38.045
 31
0.0
  0
LINE
  8
0
 62
     0
 10
42.4007
 20
38.045
 30
0.0
 11
41.8564
 21
38.5643
 31
0.0
  0
LINE
  8
0
 62
     0
 10
41.8564
 20
38.5643
 30
0.0
 11
41.1812
 21
38.8994
 31
0.0
  0
LINE
  8
0
 62
     0
 10
41.1812
 20
38.8994
 30
0.0
 11
40.6107
 21
39.0165
 31
0.0
  0
LINE
  8
0
 62
     0
 10
40.6107
 20
39.0165
 30
0.0
 11
40.422
 21
39.0165
 31
0.0
  0
LINE
  8
0
 62
     0
 10
40.422
 20
39.0165
 30
0.0
 11
40.2318
 21
39.0165
 31
0.0
  0
LINE
  8
0
 62
     0
 10
40.2318
 20
39.0165
 30
0.0
 11
39.6614
 21
38.8994
 31
0.0
  0
LINE
  8
0
 62
     0
 10
39.6614
 20
38.8994
 30
0.0
 11
38.9862
 21
38.5643
 31
0.0
  0
LINE
  8
0
 62
     0
 10
38.9862
 20
38.5643
 30
0.0
 11
38.4418
 21
38.045
 31
0.0
  0
LINE
  8
0
 62
     0
 10
38.4418
 20
38.045
 30
0.0
 11
38.137
 21
37.549
 31
0.0
  0
LINE
  8
0
 62
     0
 10
38.137
 20
37.549
 30
0.0
 11
38.0725
 21
37.3698
 31
0.0
  0
LINE
  8
0
 62
     0
 10
38.0725
 20
37.3698
 30
0.0
 11
38.0076
 21
37.192
 31
0.0
  0
LINE
  8
0
 62
     0
 10
38.0076
 20
37.192
 30
0.0
 11
37.9236
 21
36.6145
 31
0.0
  0
LINE
  8
0
 62
     0
 10
37.9236
 20
36.6145
 30
0.0
 11
38.0076
 21
35.8662
 31
0.0
  0
LINE
  8
0
 62
     0
 10
38.0076
 20
35.8662
 30
0.0
 11
38.3096
 21
35.1772
 31
0.0
  0
LINE
  8
0
 62
     0
 10
38.3096
 20
35.1772
 30
0.0
 11
38.6719
 21
34.7211
 31
0.0
  0
LINE
  8
0
 62
     0
 10
38.6719
 20
34.7211
 30
0.0
 11
38.8179
 21
34.5984
 31
0.0
  0
LINE
  8
0
 62
     0
 10
39.008
 20
33.6875
 30
0.0
 11
39.0469
 21
33.7661
 31
0.0
  0
LINE
  8
0
 62
     0
 10
39.0469
 20
33.7661
 30
0.0
 11
39.0701
 21
34.1767
 31
0.0
  0
LINE
  8
0
 62
     0
 10
39.0701
 20
34.1767
 30
0.0
 11
38.8842
 21
34.5433
 31
0.0
  0
LINE
  8
0
 62
     0
 10
38.8842
 20
34.5433
 30
0.0
 11
38.8179
 21
34.5984
 31
0.0
  0
LINE
  8
0
 62
     0
 10
39.008
 20
33.6875
 30
0.0
 11
38.4789
 21
32.6306
 31
0.0
  0
LINE
  8
0
 62
     0
 10
37.8079
 20
32.2158
 30
0.0
 11
37.9056
 21
32.2158
 31
0.0
  0
LINE
  8
0
 62
     0
 10
37.9056
 20
32.2158
 30
0.0
 11
38.202
 21
32.3288
 31
0.0
  0
LINE
  8
0
 62
     0
 10
38.202
 20
32.3288
 30
0.0
 11
38.4471
 21
32.5672
 31
0.0
  0
LINE
  8
0
 62
     0
 10
38.4471
 20
32.5672
 30
0.0
 11
38.4789
 21
32.6306
 31
0.0
  0
LINE
  8
0
 62
     0
 10
37.8079
 20
32.2158
 30
0.0
 11
37.5433
 21
32.2158
 31
0.0
  0
LINE
  8
0
 62
     0
 10
342.984
 20
134.616
 30
0.0
 11
356.986
 21
134.616
 31
0.0
  0
LINE
  8
0
 62
     0
 10
356.986
 20
134.616
 30
0.0
 11
356.986
 21
120.615
 31
0.0
  0
LINE
  8
0
 62
     0
 10
356.986
 20
120.615
 30
0.0
 11
342.984
 21
120.615
 31
0.0
  0
LINE
  8
0
 62
     0
 10
342.984
 20
120.615
 30
0.0
 11
342.984
 21
134.616
 31
0.0
  0
LINE
  8
0
 62
     0
 10
362.035
 20
134.616
 30
0.0
 11
376.036
 21
134.616
 31
0.0
  0
LINE
  8
0
 62
     0
 10
376.036
 20
134.616
 30
0.0
 11
376.036
 21
120.615
 31
0.0
  0
LINE
  8
0
 62
     0
 10
376.036
 20
120.615
 30
0.0
 11
362.035
 21
120.615
 31
0.0
  0
LINE
  8
0
 62
     0
 10
362.035
 20
120.615
 30
0.0
 11
362.035
 21
134.616
 31
0.0
  0
LINE
  8
0
 62
     0
 10
342.984
 20
115.566
 30
0.0
 11
356.986
 21
115.566
 31
0.0
  0
LINE
  8
0
 62
     0
 10
356.986
 20
115.566
 30
0.0
 11
356.986
 21
101.565
 31
0.0
  0
LINE
  8
0
 62
     0
 10
356.986
 20
101.565
 30
0.0
 11
342.984
 21
101.565
 31
0.0
  0
LINE
  8
0
 62
     0
 10
342.984
 20
101.565
 30
0.0
 11
342.984
 21
115.566
 31
0.0
  0
LINE
  8
0
 62
     0
 10
323.934
 20
58.4165
 30
0.0
 11
337.935
 21
58.4165
 31
0.0
  0
LINE
  8
0
 62
     0
 10
337.935
 20
58.4165
 30
0.0
 11
337.935
 21
44.4154
 31
0.0
  0
LINE
  8
0
 62
     0
 10
337.935
 20
44.4154
 30
0.0
 11
323.934
 21
44.4154
 31
0.0
  0
LINE
  8
0
 62
     0
 10
323.934
 20
44.4154
 30
0.0
 11
323.934
 21
58.4165
 31
0.0
  0
LINE
  8
0
 62
     0
 10
362.035
 20
58.4165
 30
0.0
 11
376.036
 21
58.4165
 31
0.0
  0
LINE
  8
0
 62
     0
 10
376.036
 20
58.4165
 30
0.0
 11
376.036
 21
44.4154
 31
0.0
  0
LINE
  8
0
 62
     0
 10
376.036
 20
44.4154
 30
0.0
 11
362.035
 21
44.4154
 31
0.0
  0
LINE
  8
0
 62
     0
 10
362.035
 20
44.4154
 30
0.0
 11
362.035
 21
58.4165
 31
0.0
  0
LINE
  8
0
 62
     0
 10
342.984
 20
58.4165
 30
0.0
 11
356.986
 21
58.4165
 31
0.0
  0
LINE
  8
0
 62
     0
 10
356.986
 20
58.4165
 30
0.0
 11
356.986
 21
44.4154
 31
0.0
  0
LINE
  8
0
 62
     0
 10
356.986
 20
44.4154
 30
0.0
 11
342.984
 21
44.4154
 31
0.0
  0
LINE
  8
0
 62
     0
 10
342.984
 20
44.4154
 30
0.0
 11
342.984
 21
58.4165
 31
0.0
  0
LINE
  8
0
 62
     0
 10
342.984
 20
77.4665
 30
0.0
 11
356.986
 21
77.4665
 31
0.0
  0
LINE
  8
0
 62
     0
 10
356.986
 20
77.4665
 30
0.0
 11
356.986
 21
63.4654
 31
0.0
  0
LINE
  8
0
 62
     0
 10
356.986
 20
63.4654
 30
0.0
 11
342.984
 21
63.4654
 31
0.0
  0
LINE
  8
0
 62
     0
 10
342.984
 20
63.4654
 30
0.0
 11
342.984
 21
77.4665
 31
0.0
  0
LINE
  8
0
 62
     0
 10
362.035
 20
115.566
 30
0.0
 11
376.036
 21
115.566
 31
0.0
  0
LINE
  8
0
 62
     0
 10
376.036
 20
115.566
 30
0.0
 11
376.036
 21
101.565
 31
0.0
  0
LINE
  8
0
 62
     0
 10
376.036
 20
101.565
 30
0.0
 11
362.035
 21
101.565
 31
0.0
  0
LINE
  8
0
 62
     0
 10
362.035
 20
101.565
 30
0.0
 11
362.035
 21
115.566
 31
0.0
  0
LINE
  8
0
 62
     0
 10
323.934
 20
115.566
 30
0.0
 11
337.935
 21
115.566
 31
0.0
  0
LINE
  8
0
 62
     0
 10
337.935
 20
115.566
 30
0.0
 11
337.935
 21
101.565
 31
0.0
  0
LINE
  8
0
 62
     0
 10
337.935
 20
101.565
 30
0.0
 11
323.934
 21
101.565
 31
0.0
  0
LINE
  8
0
 62
     0
 10
323.934
 20
101.565
 30
0.0
 11
323.934
 21
115.566
 31
0.0
  0
LINE
  8
0
 62
     0
 10
323.934
 20
134.616
 30
0.0
 11
337.935
 21
134.616
 31
0.0
  0
LINE
  8
0
 62
     0
 10
337.935
 20
134.616
 30
0.0
 11
337.935
 21
120.615
 31
0.0
  0
LINE
  8
0
 62
     0
 10
337.935
 20
120.615
 30
0.0
 11
323.934
 21
120.615
 31
0.0
  0
LINE
  8
0
 62
     0
 10
323.934
 20
120.615
 30
0.0
 11
323.934
 21
134.616
 31
0.0
  0
LINE
  8
0
 62
     0
 10
33.4216
 20
158.429
 30
0.0
 11
47.4225
 21
158.429
 31
0.0
  0
LINE
  8
0
 62
     0
 10
47.4225
 20
158.429
 30
0.0
 11
47.4225
 21
144.428
 31
0.0
  0
LINE
  8
0
 62
     0
 10
47.4225
 20
144.428
 30
0.0
 11
33.4216
 21
144.428
 31
0.0
  0
LINE
  8
0
 62
     0
 10
33.4216
 20
144.428
 30
0.0
 11
33.4216
 21
158.429
 31
0.0
  0
LINE
  8
0
 62
     0
 10
71.5215
 20
158.429
 30
0.0
 11
85.5225
 21
158.429
 31
0.0
  0
LINE
  8
0
 62
     0
 10
85.5225
 20
158.429
 30
0.0
 11
85.5225
 21
144.428
 31
0.0
  0
LINE
  8
0
 62
     0
 10
85.5225
 20
144.428
 30
0.0
 11
71.5215
 21
144.428
 31
0.0
  0
LINE
  8
0
 62
     0
 10
71.5215
 20
144.428
 30
0.0
 11
71.5215
 21
158.429
 31
0.0
  0
LINE
  8
0
 62
     0
 10
90.5715
 20
158.429
 30
0.0
 11
104.573
 21
158.429
 31
0.0
  0
LINE
  8
0
 62
     0
 10
104.573
 20
158.429
 30
0.0
 11
104.573
 21
144.428
 31
0.0
  0
LINE
  8
0
 62
     0
 10
104.573
 20
144.428
 30
0.0
 11
90.5715
 21
144.428
 31
0.0
  0
LINE
  8
0
 62
     0
 10
90.5715
 20
144.428
 30
0.0
 11
90.5715
 21
158.429
 31
0.0
  0
LINE
  8
0
 62
     0
 10
128.671
 20
158.429
 30
0.0
 11
142.673
 21
158.429
 31
0.0
  0
LINE
  8
0
 62
     0
 10
142.673
 20
158.429
 30
0.0
 11
142.673
 21
144.428
 31
0.0
  0
LINE
  8
0
 62
     0
 10
142.673
 20
144.428
 30
0.0
 11
128.671
 21
144.428
 31
0.0
  0
LINE
  8
0
 62
     0
 10
128.671
 20
144.428
 30
0.0
 11
128.671
 21
158.429
 31
0.0
  0
LINE
  8
0
 62
     0
 10
157.246
 20
158.429
 30
0.0
 11
171.248
 21
158.429
 31
0.0
  0
LINE
  8
0
 62
     0
 10
171.248
 20
158.429
 30
0.0
 11
171.248
 21
144.428
 31
0.0
  0
LINE
  8
0
 62
     0
 10
171.248
 20
144.428
 30
0.0
 11
157.246
 21
144.428
 31
0.0
  0
LINE
  8
0
 62
     0
 10
157.246
 20
144.428
 30
0.0
 11
157.246
 21
158.429
 31
0.0
  0
LINE
  8
0
 62
     0
 10
195.346
 20
158.429
 30
0.0
 11
209.348
 21
158.429
 31
0.0
  0
LINE
  8
0
 62
     0
 10
209.348
 20
158.429
 30
0.0
 11
209.348
 21
144.428
 31
0.0
  0
LINE
  8
0
 62
     0
 10
209.348
 20
144.428
 30
0.0
 11
195.346
 21
144.428
 31
0.0
  0
LINE
  8
0
 62
     0
 10
195.346
 20
144.428
 30
0.0
 11
195.346
 21
158.429
 31
0.0
  0
LINE
  8
0
 62
     0
 10
214.396
 20
158.429
 30
0.0
 11
228.398
 21
158.429
 31
0.0
  0
LINE
  8
0
 62
     0
 10
228.398
 20
158.429
 30
0.0
 11
228.398
 21
144.428
 31
0.0
  0
LINE
  8
0
 62
     0
 10
228.398
 20
144.428
 30
0.0
 11
214.396
 21
144.428
 31
0.0
  0
LINE
  8
0
 62
     0
 10
214.396
 20
144.428
 30
0.0
 11
214.396
 21
158.429
 31
0.0
  0
LINE
  8
0
 62
     0
 10
242.971
 20
158.429
 30
0.0
 11
256.973
 21
158.429
 31
0.0
  0
LINE
  8
0
 62
     0
 10
256.973
 20
158.429
 30
0.0
 11
256.973
 21
144.428
 31
0.0
  0
LINE
  8
0
 62
     0
 10
256.973
 20
144.428
 30
0.0
 11
242.971
 21
144.428
 31
0.0
  0
LINE
  8
0
 62
     0
 10
242.971
 20
144.428
 30
0.0
 11
242.971
 21
158.429
 31
0.0
  0
LINE
  8
0
 62
     0
 10
262.021
 20
158.429
 30
0.0
 11
276.023
 21
158.429
 31
0.0
  0
LINE
  8
0
 62
     0
 10
276.023
 20
158.429
 30
0.0
 11
276.023
 21
144.428
 31
0.0
  0
LINE
  8
0
 62
     0
 10
276.023
 20
144.428
 30
0.0
 11
262.021
 21
144.428
 31
0.0
  0
LINE
  8
0
 62
     0
 10
262.021
 20
144.428
 30
0.0
 11
262.021
 21
158.429
 31
0.0
  0
LINE
  8
0
 62
     0
 10
300.121
 20
158.429
 30
0.0
 11
314.123
 21
158.429
 31
0.0
  0
LINE
  8
0
 62
     0
 10
314.123
 20
158.429
 30
0.0
 11
314.123
 21
144.428
 31
0.0
  0
LINE
  8
0
 62
     0
 10
314.123
 20
144.428
 30
0.0
 11
300.121
 21
144.428
 31
0.0
  0
LINE
  8
0
 62
     0
 10
300.121
 20
144.428
 30
0.0
 11
300.121
 21
158.429
 31
0.0
  0
LINE
  8
0
 62
     0
 10
323.934
 20
158.429
 30
0.0
 11
337.935
 21
158.429
 31
0.0
  0
LINE
  8
0
 62
     0
 10
337.935
 20
158.429
 30
0.0
 11
337.935
 21
144.428
 31
0.0
  0
LINE
  8
0
 62
     0
 10
337.935
 20
144.428
 30
0.0
 11
323.934
 21
144.428
 31
0.0
  0
LINE
  8
0
 62
     0
 10
323.934
 20
144.428
 30
0.0
 11
323.934
 21
158.429
 31
0.0
  0
LINE
  8
0
 62
     0
 10
362.035
 20
158.429
 30
0.0
 11
376.036
 21
158.429
 31
0.0
  0
LINE
  8
0
 62
     0
 10
376.036
 20
158.429
 30
0.0
 11
376.036
 21
144.428
 31
0.0
  0
LINE
  8
0
 62
     0
 10
376.036
 20
144.428
 30
0.0
 11
362.035
 21
144.428
 31
0.0
  0
LINE
  8
0
 62
     0
 10
362.035
 20
144.428
 30
0.0
 11
362.035
 21
158.429
 31
0.0
  0
LINE
  8
0
 62
     0
 10
342.984
 20
158.429
 30
0.0
 11
356.986
 21
158.429
 31
0.0
  0
LINE
  8
0
 62
     0
 10
356.986
 20
158.429
 30
0.0
 11
356.986
 21
144.428
 31
0.0
  0
LINE
  8
0
 62
     0
 10
356.986
 20
144.428
 30
0.0
 11
342.984
 21
144.428
 31
0.0
  0
LINE
  8
0
 62
     0
 10
342.984
 20
144.428
 30
0.0
 11
342.984
 21
158.429
 31
0.0
  0
LINE
  8
0
 62
     0
 10
281.071
 20
158.429
 30
0.0
 11
295.073
 21
158.429
 31
0.0
  0
LINE
  8
0
 62
     0
 10
295.073
 20
158.429
 30
0.0
 11
295.073
 21
144.428
 31
0.0
  0
LINE
  8
0
 62
     0
 10
295.073
 20
144.428
 30
0.0
 11
281.071
 21
144.428
 31
0.0
  0
LINE
  8
0
 62
     0
 10
281.071
 20
144.428
 30
0.0
 11
281.071
 21
158.429
 31
0.0
  0
LINE
  8
0
 62
     0
 10
176.296
 20
158.429
 30
0.0
 11
190.298
 21
158.429
 31
0.0
  0
LINE
  8
0
 62
     0
 10
190.298
 20
158.429
 30
0.0
 11
190.298
 21
144.428
 31
0.0
  0
LINE
  8
0
 62
     0
 10
190.298
 20
144.428
 30
0.0
 11
176.296
 21
144.428
 31
0.0
  0
LINE
  8
0
 62
     0
 10
176.296
 20
144.428
 30
0.0
 11
176.296
 21
158.429
 31
0.0
  0
LINE
  8
0
 62
     0
 10
109.621
 20
158.429
 30
0.0
 11
123.623
 21
158.429
 31
0.0
  0
LINE
  8
0
 62
     0
 10
123.623
 20
158.429
 30
0.0
 11
123.623
 21
144.428
 31
0.0
  0
LINE
  8
0
 62
     0
 10
123.623
 20
144.428
 30
0.0
 11
109.621
 21
144.428
 31
0.0
  0
LINE
  8
0
 62
     0
 10
109.621
 20
144.428
 30
0.0
 11
109.621
 21
158.429
 31
0.0
  0
LINE
  8
0
 62
     0
 10
128.671
 20
134.616
 30
0.0
 11
142.673
 21
134.616
 31
0.0
  0
LINE
  8
0
 62
     0
 10
142.673
 20
134.616
 30
0.0
 11
142.673
 21
120.615
 31
0.0
  0
LINE
  8
0
 62
     0
 10
142.673
 20
120.615
 30
0.0
 11
128.671
 21
120.615
 31
0.0
  0
LINE
  8
0
 62
     0
 10
128.671
 20
120.615
 30
0.0
 11
128.671
 21
134.616
 31
0.0
  0
LINE
  8
0
 62
     0
 10
147.721
 20
134.616
 30
0.0
 11
161.723
 21
134.616
 31
0.0
  0
LINE
  8
0
 62
     0
 10
161.723
 20
134.616
 30
0.0
 11
161.723
 21
120.615
 31
0.0
  0
LINE
  8
0
 62
     0
 10
161.723
 20
120.615
 30
0.0
 11
147.721
 21
120.615
 31
0.0
  0
LINE
  8
0
 62
     0
 10
147.721
 20
120.615
 30
0.0
 11
147.721
 21
134.616
 31
0.0
  0
LINE
  8
0
 62
     0
 10
185.821
 20
134.616
 30
0.0
 11
199.823
 21
134.616
 31
0.0
  0
LINE
  8
0
 62
     0
 10
199.823
 20
134.616
 30
0.0
 11
199.823
 21
120.615
 31
0.0
  0
LINE
  8
0
 62
     0
 10
199.823
 20
120.615
 30
0.0
 11
185.821
 21
120.615
 31
0.0
  0
LINE
  8
0
 62
     0
 10
185.821
 20
120.615
 30
0.0
 11
185.821
 21
134.616
 31
0.0
  0
LINE
  8
0
 62
     0
 10
204.871
 20
134.616
 30
0.0
 11
218.873
 21
134.616
 31
0.0
  0
LINE
  8
0
 62
     0
 10
218.873
 20
134.616
 30
0.0
 11
218.873
 21
120.615
 31
0.0
  0
LINE
  8
0
 62
     0
 10
218.873
 20
120.615
 30
0.0
 11
204.871
 21
120.615
 31
0.0
  0
LINE
  8
0
 62
     0
 10
204.871
 20
120.615
 30
0.0
 11
204.871
 21
134.616
 31
0.0
  0
LINE
  8
0
 62
     0
 10
262.021
 20
134.616
 30
0.0
 11
276.023
 21
134.616
 31
0.0
  0
LINE
  8
0
 62
     0
 10
276.023
 20
134.616
 30
0.0
 11
276.023
 21
120.615
 31
0.0
  0
LINE
  8
0
 62
     0
 10
276.023
 20
120.615
 30
0.0
 11
262.021
 21
120.615
 31
0.0
  0
LINE
  8
0
 62
     0
 10
262.021
 20
120.615
 30
0.0
 11
262.021
 21
134.616
 31
0.0
  0
LINE
  8
0
 62
     0
 10
157.246
 20
115.566
 30
0.0
 11
171.248
 21
115.566
 31
0.0
  0
LINE
  8
0
 62
     0
 10
171.248
 20
115.566
 30
0.0
 11
171.248
 21
101.565
 31
0.0
  0
LINE
  8
0
 62
     0
 10
171.248
 20
101.565
 30
0.0
 11
157.246
 21
101.565
 31
0.0
  0
LINE
  8
0
 62
     0
 10
157.246
 20
101.565
 30
0.0
 11
157.246
 21
115.566
 31
0.0
  0
LINE
  8
0
 62
     0
 10
85.809
 20
96.5165
 30
0.0
 11
99.81
 21
96.5165
 31
0.0
  0
LINE
  8
0
 62
     0
 10
99.81
 20
96.5165
 30
0.0
 11
99.81
 21
82.5154
 31
0.0
  0
LINE
  8
0
 62
     0
 10
99.81
 20
82.5154
 30
0.0
 11
85.809
 21
82.5154
 31
0.0
  0
LINE
  8
0
 62
     0
 10
85.809
 20
82.5154
 30
0.0
 11
85.809
 21
96.5165
 31
0.0
  0
LINE
  8
0
 62
     0
 10
162.009
 20
96.5165
 30
0.0
 11
176.01
 21
96.5165
 31
0.0
  0
LINE
  8
0
 62
     0
 10
176.01
 20
96.5165
 30
0.0
 11
176.01
 21
82.5154
 31
0.0
  0
LINE
  8
0
 62
     0
 10
176.01
 20
82.5154
 30
0.0
 11
162.009
 21
82.5154
 31
0.0
  0
LINE
  8
0
 62
     0
 10
162.009
 20
82.5154
 30
0.0
 11
162.009
 21
96.5165
 31
0.0
  0
LINE
  8
0
 62
     0
 10
181.059
 20
96.5165
 30
0.0
 11
195.06
 21
96.5165
 31
0.0
  0
LINE
  8
0
 62
     0
 10
195.06
 20
96.5165
 30
0.0
 11
195.06
 21
82.5154
 31
0.0
  0
LINE
  8
0
 62
     0
 10
195.06
 20
82.5154
 30
0.0
 11
181.059
 21
82.5154
 31
0.0
  0
LINE
  8
0
 62
     0
 10
181.059
 20
82.5154
 30
0.0
 11
181.059
 21
96.5165
 31
0.0
  0
LINE
  8
0
 62
     0
 10
219.159
 20
96.5165
 30
0.0
 11
233.16
 21
96.5165
 31
0.0
  0
LINE
  8
0
 62
     0
 10
233.16
 20
96.5165
 30
0.0
 11
233.16
 21
82.5154
 31
0.0
  0
LINE
  8
0
 62
     0
 10
233.16
 20
82.5154
 30
0.0
 11
219.159
 21
82.5154
 31
0.0
  0
LINE
  8
0
 62
     0
 10
219.159
 20
82.5154
 30
0.0
 11
219.159
 21
96.5165
 31
0.0
  0
LINE
  8
0
 62
     0
 10
76.284
 20
77.4665
 30
0.0
 11
90.285
 21
77.4665
 31
0.0
  0
LINE
  8
0
 62
     0
 10
90.285
 20
77.4665
 30
0.0
 11
90.285
 21
63.4654
 31
0.0
  0
LINE
  8
0
 62
     0
 10
90.285
 20
63.4654
 30
0.0
 11
76.284
 21
63.4654
 31
0.0
  0
LINE
  8
0
 62
     0
 10
76.284
 20
63.4654
 30
0.0
 11
76.284
 21
77.4665
 31
0.0
  0
LINE
  8
0
 62
     0
 10
95.334
 20
77.4665
 30
0.0
 11
109.335
 21
77.4665
 31
0.0
  0
LINE
  8
0
 62
     0
 10
109.335
 20
77.4665
 30
0.0
 11
109.335
 21
63.4654
 31
0.0
  0
LINE
  8
0
 62
     0
 10
109.335
 20
63.4654
 30
0.0
 11
95.334
 21
63.4654
 31
0.0
  0
LINE
  8
0
 62
     0
 10
95.334
 20
63.4654
 30
0.0
 11
95.334
 21
77.4665
 31
0.0
  0
LINE
  8
0
 62
     0
 10
114.384
 20
77.4665
 30
0.0
 11
128.385
 21
77.4665
 31
0.0
  0
LINE
  8
0
 62
     0
 10
128.385
 20
77.4665
 30
0.0
 11
128.385
 21
63.4654
 31
0.0
  0
LINE
  8
0
 62
     0
 10
128.385
 20
63.4654
 30
0.0
 11
114.384
 21
63.4654
 31
0.0
  0
LINE
  8
0
 62
     0
 10
114.384
 20
63.4654
 30
0.0
 11
114.384
 21
77.4665
 31
0.0
  0
LINE
  8
0
 62
     0
 10
133.434
 20
77.4665
 30
0.0
 11
147.435
 21
77.4665
 31
0.0
  0
LINE
  8
0
 62
     0
 10
147.435
 20
77.4665
 30
0.0
 11
147.435
 21
63.4654
 31
0.0
  0
LINE
  8
0
 62
     0
 10
147.435
 20
63.4654
 30
0.0
 11
133.434
 21
63.4654
 31
0.0
  0
LINE
  8
0
 62
     0
 10
133.434
 20
63.4654
 30
0.0
 11
133.434
 21
77.4665
 31
0.0
  0
LINE
  8
0
 62
     0
 10
152.484
 20
77.4665
 30
0.0
 11
166.485
 21
77.4665
 31
0.0
  0
LINE
  8
0
 62
     0
 10
166.485
 20
77.4665
 30
0.0
 11
166.485
 21
63.4654
 31
0.0
  0
LINE
  8
0
 62
     0
 10
166.485
 20
63.4654
 30
0.0
 11
152.484
 21
63.4654
 31
0.0
  0
LINE
  8
0
 62
     0
 10
152.484
 20
63.4654
 30
0.0
 11
152.484
 21
77.4665
 31
0.0
  0
LINE
  8
0
 62
     0
 10
209.634
 20
77.4665
 30
0.0
 11
223.635
 21
77.4665
 31
0.0
  0
LINE
  8
0
 62
     0
 10
223.635
 20
77.4665
 30
0.0
 11
223.635
 21
63.4654
 31
0.0
  0
LINE
  8
0
 62
     0
 10
223.635
 20
63.4654
 30
0.0
 11
209.634
 21
63.4654
 31
0.0
  0
LINE
  8
0
 62
     0
 10
209.634
 20
63.4654
 30
0.0
 11
209.634
 21
77.4665
 31
0.0
  0
LINE
  8
0
 62
     0
 10
247.734
 20
77.4665
 30
0.0
 11
261.735
 21
77.4665
 31
0.0
  0
LINE
  8
0
 62
     0
 10
261.735
 20
77.4665
 30
0.0
 11
261.735
 21
63.4654
 31
0.0
  0
LINE
  8
0
 62
     0
 10
261.735
 20
63.4654
 30
0.0
 11
247.734
 21
63.4654
 31
0.0
  0
LINE
  8
0
 62
     0
 10
247.734
 20
63.4654
 30
0.0
 11
247.734
 21
77.4665
 31
0.0
  0
LINE
  8
0
 62
     0
 10
228.684
 20
77.4665
 30
0.0
 11
242.685
 21
77.4665
 31
0.0
  0
LINE
  8
0
 62
     0
 10
242.685
 20
77.4665
 30
0.0
 11
242.685
 21
63.4654
 31
0.0
  0
LINE
  8
0
 62
     0
 10
242.685
 20
63.4654
 30
0.0
 11
228.684
 21
63.4654
 31
0.0
  0
LINE
  8
0
 62
     0
 10
228.684
 20
63.4654
 30
0.0
 11
228.684
 21
77.4665
 31
0.0
  0
LINE
  8
0
 62
     0
 10
190.584
 20
77.4665
 30
0.0
 11
204.585
 21
77.4665
 31
0.0
  0
LINE
  8
0
 62
     0
 10
204.585
 20
77.4665
 30
0.0
 11
204.585
 21
63.4654
 31
0.0
  0
LINE
  8
0
 62
     0
 10
204.585
 20
63.4654
 30
0.0
 11
190.584
 21
63.4654
 31
0.0
  0
LINE
  8
0
 62
     0
 10
190.584
 20
63.4654
 30
0.0
 11
190.584
 21
77.4665
 31
0.0
  0
LINE
  8
0
 62
     0
 10
171.534
 20
77.4665
 30
0.0
 11
185.535
 21
77.4665
 31
0.0
  0
LINE
  8
0
 62
     0
 10
185.535
 20
77.4665
 30
0.0
 11
185.535
 21
63.4654
 31
0.0
  0
LINE
  8
0
 62
     0
 10
185.535
 20
63.4654
 30
0.0
 11
171.534
 21
63.4654
 31
0.0
  0
LINE
  8
0
 62
     0
 10
171.534
 20
63.4654
 30
0.0
 11
171.534
 21
77.4665
 31
0.0
  0
LINE
  8
0
 62
     0
 10
257.259
 20
96.5165
 30
0.0
 11
271.26
 21
96.5165
 31
0.0
  0
LINE
  8
0
 62
     0
 10
271.26
 20
96.5165
 30
0.0
 11
271.26
 21
82.5154
 31
0.0
  0
LINE
  8
0
 62
     0
 10
271.26
 20
82.5154
 30
0.0
 11
257.259
 21
82.5154
 31
0.0
  0
LINE
  8
0
 62
     0
 10
257.259
 20
82.5154
 30
0.0
 11
257.259
 21
96.5165
 31
0.0
  0
LINE
  8
0
 62
     0
 10
238.209
 20
96.5165
 30
0.0
 11
252.21
 21
96.5165
 31
0.0
  0
LINE
  8
0
 62
     0
 10
252.21
 20
96.5165
 30
0.0
 11
252.21
 21
82.5154
 31
0.0
  0
LINE
  8
0
 62
     0
 10
252.21
 20
82.5154
 30
0.0
 11
238.209
 21
82.5154
 31
0.0
  0
LINE
  8
0
 62
     0
 10
238.209
 20
82.5154
 30
0.0
 11
238.209
 21
96.5165
 31
0.0
  0
LINE
  8
0
 62
     0
 10
200.109
 20
96.5165
 30
0.0
 11
214.11
 21
96.5165
 31
0.0
  0
LINE
  8
0
 62
     0
 10
214.11
 20
96.5165
 30
0.0
 11
214.11
 21
82.5154
 31
0.0
  0
LINE
  8
0
 62
     0
 10
214.11
 20
82.5154
 30
0.0
 11
200.109
 21
82.5154
 31
0.0
  0
LINE
  8
0
 62
     0
 10
200.109
 20
82.5154
 30
0.0
 11
200.109
 21
96.5165
 31
0.0
  0
LINE
  8
0
 62
     0
 10
142.959
 20
96.5165
 30
0.0
 11
156.96
 21
96.5165
 31
0.0
  0
LINE
  8
0
 62
     0
 10
156.96
 20
96.5165
 30
0.0
 11
156.96
 21
82.5154
 31
0.0
  0
LINE
  8
0
 62
     0
 10
156.96
 20
82.5154
 30
0.0
 11
142.959
 21
82.5154
 31
0.0
  0
LINE
  8
0
 62
     0
 10
142.959
 20
82.5154
 30
0.0
 11
142.959
 21
96.5165
 31
0.0
  0
LINE
  8
0
 62
     0
 10
123.909
 20
96.5165
 30
0.0
 11
137.91
 21
96.5165
 31
0.0
  0
LINE
  8
0
 62
     0
 10
137.91
 20
96.5165
 30
0.0
 11
137.91
 21
82.5154
 31
0.0
  0
LINE
  8
0
 62
     0
 10
137.91
 20
82.5154
 30
0.0
 11
123.909
 21
82.5154
 31
0.0
  0
LINE
  8
0
 62
     0
 10
123.909
 20
82.5154
 30
0.0
 11
123.909
 21
96.5165
 31
0.0
  0
LINE
  8
0
 62
     0
 10
104.859
 20
96.5165
 30
0.0
 11
118.86
 21
96.5165
 31
0.0
  0
LINE
  8
0
 62
     0
 10
118.86
 20
96.5165
 30
0.0
 11
118.86
 21
82.5154
 31
0.0
  0
LINE
  8
0
 62
     0
 10
118.86
 20
82.5154
 30
0.0
 11
104.859
 21
82.5154
 31
0.0
  0
LINE
  8
0
 62
     0
 10
104.859
 20
82.5154
 30
0.0
 11
104.859
 21
96.5165
 31
0.0
  0
LINE
  8
0
 62
     0
 10
66.759
 20
96.5165
 30
0.0
 11
80.76
 21
96.5165
 31
0.0
  0
LINE
  8
0
 62
     0
 10
80.76
 20
96.5165
 30
0.0
 11
80.76
 21
82.5154
 31
0.0
  0
LINE
  8
0
 62
     0
 10
80.76
 20
82.5154
 30
0.0
 11
66.759
 21
82.5154
 31
0.0
  0
LINE
  8
0
 62
     0
 10
66.759
 20
82.5154
 30
0.0
 11
66.759
 21
96.5165
 31
0.0
  0
LINE
  8
0
 62
     0
 10
271.546
 20
115.566
 30
0.0
 11
285.548
 21
115.566
 31
0.0
  0
LINE
  8
0
 62
     0
 10
285.548
 20
115.566
 30
0.0
 11
285.548
 21
101.565
 31
0.0
  0
LINE
  8
0
 62
     0
 10
285.548
 20
101.565
 30
0.0
 11
271.546
 21
101.565
 31
0.0
  0
LINE
  8
0
 62
     0
 10
271.546
 20
101.565
 30
0.0
 11
271.546
 21
115.566
 31
0.0
  0
LINE
  8
0
 62
     0
 10
252.496
 20
115.566
 30
0.0
 11
266.498
 21
115.566
 31
0.0
  0
LINE
  8
0
 62
     0
 10
266.498
 20
115.566
 30
0.0
 11
266.498
 21
101.565
 31
0.0
  0
LINE
  8
0
 62
     0
 10
266.498
 20
101.565
 30
0.0
 11
252.496
 21
101.565
 31
0.0
  0
LINE
  8
0
 62
     0
 10
252.496
 20
101.565
 30
0.0
 11
252.496
 21
115.566
 31
0.0
  0
LINE
  8
0
 62
     0
 10
233.446
 20
115.566
 30
0.0
 11
247.448
 21
115.566
 31
0.0
  0
LINE
  8
0
 62
     0
 10
247.448
 20
115.566
 30
0.0
 11
247.448
 21
101.565
 31
0.0
  0
LINE
  8
0
 62
     0
 10
247.448
 20
101.565
 30
0.0
 11
233.446
 21
101.565
 31
0.0
  0
LINE
  8
0
 62
     0
 10
233.446
 20
101.565
 30
0.0
 11
233.446
 21
115.566
 31
0.0
  0
LINE
  8
0
 62
     0
 10
214.396
 20
115.566
 30
0.0
 11
228.398
 21
115.566
 31
0.0
  0
LINE
  8
0
 62
     0
 10
228.398
 20
115.566
 30
0.0
 11
228.398
 21
101.565
 31
0.0
  0
LINE
  8
0
 62
     0
 10
228.398
 20
101.565
 30
0.0
 11
214.396
 21
101.565
 31
0.0
  0
LINE
  8
0
 62
     0
 10
214.396
 20
101.565
 30
0.0
 11
214.396
 21
115.566
 31
0.0
  0
LINE
  8
0
 62
     0
 10
195.346
 20
115.566
 30
0.0
 11
209.348
 21
115.566
 31
0.0
  0
LINE
  8
0
 62
     0
 10
209.348
 20
115.566
 30
0.0
 11
209.348
 21
101.565
 31
0.0
  0
LINE
  8
0
 62
     0
 10
209.348
 20
101.565
 30
0.0
 11
195.346
 21
101.565
 31
0.0
  0
LINE
  8
0
 62
     0
 10
195.346
 20
101.565
 30
0.0
 11
195.346
 21
115.566
 31
0.0
  0
LINE
  8
0
 62
     0
 10
176.296
 20
115.566
 30
0.0
 11
190.298
 21
115.566
 31
0.0
  0
LINE
  8
0
 62
     0
 10
190.298
 20
115.566
 30
0.0
 11
190.298
 21
101.565
 31
0.0
  0
LINE
  8
0
 62
     0
 10
190.298
 20
101.565
 30
0.0
 11
176.296
 21
101.565
 31
0.0
  0
LINE
  8
0
 62
     0
 10
176.296
 20
101.565
 30
0.0
 11
176.296
 21
115.566
 31
0.0
  0
LINE
  8
0
 62
     0
 10
138.196
 20
115.566
 30
0.0
 11
152.198
 21
115.566
 31
0.0
  0
LINE
  8
0
 62
     0
 10
152.198
 20
115.566
 30
0.0
 11
152.198
 21
101.565
 31
0.0
  0
LINE
  8
0
 62
     0
 10
152.198
 20
101.565
 30
0.0
 11
138.196
 21
101.565
 31
0.0
  0
LINE
  8
0
 62
     0
 10
138.196
 20
101.565
 30
0.0
 11
138.196
 21
115.566
 31
0.0
  0
LINE
  8
0
 62
     0
 10
119.146
 20
115.566
 30
0.0
 11
133.148
 21
115.566
 31
0.0
  0
LINE
  8
0
 62
     0
 10
133.148
 20
115.566
 30
0.0
 11
133.148
 21
101.565
 31
0.0
  0
LINE
  8
0
 62
     0
 10
133.148
 20
101.565
 30
0.0
 11
119.146
 21
101.565
 31
0.0
  0
LINE
  8
0
 62
     0
 10
119.146
 20
101.565
 30
0.0
 11
119.146
 21
115.566
 31
0.0
  0
LINE
  8
0
 62
     0
 10
100.096
 20
115.566
 30
0.0
 11
114.098
 21
115.566
 31
0.0
  0
LINE
  8
0
 62
     0
 10
114.098
 20
115.566
 30
0.0
 11
114.098
 21
101.565
 31
0.0
  0
LINE
  8
0
 62
     0
 10
114.098
 20
101.565
 30
0.0
 11
100.096
 21
101.565
 31
0.0
  0
LINE
  8
0
 62
     0
 10
100.096
 20
101.565
 30
0.0
 11
100.096
 21
115.566
 31
0.0
  0
LINE
  8
0
 62
     0
 10
81.0465
 20
115.566
 30
0.0
 11
95.0475
 21
115.566
 31
0.0
  0
LINE
  8
0
 62
     0
 10
95.0475
 20
115.566
 30
0.0
 11
95.0475
 21
101.565
 31
0.0
  0
LINE
  8
0
 62
     0
 10
95.0475
 20
101.565
 30
0.0
 11
81.0465
 21
101.565
 31
0.0
  0
LINE
  8
0
 62
     0
 10
81.0465
 20
101.565
 30
0.0
 11
81.0465
 21
115.566
 31
0.0
  0
LINE
  8
0
 62
     0
 10
61.9965
 20
115.566
 30
0.0
 11
75.9975
 21
115.566
 31
0.0
  0
LINE
  8
0
 62
     0
 10
75.9975
 20
115.566
 30
0.0
 11
75.9975
 21
101.565
 31
0.0
  0
LINE
  8
0
 62
     0
 10
75.9975
 20
101.565
 30
0.0
 11
61.9965
 21
101.565
 31
0.0
  0
LINE
  8
0
 62
     0
 10
61.9965
 20
101.565
 30
0.0
 11
61.9965
 21
115.566
 31
0.0
  0
LINE
  8
0
 62
     0
 10
242.971
 20
134.616
 30
0.0
 11
256.973
 21
134.616
 31
0.0
  0
LINE
  8
0
 62
     0
 10
256.973
 20
134.616
 30
0.0
 11
256.973
 21
120.615
 31
0.0
  0
LINE
  8
0
 62
     0
 10
256.973
 20
120.615
 30
0.0
 11
242.971
 21
120.615
 31
0.0
  0
LINE
  8
0
 62
     0
 10
242.971
 20
120.615
 30
0.0
 11
242.971
 21
134.616
 31
0.0
  0
LINE
  8
0
 62
     0
 10
223.921
 20
134.616
 30
0.0
 11
237.923
 21
134.616
 31
0.0
  0
LINE
  8
0
 62
     0
 10
237.923
 20
134.616
 30
0.0
 11
237.923
 21
120.615
 31
0.0
  0
LINE
  8
0
 62
     0
 10
237.923
 20
120.615
 30
0.0
 11
223.921
 21
120.615
 31
0.0
  0
LINE
  8
0
 62
     0
 10
223.921
 20
120.615
 30
0.0
 11
223.921
 21
134.616
 31
0.0
  0
LINE
  8
0
 62
     0
 10
166.771
 20
134.616
 30
0.0
 11
180.773
 21
134.616
 31
0.0
  0
LINE
  8
0
 62
     0
 10
180.773
 20
134.616
 30
0.0
 11
180.773
 21
120.615
 31
0.0
  0
LINE
  8
0
 62
     0
 10
180.773
 20
120.615
 30
0.0
 11
166.771
 21
120.615
 31
0.0
  0
LINE
  8
0
 62
     0
 10
166.771
 20
120.615
 30
0.0
 11
166.771
 21
134.616
 31
0.0
  0
LINE
  8
0
 62
     0
 10
109.621
 20
134.616
 30
0.0
 11
123.623
 21
134.616
 31
0.0
  0
LINE
  8
0
 62
     0
 10
123.623
 20
134.616
 30
0.0
 11
123.623
 21
120.615
 31
0.0
  0
LINE
  8
0
 62
     0
 10
123.623
 20
120.615
 30
0.0
 11
109.621
 21
120.615
 31
0.0
  0
LINE
  8
0
 62
     0
 10
109.621
 20
120.615
 30
0.0
 11
109.621
 21
134.616
 31
0.0
  0
LINE
  8
0
 62
     0
 10
90.5715
 20
134.616
 30
0.0
 11
104.573
 21
134.616
 31
0.0
  0
LINE
  8
0
 62
     0
 10
104.573
 20
134.616
 30
0.0
 11
104.573
 21
120.615
 31
0.0
  0
LINE
  8
0
 62
     0
 10
104.573
 20
120.615
 30
0.0
 11
90.5715
 21
120.615
 31
0.0
  0
LINE
  8
0
 62
     0
 10
90.5715
 20
120.615
 30
0.0
 11
90.5715
 21
134.616
 31
0.0
  0
LINE
  8
0
 62
     0
 10
71.5215
 20
134.616
 30
0.0
 11
85.5225
 21
134.616
 31
0.0
  0
LINE
  8
0
 62
     0
 10
85.5225
 20
134.616
 30
0.0
 11
85.5225
 21
120.615
 31
0.0
  0
LINE
  8
0
 62
     0
 10
85.5225
 20
120.615
 30
0.0
 11
71.5215
 21
120.615
 31
0.0
  0
LINE
  8
0
 62
     0
 10
71.5215
 20
120.615
 30
0.0
 11
71.5215
 21
134.616
 31
0.0
  0
LINE
  8
0
 62
     0
 10
52.4715
 20
134.616
 30
0.0
 11
66.4725
 21
134.616
 31
0.0
  0
LINE
  8
0
 62
     0
 10
66.4725
 20
134.616
 30
0.0
 11
66.4725
 21
120.615
 31
0.0
  0
LINE
  8
0
 62
     0
 10
66.4725
 20
120.615
 30
0.0
 11
52.4715
 21
120.615
 31
0.0
  0
LINE
  8
0
 62
     0
 10
52.4715
 20
120.615
 30
0.0
 11
52.4715
 21
134.616
 31
0.0
  0
LINE
  8
0
 62
     0
 10
38.184
 20
115.566
 30
0.0
 11
52.185
 21
115.566
 31
0.0
  0
LINE
  8
0
 62
     0
 10
52.185
 20
115.566
 30
0.0
 11
52.185
 21
101.565
 31
0.0
  0
LINE
  8
0
 62
     0
 10
52.185
 20
101.565
 30
0.0
 11
38.184
 21
101.565
 31
0.0
  0
LINE
  8
0
 62
     0
 10
38.184
 20
101.565
 30
0.0
 11
38.184
 21
115.566
 31
0.0
  0
LINE
  8
0
 62
     0
 10
35.8027
 20
96.5165
 30
0.0
 11
54.5663
 21
96.5165
 31
0.0
  0
LINE
  8
0
 62
     0
 10
54.5663
 20
96.5165
 30
0.0
 11
54.5663
 21
82.5154
 31
0.0
  0
LINE
  8
0
 62
     0
 10
54.5663
 20
82.5154
 30
0.0
 11
35.8027
 21
82.5154
 31
0.0
  0
LINE
  8
0
 62
     0
 10
35.8027
 20
82.5154
 30
0.0
 11
35.8027
 21
96.5165
 31
0.0
  0
LINE
  8
0
 62
     0
 10
33.4216
 20
134.616
 30
0.0
 11
47.4225
 21
134.616
 31
0.0
  0
LINE
  8
0
 62
     0
 10
47.4225
 20
134.616
 30
0.0
 11
47.4225
 21
120.615
 31
0.0
  0
LINE
  8
0
 62
     0
 10
47.4225
 20
120.615
 30
0.0
 11
33.4216
 21
120.615
 31
0.0
  0
LINE
  8
0
 62
     0
 10
33.4216
 20
120.615
 30
0.0
 11
33.4216
 21
134.616
 31
0.0
  0
LINE
  8
0
 62
     0
 10
83.4277
 20
58.4165
 30
0.0
 11
97.4288
 21
58.4165
 31
0.0
  0
LINE
  8
0
 62
     0
 10
97.4288
 20
58.4165
 30
0.0
 11
97.4288
 21
44.4154
 31
0.0
  0
LINE
  8
0
 62
     0
 10
97.4288
 20
44.4154
 30
0.0
 11
83.4277
 21
44.4154
 31
0.0
  0
LINE
  8
0
 62
     0
 10
83.4277
 20
44.4154
 30
0.0
 11
83.4277
 21
58.4165
 31
0.0
  0
LINE
  8
0
 62
     0
 10
59.6152
 20
58.4165
 30
0.0
 11
73.6163
 21
58.4165
 31
0.0
  0
LINE
  8
0
 62
     0
 10
73.6163
 20
58.4165
 30
0.0
 11
73.6163
 21
44.4154
 31
0.0
  0
LINE
  8
0
 62
     0
 10
73.6163
 20
44.4154
 30
0.0
 11
59.6152
 21
44.4154
 31
0.0
  0
LINE
  8
0
 62
     0
 10
59.6152
 20
44.4154
 30
0.0
 11
59.6152
 21
58.4165
 31
0.0
  0
LINE
  8
0
 62
     0
 10
35.8027
 20
58.4165
 30
0.0
 11
49.8038
 21
58.4165
 31
0.0
  0
LINE
  8
0
 62
     0
 10
49.8038
 20
58.4165
 30
0.0
 11
49.8038
 21
44.4154
 31
0.0
  0
LINE
  8
0
 62
     0
 10
49.8038
 20
44.4154
 30
0.0
 11
35.8027
 21
44.4154
 31
0.0
  0
LINE
  8
0
 62
     0
 10
35.8027
 20
44.4154
 30
0.0
 11
35.8027
 21
58.4165
 31
0.0
  0
LINE
  8
0
 62
     0
 10
168.866
 20
53.7161
 30
0.0
 11
168.866
 21
58.4165
 31
0.0
  0
LINE
  8
0
 62
     0
 10
168.866
 20
58.4165
 30
0.0
 11
154.865
 21
58.4165
 31
0.0
  0
LINE
  8
0
 62
     0
 10
154.865
 20
58.4165
 30
0.0
 11
154.865
 21
53.7161
 31
0.0
  0
LINE
  8
0
 62
     0
 10
154.865
 20
53.7161
 30
0.0
 11
115.241
 21
53.7161
 31
0.0
  0
LINE
  8
0
 62
     0
 10
115.241
 20
53.7161
 30
0.0
 11
115.241
 21
56.9461
 31
0.0
  0
LINE
  8
0
 62
     0
 10
115.241
 20
56.9461
 30
0.0
 11
108.492
 21
56.9461
 31
0.0
  0
LINE
  8
0
 62
     0
 10
108.492
 20
56.9461
 30
0.0
 11
108.492
 21
53.7161
 31
0.0
  0
LINE
  8
0
 62
     0
 10
108.492
 20
53.7161
 30
0.0
 11
107.666
 21
53.7161
 31
0.0
  0
LINE
  8
0
 62
     0
 10
107.666
 20
53.7161
 30
0.0
 11
107.666
 21
50.9157
 31
0.0
  0
LINE
  8
0
 62
     0
 10
107.666
 20
50.9157
 30
0.0
 11
108.492
 21
50.9157
 31
0.0
  0
LINE
  8
0
 62
     0
 10
108.492
 20
50.9157
 30
0.0
 11
108.492
 21
44.6472
 31
0.0
  0
LINE
  8
0
 62
     0
 10
108.492
 20
44.6472
 30
0.0
 11
110.216
 21
44.6472
 31
0.0
  0
LINE
  8
0
 62
     0
 10
110.216
 20
44.6472
 30
0.0
 11
110.216
 21
43.4467
 31
0.0
  0
LINE
  8
0
 62
     0
 10
110.216
 20
43.4467
 30
0.0
 11
113.516
 21
43.4467
 31
0.0
  0
LINE
  8
0
 62
     0
 10
113.516
 20
43.4467
 30
0.0
 11
113.516
 21
44.6472
 31
0.0
  0
LINE
  8
0
 62
     0
 10
113.516
 20
44.6472
 30
0.0
 11
115.241
 21
44.6472
 31
0.0
  0
LINE
  8
0
 62
     0
 10
115.241
 20
44.6472
 30
0.0
 11
115.241
 21
49.1172
 31
0.0
  0
LINE
  8
0
 62
     0
 10
115.241
 20
49.1172
 30
0.0
 11
154.865
 21
49.1172
 31
0.0
  0
LINE
  8
0
 62
     0
 10
154.865
 20
49.1172
 30
0.0
 11
154.865
 21
44.4168
 31
0.0
  0
LINE
  8
0
 62
     0
 10
154.865
 20
44.4168
 30
0.0
 11
168.866
 21
44.4168
 31
0.0
  0
LINE
  8
0
 62
     0
 10
168.866
 20
44.4168
 30
0.0
 11
168.866
 21
49.1172
 31
0.0
  0
LINE
  8
0
 62
     0
 10
168.866
 20
49.1172
 30
0.0
 11
208.492
 21
49.1172
 31
0.0
  0
LINE
  8
0
 62
     0
 10
208.492
 20
49.1172
 30
0.0
 11
208.492
 21
44.6472
 31
0.0
  0
LINE
  8
0
 62
     0
 10
208.492
 20
44.6472
 30
0.0
 11
210.214
 21
44.6472
 31
0.0
  0
LINE
  8
0
 62
     0
 10
210.214
 20
44.6472
 30
0.0
 11
210.214
 21
43.4467
 31
0.0
  0
LINE
  8
0
 62
     0
 10
210.214
 20
43.4467
 30
0.0
 11
213.516
 21
43.4467
 31
0.0
  0
LINE
  8
0
 62
     0
 10
213.516
 20
43.4467
 30
0.0
 11
213.516
 21
44.6472
 31
0.0
  0
LINE
  8
0
 62
     0
 10
213.516
 20
44.6472
 30
0.0
 11
215.241
 21
44.6472
 31
0.0
  0
LINE
  8
0
 62
     0
 10
215.241
 20
44.6472
 30
0.0
 11
215.241
 21
50.9157
 31
0.0
  0
LINE
  8
0
 62
     0
 10
215.241
 20
50.9157
 30
0.0
 11
216.065
 21
50.9157
 31
0.0
  0
LINE
  8
0
 62
     0
 10
216.065
 20
50.9157
 30
0.0
 11
216.065
 21
53.7161
 31
0.0
  0
LINE
  8
0
 62
     0
 10
216.065
 20
53.7161
 30
0.0
 11
215.241
 21
53.7161
 31
0.0
  0
LINE
  8
0
 62
     0
 10
215.241
 20
53.7161
 30
0.0
 11
215.241
 21
56.9461
 31
0.0
  0
LINE
  8
0
 62
     0
 10
215.241
 20
56.9461
 30
0.0
 11
208.492
 21
56.9461
 31
0.0
  0
LINE
  8
0
 62
     0
 10
208.492
 20
56.9461
 30
0.0
 11
208.492
 21
53.7161
 31
0.0
  0
LINE
  8
0
 62
     0
 10
208.492
 20
53.7161
 30
0.0
 11
168.866
 21
53.7161
 31
0.0
  0
LINE
  8
0
 62
     0
 10
304.596
 20
129.916
 30
0.0
 11
304.596
 21
134.616
 31
0.0
  0
LINE
  8
0
 62
     0
 10
304.596
 20
134.616
 30
0.0
 11
290.596
 21
134.616
 31
0.0
  0
LINE
  8
0
 62
     0
 10
290.596
 20
134.616
 30
0.0
 11
290.596
 21
129.916
 31
0.0
  0
LINE
  8
0
 62
     0
 10
290.596
 20
129.916
 30
0.0
 11
289.071
 21
129.916
 31
0.0
  0
LINE
  8
0
 62
     0
 10
289.071
 20
129.916
 30
0.0
 11
289.071
 21
133.146
 31
0.0
  0
LINE
  8
0
 62
     0
 10
289.071
 20
133.146
 30
0.0
 11
282.321
 21
133.146
 31
0.0
  0
LINE
  8
0
 62
     0
 10
282.321
 20
133.146
 30
0.0
 11
282.321
 21
129.916
 31
0.0
  0
LINE
  8
0
 62
     0
 10
282.321
 20
129.916
 30
0.0
 11
281.496
 21
129.916
 31
0.0
  0
LINE
  8
0
 62
     0
 10
281.496
 20
129.916
 30
0.0
 11
281.496
 21
127.116
 31
0.0
  0
LINE
  8
0
 62
     0
 10
281.496
 20
127.116
 30
0.0
 11
282.321
 21
127.116
 31
0.0
  0
LINE
  8
0
 62
     0
 10
282.321
 20
127.116
 30
0.0
 11
282.321
 21
120.846
 31
0.0
  0
LINE
  8
0
 62
     0
 10
282.321
 20
120.846
 30
0.0
 11
284.047
 21
120.846
 31
0.0
  0
LINE
  8
0
 62
     0
 10
284.047
 20
120.846
 30
0.0
 11
284.047
 21
119.647
 31
0.0
  0
LINE
  8
0
 62
     0
 10
284.047
 20
119.647
 30
0.0
 11
287.347
 21
119.647
 31
0.0
  0
LINE
  8
0
 62
     0
 10
287.347
 20
119.647
 30
0.0
 11
287.347
 21
120.846
 31
0.0
  0
LINE
  8
0
 62
     0
 10
287.347
 20
120.846
 30
0.0
 11
289.071
 21
120.846
 31
0.0
  0
LINE
  8
0
 62
     0
 10
289.071
 20
120.846
 30
0.0
 11
289.071
 21
125.316
 31
0.0
  0
LINE
  8
0
 62
     0
 10
289.071
 20
125.316
 30
0.0
 11
290.596
 21
125.316
 31
0.0
  0
LINE
  8
0
 62
     0
 10
290.596
 20
125.316
 30
0.0
 11
290.596
 21
120.617
 31
0.0
  0
LINE
  8
0
 62
     0
 10
290.596
 20
120.617
 30
0.0
 11
304.596
 21
120.617
 31
0.0
  0
LINE
  8
0
 62
     0
 10
304.596
 20
120.617
 30
0.0
 11
304.596
 21
125.316
 31
0.0
  0
LINE
  8
0
 62
     0
 10
304.596
 20
125.316
 30
0.0
 11
306.121
 21
125.316
 31
0.0
  0
LINE
  8
0
 62
     0
 10
306.121
 20
125.316
 30
0.0
 11
306.121
 21
120.846
 31
0.0
  0
LINE
  8
0
 62
     0
 10
306.121
 20
120.846
 30
0.0
 11
307.847
 21
120.846
 31
0.0
  0
LINE
  8
0
 62
     0
 10
307.847
 20
120.846
 30
0.0
 11
307.847
 21
119.647
 31
0.0
  0
LINE
  8
0
 62
     0
 10
307.847
 20
119.647
 30
0.0
 11
311.147
 21
119.647
 31
0.0
  0
LINE
  8
0
 62
     0
 10
311.147
 20
119.647
 30
0.0
 11
311.147
 21
120.846
 31
0.0
  0
LINE
  8
0
 62
     0
 10
311.147
 20
120.846
 30
0.0
 11
312.871
 21
120.846
 31
0.0
  0
LINE
  8
0
 62
     0
 10
312.871
 20
120.846
 30
0.0
 11
312.871
 21
127.116
 31
0.0
  0
LINE
  8
0
 62
     0
 10
312.871
 20
127.116
 30
0.0
 11
313.697
 21
127.116
 31
0.0
  0
LINE
  8
0
 62
     0
 10
313.697
 20
127.116
 30
0.0
 11
313.697
 21
129.916
 31
0.0
  0
LINE
  8
0
 62
     0
 10
313.697
 20
129.916
 30
0.0
 11
312.871
 21
129.916
 31
0.0
  0
LINE
  8
0
 62
     0
 10
312.871
 20
129.916
 30
0.0
 11
312.871
 21
133.146
 31
0.0
  0
LINE
  8
0
 62
     0
 10
312.871
 20
133.146
 30
0.0
 11
306.121
 21
133.146
 31
0.0
  0
LINE
  8
0
 62
     0
 10
306.121
 20
133.146
 30
0.0
 11
306.121
 21
129.916
 31
0.0
  0
LINE
  8
0
 62
     0
 10
306.121
 20
129.916
 30
0.0
 11
304.596
 21
129.916
 31
0.0
  0
LINE
  8
0
 62
     0
 10
302.216
 20
91.8161
 30
0.0
 11
302.216
 21
96.5165
 31
0.0
  0
LINE
  8
0
 62
     0
 10
302.216
 20
96.5165
 30
0.0
 11
288.217
 21
96.5165
 31
0.0
  0
LINE
  8
0
 62
     0
 10
288.217
 20
96.5165
 30
0.0
 11
288.217
 21
91.8161
 31
0.0
  0
LINE
  8
0
 62
     0
 10
288.217
 20
91.8161
 30
0.0
 11
286.691
 21
91.8161
 31
0.0
  0
LINE
  8
0
 62
     0
 10
286.691
 20
91.8161
 30
0.0
 11
286.691
 21
95.0461
 31
0.0
  0
LINE
  8
0
 62
     0
 10
286.691
 20
95.0461
 30
0.0
 11
279.942
 21
95.0461
 31
0.0
  0
LINE
  8
0
 62
     0
 10
279.942
 20
95.0461
 30
0.0
 11
279.942
 21
91.8161
 31
0.0
  0
LINE
  8
0
 62
     0
 10
279.942
 20
91.8161
 30
0.0
 11
279.116
 21
91.8161
 31
0.0
  0
LINE
  8
0
 62
     0
 10
279.116
 20
91.8161
 30
0.0
 11
279.116
 21
89.0157
 31
0.0
  0
LINE
  8
0
 62
     0
 10
279.116
 20
89.0157
 30
0.0
 11
279.942
 21
89.0157
 31
0.0
  0
LINE
  8
0
 62
     0
 10
279.942
 20
89.0157
 30
0.0
 11
279.942
 21
82.7458
 31
0.0
  0
LINE
  8
0
 62
     0
 10
279.942
 20
82.7458
 30
0.0
 11
281.667
 21
82.7458
 31
0.0
  0
LINE
  8
0
 62
     0
 10
281.667
 20
82.7458
 30
0.0
 11
281.667
 21
81.5467
 31
0.0
  0
LINE
  8
0
 62
     0
 10
281.667
 20
81.5467
 30
0.0
 11
284.967
 21
81.5467
 31
0.0
  0
LINE
  8
0
 62
     0
 10
284.967
 20
81.5467
 30
0.0
 11
284.967
 21
82.7458
 31
0.0
  0
LINE
  8
0
 62
     0
 10
284.967
 20
82.7458
 30
0.0
 11
286.691
 21
82.7458
 31
0.0
  0
LINE
  8
0
 62
     0
 10
286.691
 20
82.7458
 30
0.0
 11
286.691
 21
87.2162
 31
0.0
  0
LINE
  8
0
 62
     0
 10
286.691
 20
87.2162
 30
0.0
 11
288.217
 21
87.2162
 31
0.0
  0
LINE
  8
0
 62
     0
 10
288.217
 20
87.2162
 30
0.0
 11
288.217
 21
82.5168
 31
0.0
  0
LINE
  8
0
 62
     0
 10
288.217
 20
82.5168
 30
0.0
 11
302.216
 21
82.5168
 31
0.0
  0
LINE
  8
0
 62
     0
 10
302.216
 20
82.5168
 30
0.0
 11
302.216
 21
87.2162
 31
0.0
  0
LINE
  8
0
 62
     0
 10
302.216
 20
87.2162
 30
0.0
 11
303.742
 21
87.2162
 31
0.0
  0
LINE
  8
0
 62
     0
 10
303.742
 20
87.2162
 30
0.0
 11
303.742
 21
82.7458
 31
0.0
  0
LINE
  8
0
 62
     0
 10
303.742
 20
82.7458
 30
0.0
 11
305.467
 21
82.7458
 31
0.0
  0
LINE
  8
0
 62
     0
 10
305.467
 20
82.7458
 30
0.0
 11
305.467
 21
81.5467
 31
0.0
  0
LINE
  8
0
 62
     0
 10
305.467
 20
81.5467
 30
0.0
 11
308.767
 21
81.5467
 31
0.0
  0
LINE
  8
0
 62
     0
 10
308.767
 20
81.5467
 30
0.0
 11
308.767
 21
82.7458
 31
0.0
  0
LINE
  8
0
 62
     0
 10
308.767
 20
82.7458
 30
0.0
 11
310.491
 21
82.7458
 31
0.0
  0
LINE
  8
0
 62
     0
 10
310.491
 20
82.7458
 30
0.0
 11
310.491
 21
89.0157
 31
0.0
  0
LINE
  8
0
 62
     0
 10
310.491
 20
89.0157
 30
0.0
 11
311.317
 21
89.0157
 31
0.0
  0
LINE
  8
0
 62
     0
 10
311.317
 20
89.0157
 30
0.0
 11
311.317
 21
91.8161
 31
0.0
  0
LINE
  8
0
 62
     0
 10
311.317
 20
91.8161
 30
0.0
 11
310.491
 21
91.8161
 31
0.0
  0
LINE
  8
0
 62
     0
 10
310.491
 20
91.8161
 30
0.0
 11
310.491
 21
95.0461
 31
0.0
  0
LINE
  8
0
 62
     0
 10
310.491
 20
95.0461
 30
0.0
 11
303.742
 21
95.0461
 31
0.0
  0
LINE
  8
0
 62
     0
 10
303.742
 20
95.0461
 30
0.0
 11
303.742
 21
91.8161
 31
0.0
  0
LINE
  8
0
 62
     0
 10
303.742
 20
91.8161
 30
0.0
 11
302.216
 21
91.8161
 31
0.0
  0
LINE
  8
0
 62
     0
 10
297.452
 20
72.7661
 30
0.0
 11
297.452
 21
77.4665
 31
0.0
  0
LINE
  8
0
 62
     0
 10
297.452
 20
77.4665
 30
0.0
 11
283.453
 21
77.4665
 31
0.0
  0
LINE
  8
0
 62
     0
 10
283.453
 20
77.4665
 30
0.0
 11
283.453
 21
72.7661
 31
0.0
  0
LINE
  8
0
 62
     0
 10
283.453
 20
72.7661
 30
0.0
 11
281.927
 21
72.7661
 31
0.0
  0
LINE
  8
0
 62
     0
 10
281.927
 20
72.7661
 30
0.0
 11
281.927
 21
75.9961
 31
0.0
  0
LINE
  8
0
 62
     0
 10
281.927
 20
75.9961
 30
0.0
 11
275.178
 21
75.9961
 31
0.0
  0
LINE
  8
0
 62
     0
 10
275.178
 20
75.9961
 30
0.0
 11
275.178
 21
72.7661
 31
0.0
  0
LINE
  8
0
 62
     0
 10
275.178
 20
72.7661
 30
0.0
 11
274.352
 21
72.7661
 31
0.0
  0
LINE
  8
0
 62
     0
 10
274.352
 20
72.7661
 30
0.0
 11
274.352
 21
69.9657
 31
0.0
  0
LINE
  8
0
 62
     0
 10
274.352
 20
69.9657
 30
0.0
 11
275.178
 21
69.9657
 31
0.0
  0
LINE
  8
0
 62
     0
 10
275.178
 20
69.9657
 30
0.0
 11
275.178
 21
63.6958
 31
0.0
  0
LINE
  8
0
 62
     0
 10
275.178
 20
63.6958
 30
0.0
 11
276.903
 21
63.6958
 31
0.0
  0
LINE
  8
0
 62
     0
 10
276.903
 20
63.6958
 30
0.0
 11
276.903
 21
62.4967
 31
0.0
  0
LINE
  8
0
 62
     0
 10
276.903
 20
62.4967
 30
0.0
 11
280.203
 21
62.4967
 31
0.0
  0
LINE
  8
0
 62
     0
 10
280.203
 20
62.4967
 30
0.0
 11
280.203
 21
63.6958
 31
0.0
  0
LINE
  8
0
 62
     0
 10
280.203
 20
63.6958
 30
0.0
 11
281.927
 21
63.6958
 31
0.0
  0
LINE
  8
0
 62
     0
 10
281.927
 20
63.6958
 30
0.0
 11
281.927
 21
68.1662
 31
0.0
  0
LINE
  8
0
 62
     0
 10
281.927
 20
68.1662
 30
0.0
 11
283.453
 21
68.1662
 31
0.0
  0
LINE
  8
0
 62
     0
 10
283.453
 20
68.1662
 30
0.0
 11
283.453
 21
63.4668
 31
0.0
  0
LINE
  8
0
 62
     0
 10
283.453
 20
63.4668
 30
0.0
 11
297.452
 21
63.4668
 31
0.0
  0
LINE
  8
0
 62
     0
 10
297.452
 20
63.4668
 30
0.0
 11
297.452
 21
68.1662
 31
0.0
  0
LINE
  8
0
 62
     0
 10
297.452
 20
68.1662
 30
0.0
 11
298.978
 21
68.1662
 31
0.0
  0
LINE
  8
0
 62
     0
 10
298.978
 20
68.1662
 30
0.0
 11
298.978
 21
63.6958
 31
0.0
  0
LINE
  8
0
 62
     0
 10
298.978
 20
63.6958
 30
0.0
 11
300.703
 21
63.6958
 31
0.0
  0
LINE
  8
0
 62
     0
 10
300.703
 20
63.6958
 30
0.0
 11
300.703
 21
62.4967
 31
0.0
  0
LINE
  8
0
 62
     0
 10
300.703
 20
62.4967
 30
0.0
 11
304.003
 21
62.4967
 31
0.0
  0
LINE
  8
0
 62
     0
 10
304.003
 20
62.4967
 30
0.0
 11
304.003
 21
63.6958
 31
0.0
  0
LINE
  8
0
 62
     0
 10
304.003
 20
63.6958
 30
0.0
 11
305.727
 21
63.6958
 31
0.0
  0
LINE
  8
0
 62
     0
 10
305.727
 20
63.6958
 30
0.0
 11
305.727
 21
69.9657
 31
0.0
  0
LINE
  8
0
 62
     0
 10
305.727
 20
69.9657
 30
0.0
 11
306.553
 21
69.9657
 31
0.0
  0
LINE
  8
0
 62
     0
 10
306.553
 20
69.9657
 30
0.0
 11
306.553
 21
72.7661
 31
0.0
  0
LINE
  8
0
 62
     0
 10
306.553
 20
72.7661
 30
0.0
 11
305.727
 21
72.7661
 31
0.0
  0
LINE
  8
0
 62
     0
 10
305.727
 20
72.7661
 30
0.0
 11
305.727
 21
75.9961
 31
0.0
  0
LINE
  8
0
 62
     0
 10
305.727
 20
75.9961
 30
0.0
 11
298.978
 21
75.9961
 31
0.0
  0
LINE
  8
0
 62
     0
 10
298.978
 20
75.9961
 30
0.0
 11
298.978
 21
72.7661
 31
0.0
  0
LINE
  8
0
 62
     0
 10
298.978
 20
72.7661
 30
0.0
 11
297.452
 21
72.7661
 31
0.0
  0
LINE
  8
0
 62
     0
 10
226.303
 20
58.4165
 30
0.0
 11
240.302
 21
58.4165
 31
0.0
  0
LINE
  8
0
 62
     0
 10
240.302
 20
58.4165
 30
0.0
 11
240.302
 21
44.4154
 31
0.0
  0
LINE
  8
0
 62
     0
 10
240.302
 20
44.4154
 30
0.0
 11
226.303
 21
44.4154
 31
0.0
  0
LINE
  8
0
 62
     0
 10
226.303
 20
44.4154
 30
0.0
 11
226.303
 21
58.4165
 31
0.0
  0
LINE
  8
0
 62
     0
 10
250.115
 20
58.4165
 30
0.0
 11
264.115
 21
58.4165
 31
0.0
  0
LINE
  8
0
 62
     0
 10
264.115
 20
58.4165
 30
0.0
 11
264.115
 21
44.4154
 31
0.0
  0
LINE
  8
0
 62
     0
 10
264.115
 20
44.4154
 30
0.0
 11
250.115
 21
44.4154
 31
0.0
  0
LINE
  8
0
 62
     0
 10
250.115
 20
44.4154
 30
0.0
 11
250.115
 21
58.4165
 31
0.0
  0
LINE
  8
0
 62
     0
 10
273.928
 20
58.4165
 30
0.0
 11
287.927
 21
58.4165
 31
0.0
  0
LINE
  8
0
 62
     0
 10
287.927
 20
58.4165
 30
0.0
 11
287.927
 21
44.4154
 31
0.0
  0
LINE
  8
0
 62
     0
 10
287.927
 20
44.4154
 30
0.0
 11
273.928
 21
44.4154
 31
0.0
  0
LINE
  8
0
 62
     0
 10
273.928
 20
44.4154
 30
0.0
 11
273.928
 21
58.4165
 31
0.0
  0
LINE
  8
0
 62
     0
 10
297.74
 20
58.4165
 30
0.0
 11
311.74
 21
58.4165
 31
0.0
  0
LINE
  8
0
 62
     0
 10
311.74
 20
58.4165
 30
0.0
 11
311.74
 21
44.4154
 31
0.0
  0
LINE
  8
0
 62
     0
 10
311.74
 20
44.4154
 30
0.0
 11
297.74
 21
44.4154
 31
0.0
  0
LINE
  8
0
 62
     0
 10
297.74
 20
44.4154
 30
0.0
 11
297.74
 21
58.4165
 31
0.0
  0
LINE
  8
0
 62
     0
 10
59.3288
 20
72.7661
 30
0.0
 11
59.3288
 21
77.4665
 31
0.0
  0
LINE
  8
0
 62
     0
 10
59.3288
 20
77.4665
 30
0.0
 11
45.3291
 21
77.4665
 31
0.0
  0
LINE
  8
0
 62
     0
 10
45.3291
 20
77.4665
 30
0.0
 11
45.3291
 21
72.7661
 31
0.0
  0
LINE
  8
0
 62
     0
 10
45.3291
 20
72.7661
 30
0.0
 11
43.8037
 21
72.7661
 31
0.0
  0
LINE
  8
0
 62
     0
 10
43.8037
 20
72.7661
 30
0.0
 11
43.8037
 21
75.9961
 31
0.0
  0
LINE
  8
0
 62
     0
 10
43.8037
 20
75.9961
 30
0.0
 11
37.054
 21
75.9961
 31
0.0
  0
LINE
  8
0
 62
     0
 10
37.054
 20
75.9961
 30
0.0
 11
37.054
 21
72.7661
 31
0.0
  0
LINE
  8
0
 62
     0
 10
37.054
 20
72.7661
 30
0.0
 11
36.2285
 21
72.7661
 31
0.0
  0
LINE
  8
0
 62
     0
 10
36.2285
 20
72.7661
 30
0.0
 11
36.2285
 21
69.9657
 31
0.0
  0
LINE
  8
0
 62
     0
 10
36.2285
 20
69.9657
 30
0.0
 11
37.054
 21
69.9657
 31
0.0
  0
LINE
  8
0
 62
     0
 10
37.054
 20
69.9657
 30
0.0
 11
37.054
 21
63.6958
 31
0.0
  0
LINE
  8
0
 62
     0
 10
37.054
 20
63.6958
 30
0.0
 11
38.7795
 21
63.6958
 31
0.0
  0
LINE
  8
0
 62
     0
 10
38.7795
 20
63.6958
 30
0.0
 11
38.7795
 21
62.4967
 31
0.0
  0
LINE
  8
0
 62
     0
 10
38.7795
 20
62.4967
 30
0.0
 11
42.0797
 21
62.4967
 31
0.0
  0
LINE
  8
0
 62
     0
 10
42.0797
 20
62.4967
 30
0.0
 11
42.0797
 21
63.6958
 31
0.0
  0
LINE
  8
0
 62
     0
 10
42.0797
 20
63.6958
 30
0.0
 11
43.8037
 21
63.6958
 31
0.0
  0
LINE
  8
0
 62
     0
 10
43.8037
 20
63.6958
 30
0.0
 11
43.8037
 21
68.1662
 31
0.0
  0
LINE
  8
0
 62
     0
 10
43.8037
 20
68.1662
 30
0.0
 11
45.3291
 21
68.1662
 31
0.0
  0
LINE
  8
0
 62
     0
 10
45.3291
 20
68.1662
 30
0.0
 11
45.3291
 21
63.4668
 31
0.0
  0
LINE
  8
0
 62
     0
 10
45.3291
 20
63.4668
 30
0.0
 11
59.3288
 21
63.4668
 31
0.0
  0
LINE
  8
0
 62
     0
 10
59.3288
 20
63.4668
 30
0.0
 11
59.3288
 21
68.1662
 31
0.0
  0
LINE
  8
0
 62
     0
 10
59.3288
 20
68.1662
 30
0.0
 11
60.8542
 21
68.1662
 31
0.0
  0
LINE
  8
0
 62
     0
 10
60.8542
 20
68.1662
 30
0.0
 11
60.8542
 21
63.6958
 31
0.0
  0
LINE
  8
0
 62
     0
 10
60.8542
 20
63.6958
 30
0.0
 11
62.5796
 21
63.6958
 31
0.0
  0
LINE
  8
0
 62
     0
 10
62.5796
 20
63.6958
 30
0.0
 11
62.5796
 21
62.4967
 31
0.0
  0
LINE
  8
0
 62
     0
 10
62.5796
 20
62.4967
 30
0.0
 11
65.8798
 21
62.4967
 31
0.0
  0
LINE
  8
0
 62
     0
 10
65.8798
 20
62.4967
 30
0.0
 11
65.8798
 21
63.6958
 31
0.0
  0
LINE
  8
0
 62
     0
 10
65.8798
 20
63.6958
 30
0.0
 11
67.6039
 21
63.6958
 31
0.0
  0
LINE
  8
0
 62
     0
 10
67.6039
 20
63.6958
 30
0.0
 11
67.6039
 21
69.9657
 31
0.0
  0
LINE
  8
0
 62
     0
 10
67.6039
 20
69.9657
 30
0.0
 11
68.4294
 21
69.9657
 31
0.0
  0
LINE
  8
0
 62
     0
 10
68.4294
 20
69.9657
 30
0.0
 11
68.4294
 21
72.7661
 31
0.0
  0
LINE
  8
0
 62
     0
 10
68.4294
 20
72.7661
 30
0.0
 11
67.6039
 21
72.7661
 31
0.0
  0
LINE
  8
0
 62
     0
 10
67.6039
 20
72.7661
 30
0.0
 11
67.6039
 21
75.9961
 31
0.0
  0
LINE
  8
0
 62
     0
 10
67.6039
 20
75.9961
 30
0.0
 11
60.8542
 21
75.9961
 31
0.0
  0
LINE
  8
0
 62
     0
 10
60.8542
 20
75.9961
 30
0.0
 11
60.8542
 21
72.7661
 31
0.0
  0
LINE
  8
0
 62
     0
 10
60.8542
 20
72.7661
 30
0.0
 11
59.3288
 21
72.7661
 31
0.0
  0
ENDSEC
  0
EOF
