<?xml version="1.0" encoding="UTF-8" standalone="no"?>
<svg
   xmlns:dc="http://purl.org/dc/elements/1.1/"
   xmlns:cc="http://creativecommons.org/ns#"
   xmlns:rdf="http://www.w3.org/1999/02/22-rdf-syntax-ns#"
   xmlns:svg="http://www.w3.org/2000/svg"
   xmlns="http://www.w3.org/2000/svg"
   xmlns:sodipodi="http://sodipodi.sourceforge.net/DTD/sodipodi-0.dtd"
   xmlns:inkscape="http://www.inkscape.org/namespaces/inkscape"
   width="160.79571481mm"
   height="113.68230523mm"
   viewBox="0 0 160.79571481 113.68230523"
   version="1.1"
   id="svg74"
   sodipodi:docname="June_c6_mx_stock_v1.svg"
   inkscape:version="0.92.5 (2060ec1f9f, 2020-04-08)">
  <metadata
     id="metadata80">
    <rdf:RDF>
      <cc:Work
         rdf:about="">
        <dc:format>image/svg+xml</dc:format>
        <dc:type
           rdf:resource="http://purl.org/dc/dcmitype/StillImage" />
      </cc:Work>
    </rdf:RDF>
  </metadata>
  <defs
     id="defs78" />
  <sodipodi:namedview
     pagecolor="#ffffff"
     bordercolor="#666666"
     borderopacity="1"
     objecttolerance="10"
     gridtolerance="10"
     guidetolerance="10"
     inkscape:pageopacity="0"
     inkscape:pageshadow="2"
     inkscape:window-width="1533"
     inkscape:window-height="790"
     id="namedview76"
     showgrid="false"
     inkscape:zoom="0.70710678"
     inkscape:cx="92.477734"
     inkscape:cy="32.557614"
     inkscape:window-x="54"
     inkscape:window-y="27"
     inkscape:window-maximized="0"
     inkscape:current-layer="svg74" />
  <circle
     style="fill:none;stroke:#00fa00;stroke-width:0.25;stroke-miterlimit:4;stroke-dasharray:none;stroke-opacity:1"
     id="circle2"
     r="1.2"
     cy="58.1366"
     cx="140.74571" />
  <circle
     style="fill:none;stroke:#00fa00;stroke-width:0.25;stroke-miterlimit:4;stroke-dasharray:none;stroke-opacity:1"
     id="circle4"
     r="1.2"
     cy="17.861591"
     cx="124.27071" />
  <circle
     style="fill:none;stroke:#00fa00;stroke-width:0.25;stroke-miterlimit:4;stroke-dasharray:none;stroke-opacity:1"
     id="circle6"
     r="1.2"
     cy="66.030975"
     cx="73.844574" />
  <circle
     style="fill:none;stroke:#00fa00;stroke-width:0.25;stroke-miterlimit:4;stroke-dasharray:none;stroke-opacity:1"
     id="circle8"
     r="1.2"
     cy="84.227837"
     cx="29.91346" />
  <circle
     style="fill:none;stroke:#00fa00;stroke-width:0.25;stroke-miterlimit:4;stroke-dasharray:none;stroke-opacity:1"
     id="circle10"
     r="1.2"
     cy="7.5365906"
     cx="64.545715" />
  <circle
     style="fill:none;stroke:#00fa00;stroke-width:0.25;stroke-miterlimit:4;stroke-dasharray:none;stroke-opacity:1"
     id="circle12"
     r="1.2"
     cy="67.361588"
     cx="118.05894" />
  <circle
     style="fill:none;stroke:#00fa00;stroke-width:0.25;stroke-miterlimit:4;stroke-dasharray:none;stroke-opacity:1"
     id="circle14"
     r="1.2"
     cy="20.0366"
     cx="140.74571" />
  <path
     style="fill:none;stroke:#00fa00;stroke-width:0.25;stroke-miterlimit:4;stroke-dasharray:none;stroke-opacity:1"
     inkscape:connector-curvature="0"
     id="path16"
     d="m 159.79571,78.18659 h -43.38589 a 1,1 0 0 0 -1,1 v 5.569828 a 1,1 0 0 1 -1,1 H 85.834823 A 71.349558,71.349558 0 0 0 35.383067,106.65422 l -6.735192,6.73519 a 1,1 0 0 1 -1.414213,0 L 0.29289322,86.448644 a 1,1 0 0 1 0,-1.414214 L 7.0280853,78.299238 A 111.44956,111.44956 0 0 1 44.120008,53.757642 1,1 0 0 0 44.745715,52.830332 V 6.2353721 a 1,1 0 0 1 0.743193,-0.9664626 157.10598,157.10598 0 0 1 93.804542,4.1060179 157.10923,157.10923 0 0 1 3.5196,1.3214556 157.10598,157.10598 0 0 1 17.45645,8.05582 1,1 0 0 1 0.52621,0.88064 V 77.18659 a 1,1 0 0 1 -1,1 z" />
  <path
     style="fill:none;stroke:#00fa00;stroke-width:0.25;stroke-miterlimit:4;stroke-dasharray:none;stroke-opacity:1"
     inkscape:connector-curvature="0"
     id="path26"
     d="m 86.170715,43.01159 v 13.3 a 0.3,0.3 0 0 0 0.3,0.3 h 13.3 a 0.3,0.3 0 0 0 0.299995,-0.3 v -13.3 a 0.3,0.3 0 0 0 -0.299995,-0.3 h -13.3 a 0.3,0.3 0 0 0 -0.3,0.3 z" />
  <path
     style="fill:none;stroke:#00fa00;stroke-width:0.25;stroke-miterlimit:4;stroke-dasharray:none;stroke-opacity:1"
     inkscape:connector-curvature="0"
     id="path28"
     d="M 100.07071,18.21159 V 4.9115904 a 0.3,0.3 0 0 0 -0.299995,-0.3 h -13.3 a 0.3,0.3 0 0 0 -0.3,0.3 V 18.21159 a 0.3,0.3 0 0 0 0.3,0.3 h 13.3 a 0.3,0.3 0 0 0 0.299995,-0.3 z" />
  <path
     style="fill:none;stroke:#00fa00;stroke-width:0.25;stroke-miterlimit:4;stroke-dasharray:none;stroke-opacity:1"
     inkscape:connector-curvature="0"
     id="path30"
     d="m 48.070715,52.01159 v 13.3 a 0.3,0.3 0 0 0 0.3,0.3 h 13.3 a 0.3,0.3 0 0 0 0.3,-0.3 v -13.3 a 0.3,0.3 0 0 0 -0.3,-0.3 h -13.3 a 0.3,0.3 0 0 0 -0.3,0.3 z" />
  <path
     style="opacity:0.8;fill:none;stroke:#c80000;stroke-width:0.25;stroke-miterlimit:4;stroke-dasharray:none;stroke-opacity:1"
     inkscape:connector-curvature="0"
     id="path32"
     d="m 35.554564,83.916405 6.650001,11.518141 a 0.3,0.3 0 0 0 0.409808,0.10981 l 11.518137,-6.65 a 0.3,0.3 0 0 0 0.109808,-0.40981 L 47.592317,76.966405 a 0.3,0.3 0 0 0 -0.409808,-0.109807 l -11.518137,6.65 a 0.3,0.3 0 0 0 -0.109808,0.409807 z" />
  <path
     style="fill:none;stroke:#00fa00;stroke-width:0.25;stroke-miterlimit:4;stroke-dasharray:none;stroke-opacity:1"
     inkscape:connector-curvature="0"
     id="path34"
     d="m 105.52071,24.51159 h 13.3 a 0.3,0.3 0 0 0 0.3,-0.3 v -13.3 a 0.3,0.3 0 0 0 -0.3,-0.3 h -13.3 a 0.3,0.3 0 0 0 -0.3,0.3 v 13.3 a 0.3,0.3 0 0 0 0.3,0.3 z" />
  <path
     style="fill:none;stroke:#00fa00;stroke-width:0.25;stroke-miterlimit:4;stroke-dasharray:none;stroke-opacity:1"
     inkscape:connector-curvature="0"
     id="path36"
     d="m 137.87071,41.66159 h -13.3 a 0.3,0.3 0 0 0 -0.3,0.3 v 13.3 a 0.3,0.3 0 0 0 0.3,0.3 h 13.3 a 0.3,0.3 0 0 0 0.3,-0.3 v -13.3 a 0.3,0.3 0 0 0 -0.3,-0.3 z" />
  <path
     style="fill:none;stroke:#00fa00;stroke-width:0.25;stroke-miterlimit:4;stroke-dasharray:none;stroke-opacity:1"
     inkscape:connector-curvature="0"
     id="path38"
     d="m 124.27071,61.01159 v 13.3 a 0.3,0.3 0 0 0 0.3,0.3 h 13.3 a 0.3,0.3 0 0 0 0.3,-0.3 v -13.3 a 0.3,0.3 0 0 0 -0.3,-0.3 h -13.3 a 0.3,0.3 0 0 0 -0.3,0.3 z" />
  <path
     style="fill:none;stroke:#00fa00;stroke-width:0.25;stroke-miterlimit:4;stroke-dasharray:none;stroke-opacity:1"
     inkscape:connector-curvature="0"
     id="path40"
     d="m 137.87071,22.61159 h -13.3 a 0.3,0.3 0 0 0 -0.3,0.3 v 13.3 a 0.3,0.3 0 0 0 0.3,0.3 h 13.3 a 0.3,0.3 0 0 0 0.3,-0.3 v -13.3 a 0.3,0.3 0 0 0 -0.3,-0.3 z" />
  <path
     style="fill:none;stroke:#00fa00;stroke-width:0.25;stroke-miterlimit:4;stroke-dasharray:none;stroke-opacity:1"
     inkscape:connector-curvature="0"
     id="path42"
     d="m 67.420715,25.01159 h 13.3 a 0.3,0.3 0 0 0 0.3,-0.3 v -13.3 a 0.3,0.3 0 0 0 -0.3,-0.3 h -13.3 a 0.3,0.3 0 0 0 -0.3,0.3 v 13.3 a 0.3,0.3 0 0 0 0.3,0.3 z" />
  <path
     style="fill:none;stroke:#00fa00;stroke-width:0.25;stroke-miterlimit:4;stroke-dasharray:none;stroke-opacity:1"
     inkscape:connector-curvature="0"
     id="path44"
     d="m 67.420715,44.06159 h 13.3 a 0.3,0.3 0 0 0 0.3,-0.3 v -13.3 a 0.3,0.3 0 0 0 -0.3,-0.3 h -13.3 a 0.3,0.3 0 0 0 -0.3,0.3 v 13.3 a 0.3,0.3 0 0 0 0.3,0.3 z" />
  <path
     style="fill:none;stroke:#00fa00;stroke-width:0.25;stroke-miterlimit:4;stroke-dasharray:none;stroke-opacity:1"
     inkscape:connector-curvature="0"
     id="path46"
     d="m 100.07071,37.26159 v -13.3 a 0.3,0.3 0 0 0 -0.299995,-0.3 h -13.3 a 0.3,0.3 0 0 0 -0.3,0.3 v 13.3 a 0.3,0.3 0 0 0 0.3,0.3 h 13.3 a 0.3,0.3 0 0 0 0.299995,-0.3 z" />
  <path
     style="fill:none;stroke:#00fa00;stroke-width:0.25;stroke-miterlimit:4;stroke-dasharray:none;stroke-opacity:1"
     inkscape:connector-curvature="0"
     id="path48"
     d="m 48.070715,32.96159 v 13.3 a 0.3,0.3 0 0 0 0.3,0.3 h 13.3 a 0.3,0.3 0 0 0 0.3,-0.3 v -13.3 a 0.3,0.3 0 0 0 -0.3,-0.3 h -13.3 a 0.3,0.3 0 0 0 -0.3,0.3 z" />
  <path
     style="fill:none;stroke:#00fa00;stroke-width:0.25;stroke-miterlimit:4;stroke-dasharray:none;stroke-opacity:1"
     inkscape:connector-curvature="0"
     id="path50"
     d="M 73.07846,82.645841 69.636166,69.799027 a 0.3,0.3 0 0 0 -0.367423,-0.212132 l -12.846814,3.442293 a 0.3,0.3 0 0 0 -0.212132,0.367424 l 3.442294,12.846813 a 0.3,0.3 0 0 0 0.367423,0.212132 l 12.846814,-3.442293 a 0.3,0.3 0 0 0 0.212132,-0.367423 z" />
  <path
     style="fill:none;stroke:#00fa00;stroke-width:0.25;stroke-miterlimit:4;stroke-dasharray:none;stroke-opacity:1"
     inkscape:connector-curvature="0"
     id="path52"
     d="m 105.52071,43.56159 h 13.3 a 0.3,0.3 0 0 0 0.3,-0.3 v -13.3 a 0.3,0.3 0 0 0 -0.3,-0.3 h -13.3 a 0.3,0.3 0 0 0 -0.3,0.3 v 13.3 a 0.3,0.3 0 0 0 0.3,0.3 z" />
  <path
     style="fill:none;stroke:#00fa00;stroke-width:0.25;stroke-miterlimit:4;stroke-dasharray:none;stroke-opacity:1"
     inkscape:connector-curvature="0"
     id="path54"
     d="m 143.32071,41.9616 v 13.3 a 0.3,0.3 0 0 0 0.3,0.3 h 13.3 a 0.3,0.3 0 0 0 0.3,-0.3 v -13.3 a 0.3,0.3 0 0 0 -0.3,-0.3 h -13.3 a 0.3,0.3 0 0 0 -0.3,0.3 z" />
  <path
     style="fill:none;stroke:#00fa00;stroke-width:0.25;stroke-miterlimit:4;stroke-dasharray:none;stroke-opacity:1"
     inkscape:connector-curvature="0"
     id="path56"
     d="m 105.22071,49.01159 v 13.3 a 0.3,0.3 0 0 0 0.3,0.3 h 13.3 a 0.3,0.3 0 0 0 0.3,-0.3 v -13.3 a 0.3,0.3 0 0 0 -0.3,-0.3 h -13.3 a 0.3,0.3 0 0 0 -0.3,0.3 z" />
  <path
     style="fill:none;stroke:#00fa00;stroke-width:0.25;stroke-miterlimit:4;stroke-dasharray:none;stroke-opacity:1"
     inkscape:connector-curvature="0"
     id="path58"
     d="m 48.070715,13.91159 v 13.3 a 0.3,0.3 0 0 0 0.3,0.3 h 13.3 a 0.3,0.3 0 0 0 0.3,-0.3 v -13.3 a 0.3,0.3 0 0 0 -0.3,-0.3 h -13.3 a 0.3,0.3 0 0 0 -0.3,0.3 z" />
  <path
     style="fill:none;stroke:#00fa00;stroke-width:0.25;stroke-miterlimit:4;stroke-dasharray:none;stroke-opacity:1"
     inkscape:connector-curvature="0"
     id="path60"
     d="m 67.120715,49.51159 v 13.3 a 0.3,0.3 0 0 0 0.3,0.3 h 13.3 a 0.3,0.3 0 0 0 0.3,-0.3 v -13.3 a 0.3,0.3 0 0 0 -0.3,-0.3 h -13.3 a 0.3,0.3 0 0 0 -0.3,0.3 z" />
  <path
     style="opacity:0.8;fill:none;stroke:#c80000;stroke-width:0.25;stroke-miterlimit:4;stroke-dasharray:none;stroke-opacity:1"
     inkscape:connector-curvature="0"
     id="path54-3"
     d="m 143.31991,22.913031 v 13.3 a 0.29999999,0.29999999 0 0 0 0.3,0.3 h 13.3 a 0.29999999,0.29999999 0 0 0 0.3,-0.3 v -13.3 a 0.29999999,0.29999999 0 0 0 -0.3,-0.3 h -13.3 a 0.29999999,0.29999999 0 0 0 -0.3,0.3 z" />
  <path
     style="opacity:0.8;fill:none;stroke:#c80000;stroke-width:0.25;stroke-miterlimit:4;stroke-dasharray:none;stroke-opacity:1"
     inkscape:connector-curvature="0"
     id="path54-6"
     d="m 143.3236,61.014529 v 13.3 a 0.29999999,0.29999999 0 0 0 0.3,0.3 h 13.3 a 0.29999999,0.29999999 0 0 0 0.3,-0.3 v -13.3 a 0.29999999,0.29999999 0 0 0 -0.3,-0.3 h -13.3 a 0.29999999,0.29999999 0 0 0 -0.3,0.3 z" />
  <path
     d="m 18.324314,99.425843 9.404522,9.404527 a 0.3,0.3 0 0 0 0.424264,0 l 9.40452,-9.404527 a 0.3,0.3 0 0 0 0,-0.424262 l -9.404522,-9.404522 a 0.3,0.3 0 0 0 -0.424264,0 l -9.40452,9.40452 a 0.3,0.3 0 0 0 0,0.424264 z"
     id="path847"
     inkscape:connector-curvature="0"
     style="opacity:0.76999996;fill:none;stroke:#c80000;stroke-width:0.25003126;stroke-miterlimit:4;stroke-dasharray:none;stroke-opacity:1" />
  <path
     style="opacity:0.76999996;fill:none;stroke:#c80000;stroke-width:0.25003126;stroke-miterlimit:4;stroke-dasharray:none;stroke-opacity:1"
     inkscape:connector-curvature="0"
     id="path849"
     d="m 4.8545689,85.953255 9.4045211,9.40452 a 0.3,0.3 0 0 0 0.424264,0 l 9.40452,-9.40452 a 0.3,0.3 0 0 0 0,-0.424262 l -9.404522,-9.404522 a 0.3,0.3 0 0 0 -0.424264,0 l -9.4045191,9.40452 a 0.3,0.3 0 0 0 0,0.424264 z" />
</svg>
