<?xml version="1.0" encoding="UTF-8" standalone="no"?>
<svg
   xmlns:dc="http://purl.org/dc/elements/1.1/"
   xmlns:cc="http://creativecommons.org/ns#"
   xmlns:rdf="http://www.w3.org/1999/02/22-rdf-syntax-ns#"
   xmlns:svg="http://www.w3.org/2000/svg"
   xmlns="http://www.w3.org/2000/svg"
   xmlns:sodipodi="http://sodipodi.sourceforge.net/DTD/sodipodi-0.dtd"
   xmlns:inkscape="http://www.inkscape.org/namespaces/inkscape"
   width="10.5in"
   height="7.25in"
   viewBox="0 0 266.7 184.15"
   version="1.1"
   id="svg5"
   sodipodi:docname="40_with_mid_plate.svg"
   inkscape:version="0.92.3 (2405546, 2018-03-11)">
  <metadata
     id="metadata11">
    <rdf:RDF>
      <cc:Work
         rdf:about="">
        <dc:format>image/svg+xml</dc:format>
        <dc:type
           rdf:resource="http://purl.org/dc/dcmitype/StillImage" />
        <dc:title />
      </cc:Work>
    </rdf:RDF>
  </metadata>
  <defs
     id="defs9" />
  <sodipodi:namedview
     pagecolor="#ffffff"
     bordercolor="#666666"
     borderopacity="1"
     objecttolerance="10"
     gridtolerance="10"
     guidetolerance="10"
     inkscape:pageopacity="0"
     inkscape:pageshadow="2"
     inkscape:window-width="1551"
     inkscape:window-height="845"
     id="namedview7"
     showgrid="false"
     inkscape:measure-start="739.217,383.955"
     inkscape:measure-end="755.784,383.955"
     inkscape:zoom="1.1544307"
     inkscape:cx="563.99957"
     inkscape:cy="448.87233"
     inkscape:window-x="49"
     inkscape:window-y="27"
     inkscape:window-maximized="1"
     inkscape:current-layer="svg5"
     units="in"
     showguides="false" />
  <g
     id="svgGroup"
     font-size="9pt"
     style="font-size:12px;opacity:1;fill:none;fill-opacity:1;fill-rule:evenodd;stroke:#000000;stroke-width:0.2;stroke-linecap:round;stroke-miterlimit:4;stroke-dasharray:none;stroke-opacity:1"
     transform="translate(74.815765,46.435044)">
    <path
       d="M 0.8,13.5 A 0.5,0.5 0 0 0 1.3,14 h 13 a 0.5,0.5 0 0 0 0.5,-0.5 V 13 h 0.3 a 0.5,0.5 0 0 0 0.5,-0.5 V 10.4 A 0.5,0.5 0 0 0 15.1,9.9 H 14.8 V 4.1 h 0.3 A 0.5,0.5 0 0 0 15.6,3.6 V 1.5 A 0.5,0.5 0 0 0 15.1,1 H 14.8 V 0.5 A 0.5,0.5 0 0 0 14.3,0 H 1.3 A 0.5,0.5 0 0 0 0.8,0.5 V 1 H 0.5 A 0.5,0.5 0 0 0 0,1.5 V 3.6 A 0.5,0.5 0 0 0 0.5,4.1 H 0.8 V 9.9 H 0.5 A 0.5,0.5 0 0 0 0,10.4 v 2.1 A 0.5,0.5 0 0 0 0.5,13 h 0.3 z m 19.05,0 a 0.5,0.5 0 0 0 0.5,0.5 h 13 a 0.5,0.5 0 0 0 0.5,-0.5 V 13 h 0.3 a 0.5,0.5 0 0 0 0.5,-0.5 v -2.1 a 0.5,0.5 0 0 0 -0.5,-0.5 h -0.3 V 4.1 h 0.3 a 0.5,0.5 0 0 0 0.5,-0.5 V 1.5 A 0.5,0.5 0 0 0 34.15,1 h -0.3 V 0.5 A 0.5,0.5 0 0 0 33.35,0 h -13 a 0.5,0.5 0 0 0 -0.5,0.5 V 1 h -0.3 a 0.5,0.5 0 0 0 -0.5,0.5 v 2.1 a 0.5,0.5 0 0 0 0.5,0.5 h 0.3 v 5.8 h -0.3 a 0.5,0.5 0 0 0 -0.5,0.5 v 2.1 a 0.5,0.5 0 0 0 0.5,0.5 h 0.3 z m 19.05,0 a 0.5,0.5 0 0 0 0.5,0.5 h 13 a 0.5,0.5 0 0 0 0.5,-0.5 V 13 h 0.3 a 0.5,0.5 0 0 0 0.5,-0.5 V 10.4 A 0.5,0.5 0 0 0 53.2,9.9 H 52.9 V 4.1 h 0.3 A 0.5,0.5 0 0 0 53.7,3.6 V 1.5 A 0.5,0.5 0 0 0 53.2,1 H 52.9 V 0.5 A 0.5,0.5 0 0 0 52.4,0 h -13 A 0.5,0.5 0 0 0 38.9,0.5 V 1 h -0.3 a 0.5,0.5 0 0 0 -0.5,0.5 v 2.1 a 0.5,0.5 0 0 0 0.5,0.5 h 0.3 v 5.8 h -0.3 a 0.5,0.5 0 0 0 -0.5,0.5 v 2.1 a 0.5,0.5 0 0 0 0.5,0.5 h 0.3 z m 19.05,0 a 0.5,0.5 0 0 0 0.5,0.5 h 13 a 0.5,0.5 0 0 0 0.5,-0.5 V 13 h 0.3 a 0.5,0.5 0 0 0 0.5,-0.5 v -2.1 a 0.5,0.5 0 0 0 -0.5,-0.5 h -0.3 V 4.1 h 0.3 a 0.5,0.5 0 0 0 0.5,-0.5 V 1.5 A 0.5,0.5 0 0 0 72.25,1 h -0.3 V 0.5 A 0.5,0.5 0 0 0 71.45,0 h -13 a 0.5,0.5 0 0 0 -0.5,0.5 V 1 h -0.3 a 0.5,0.5 0 0 0 -0.5,0.5 v 2.1 a 0.5,0.5 0 0 0 0.5,0.5 h 0.3 v 5.8 h -0.3 a 0.5,0.5 0 0 0 -0.5,0.5 v 2.1 a 0.5,0.5 0 0 0 0.5,0.5 h 0.3 z m 19.05,0 a 0.5,0.5 0 0 0 0.5,0.5 h 13 A 0.5,0.5 0 0 0 91,13.5 V 13 h 0.3 a 0.5,0.5 0 0 0 0.5,-0.5 V 10.4 A 0.5,0.5 0 0 0 91.3,9.9 H 91 V 4.1 h 0.3 A 0.5,0.5 0 0 0 91.8,3.6 V 1.5 A 0.5,0.5 0 0 0 91.3,1 H 91 V 0.5 A 0.5,0.5 0 0 0 90.5,0 h -13 A 0.5,0.5 0 0 0 77,0.5 V 1 h -0.3 a 0.5,0.5 0 0 0 -0.5,0.5 v 2.1 a 0.5,0.5 0 0 0 0.5,0.5 H 77 v 5.8 h -0.3 a 0.5,0.5 0 0 0 -0.5,0.5 v 2.1 A 0.5,0.5 0 0 0 76.7,13 H 77 Z m 19.05,0 a 0.5,0.5 0 0 0 0.5,0.5 h 13 a 0.5,0.5 0 0 0 0.5,-0.5 V 13 h 0.3 a 0.5,0.5 0 0 0 0.5,-0.5 v -2.1 a 0.5,0.5 0 0 0 -0.5,-0.5 h -0.3 V 4.1 h 0.3 a 0.5,0.5 0 0 0 0.5,-0.5 V 1.5 A 0.5,0.5 0 0 0 110.35,1 h -0.3 V 0.5 A 0.5,0.5 0 0 0 109.55,0 h -13 a 0.5,0.5 0 0 0 -0.5,0.5 V 1 h -0.3 a 0.5,0.5 0 0 0 -0.5,0.5 v 2.1 a 0.5,0.5 0 0 0 0.5,0.5 h 0.3 v 5.8 h -0.3 a 0.5,0.5 0 0 0 -0.5,0.5 v 2.1 a 0.5,0.5 0 0 0 0.5,0.5 h 0.3 z M 0.8,32.55 a 0.5,0.5 0 0 0 0.5,0.5 h 13 a 0.5,0.5 0 0 0 0.5,-0.5 v -0.5 h 0.3 a 0.5,0.5 0 0 0 0.5,-0.5 v -2.1 a 0.5,0.5 0 0 0 -0.5,-0.5 h -0.3 v -5.8 h 0.3 a 0.5,0.5 0 0 0 0.5,-0.5 v -2.1 a 0.5,0.5 0 0 0 -0.5,-0.5 h -0.3 v -0.5 a 0.5,0.5 0 0 0 -0.5,-0.5 h -13 a 0.5,0.5 0 0 0 -0.5,0.5 v 0.5 H 0.5 A 0.5,0.5 0 0 0 0,20.55 v 2.1 a 0.5,0.5 0 0 0 0.5,0.5 h 0.3 v 5.8 H 0.5 A 0.5,0.5 0 0 0 0,29.45 v 2.1 a 0.5,0.5 0 0 0 0.5,0.5 h 0.3 z m 19.05,0 a 0.5,0.5 0 0 0 0.5,0.5 h 13 a 0.5,0.5 0 0 0 0.5,-0.5 v -0.5 h 0.3 a 0.5,0.5 0 0 0 0.5,-0.5 v -2.1 a 0.5,0.5 0 0 0 -0.5,-0.5 h -0.3 v -5.8 h 0.3 a 0.5,0.5 0 0 0 0.5,-0.5 v -2.1 a 0.5,0.5 0 0 0 -0.5,-0.5 h -0.3 v -0.5 a 0.5,0.5 0 0 0 -0.5,-0.5 h -13 a 0.5,0.5 0 0 0 -0.5,0.5 v 0.5 h -0.3 a 0.5,0.5 0 0 0 -0.5,0.5 v 2.1 a 0.5,0.5 0 0 0 0.5,0.5 h 0.3 v 5.8 h -0.3 a 0.5,0.5 0 0 0 -0.5,0.5 v 2.1 a 0.5,0.5 0 0 0 0.5,0.5 h 0.3 z m 19.05,0 a 0.5,0.5 0 0 0 0.5,0.5 h 13 a 0.5,0.5 0 0 0 0.5,-0.5 v -0.5 h 0.3 a 0.5,0.5 0 0 0 0.5,-0.5 v -2.1 a 0.5,0.5 0 0 0 -0.5,-0.5 h -0.3 v -5.8 h 0.3 a 0.5,0.5 0 0 0 0.5,-0.5 v -2.1 a 0.5,0.5 0 0 0 -0.5,-0.5 h -0.3 v -0.5 a 0.5,0.5 0 0 0 -0.5,-0.5 h -13 a 0.5,0.5 0 0 0 -0.5,0.5 v 0.5 h -0.3 a 0.5,0.5 0 0 0 -0.5,0.5 v 2.1 a 0.5,0.5 0 0 0 0.5,0.5 h 0.3 v 5.8 h -0.3 a 0.5,0.5 0 0 0 -0.5,0.5 v 2.1 a 0.5,0.5 0 0 0 0.5,0.5 h 0.3 z m 19.05,0 a 0.5,0.5 0 0 0 0.5,0.5 h 13 a 0.5,0.5 0 0 0 0.5,-0.5 v -0.5 h 0.3 a 0.5,0.5 0 0 0 0.5,-0.5 v -2.1 a 0.5,0.5 0 0 0 -0.5,-0.5 h -0.3 v -5.8 h 0.3 a 0.5,0.5 0 0 0 0.5,-0.5 v -2.1 a 0.5,0.5 0 0 0 -0.5,-0.5 h -0.3 v -0.5 a 0.5,0.5 0 0 0 -0.5,-0.5 h -13 a 0.5,0.5 0 0 0 -0.5,0.5 v 0.5 h -0.3 a 0.5,0.5 0 0 0 -0.5,0.5 v 2.1 a 0.5,0.5 0 0 0 0.5,0.5 h 0.3 v 5.8 h -0.3 a 0.5,0.5 0 0 0 -0.5,0.5 v 2.1 a 0.5,0.5 0 0 0 0.5,0.5 h 0.3 z m 19.05,0 a 0.5,0.5 0 0 0 0.5,0.5 h 13 a 0.5,0.5 0 0 0 0.5,-0.5 v -0.5 h 0.3 a 0.5,0.5 0 0 0 0.5,-0.5 v -2.1 a 0.5,0.5 0 0 0 -0.5,-0.5 H 91 v -5.8 h 0.3 a 0.5,0.5 0 0 0 0.5,-0.5 v -2.1 a 0.5,0.5 0 0 0 -0.5,-0.5 H 91 v -0.5 a 0.5,0.5 0 0 0 -0.5,-0.5 h -13 a 0.5,0.5 0 0 0 -0.5,0.5 v 0.5 h -0.3 a 0.5,0.5 0 0 0 -0.5,0.5 v 2.1 a 0.5,0.5 0 0 0 0.5,0.5 H 77 v 5.8 h -0.3 a 0.5,0.5 0 0 0 -0.5,0.5 v 2.1 a 0.5,0.5 0 0 0 0.5,0.5 H 77 Z m 19.05,0 a 0.5,0.5 0 0 0 0.5,0.5 h 13 a 0.5,0.5 0 0 0 0.5,-0.5 v -0.5 h 0.3 a 0.5,0.5 0 0 0 0.5,-0.5 v -2.1 a 0.5,0.5 0 0 0 -0.5,-0.5 h -0.3 v -5.8 h 0.3 a 0.5,0.5 0 0 0 0.5,-0.5 v -2.1 a 0.5,0.5 0 0 0 -0.5,-0.5 h -0.3 v -0.5 a 0.5,0.5 0 0 0 -0.5,-0.5 h -13 a 0.5,0.5 0 0 0 -0.5,0.5 v 0.5 h -0.3 a 0.5,0.5 0 0 0 -0.5,0.5 v 2.1 a 0.5,0.5 0 0 0 0.5,0.5 h 0.3 v 5.8 h -0.3 a 0.5,0.5 0 0 0 -0.5,0.5 v 2.1 a 0.5,0.5 0 0 0 0.5,0.5 h 0.3 z M 0.8,51.6 a 0.5,0.5 0 0 0 0.5,0.5 h 13 a 0.5,0.5 0 0 0 0.5,-0.5 v -0.5 h 0.3 a 0.5,0.5 0 0 0 0.5,-0.5 V 48.5 A 0.5,0.5 0 0 0 15.1,48 h -0.3 v -5.8 h 0.3 a 0.5,0.5 0 0 0 0.5,-0.5 v -2.1 a 0.5,0.5 0 0 0 -0.5,-0.5 h -0.3 v -0.5 a 0.5,0.5 0 0 0 -0.5,-0.5 h -13 a 0.5,0.5 0 0 0 -0.5,0.5 v 0.5 H 0.5 A 0.5,0.5 0 0 0 0,39.6 v 2.1 a 0.5,0.5 0 0 0 0.5,0.5 H 0.8 V 48 H 0.5 A 0.5,0.5 0 0 0 0,48.5 v 2.1 a 0.5,0.5 0 0 0 0.5,0.5 h 0.3 z m 19.05,0 a 0.5,0.5 0 0 0 0.5,0.5 h 13 a 0.5,0.5 0 0 0 0.5,-0.5 v -0.5 h 0.3 a 0.5,0.5 0 0 0 0.5,-0.5 V 48.5 A 0.5,0.5 0 0 0 34.15,48 h -0.3 v -5.8 h 0.3 a 0.5,0.5 0 0 0 0.5,-0.5 v -2.1 a 0.5,0.5 0 0 0 -0.5,-0.5 h -0.3 v -0.5 a 0.5,0.5 0 0 0 -0.5,-0.5 h -13 a 0.5,0.5 0 0 0 -0.5,0.5 v 0.5 h -0.3 a 0.5,0.5 0 0 0 -0.5,0.5 v 2.1 a 0.5,0.5 0 0 0 0.5,0.5 h 0.3 V 48 h -0.3 a 0.5,0.5 0 0 0 -0.5,0.5 v 2.1 a 0.5,0.5 0 0 0 0.5,0.5 h 0.3 z m 19.05,0 a 0.5,0.5 0 0 0 0.5,0.5 h 13 a 0.5,0.5 0 0 0 0.5,-0.5 v -0.5 h 0.3 a 0.5,0.5 0 0 0 0.5,-0.5 V 48.5 A 0.5,0.5 0 0 0 53.2,48 h -0.3 v -5.8 h 0.3 a 0.5,0.5 0 0 0 0.5,-0.5 v -2.1 a 0.5,0.5 0 0 0 -0.5,-0.5 h -0.3 v -0.5 a 0.5,0.5 0 0 0 -0.5,-0.5 h -13 a 0.5,0.5 0 0 0 -0.5,0.5 v 0.5 h -0.3 a 0.5,0.5 0 0 0 -0.5,0.5 v 2.1 a 0.5,0.5 0 0 0 0.5,0.5 h 0.3 V 48 h -0.3 a 0.5,0.5 0 0 0 -0.5,0.5 v 2.1 a 0.5,0.5 0 0 0 0.5,0.5 h 0.3 z m 19.05,0 a 0.5,0.5 0 0 0 0.5,0.5 h 13 a 0.5,0.5 0 0 0 0.5,-0.5 v -0.5 h 0.3 a 0.5,0.5 0 0 0 0.5,-0.5 V 48.5 A 0.5,0.5 0 0 0 72.25,48 h -0.3 v -5.8 h 0.3 a 0.5,0.5 0 0 0 0.5,-0.5 v -2.1 a 0.5,0.5 0 0 0 -0.5,-0.5 h -0.3 v -0.5 a 0.5,0.5 0 0 0 -0.5,-0.5 h -13 a 0.5,0.5 0 0 0 -0.5,0.5 v 0.5 h -0.3 a 0.5,0.5 0 0 0 -0.5,0.5 v 2.1 a 0.5,0.5 0 0 0 0.5,0.5 h 0.3 V 48 h -0.3 a 0.5,0.5 0 0 0 -0.5,0.5 v 2.1 a 0.5,0.5 0 0 0 0.5,0.5 h 0.3 z m 19.05,0 a 0.5,0.5 0 0 0 0.5,0.5 h 13 A 0.5,0.5 0 0 0 91,51.6 v -0.5 h 0.3 a 0.5,0.5 0 0 0 0.5,-0.5 V 48.5 A 0.5,0.5 0 0 0 91.3,48 H 91 v -5.8 h 0.3 a 0.5,0.5 0 0 0 0.5,-0.5 V 39.6 A 0.5,0.5 0 0 0 91.3,39.1 H 91 v -0.5 a 0.5,0.5 0 0 0 -0.5,-0.5 h -13 A 0.5,0.5 0 0 0 77,38.6 v 0.5 h -0.3 a 0.5,0.5 0 0 0 -0.5,0.5 v 2.1 a 0.5,0.5 0 0 0 0.5,0.5 H 77 V 48 h -0.3 a 0.5,0.5 0 0 0 -0.5,0.5 v 2.1 a 0.5,0.5 0 0 0 0.5,0.5 H 77 Z m 19.05,0 a 0.5,0.5 0 0 0 0.5,0.5 h 13 a 0.5,0.5 0 0 0 0.5,-0.5 v -0.5 h 0.3 a 0.5,0.5 0 0 0 0.5,-0.5 v -2.1 a 0.5,0.5 0 0 0 -0.5,-0.5 h -0.3 v -5.8 h 0.3 a 0.5,0.5 0 0 0 0.5,-0.5 v -2.1 a 0.5,0.5 0 0 0 -0.5,-0.5 h -0.3 v -0.5 a 0.5,0.5 0 0 0 -0.5,-0.5 h -13 a 0.5,0.5 0 0 0 -0.5,0.5 v 0.5 h -0.3 a 0.5,0.5 0 0 0 -0.5,0.5 v 2.1 a 0.5,0.5 0 0 0 0.5,0.5 h 0.3 V 48 h -0.3 a 0.5,0.5 0 0 0 -0.5,0.5 v 2.1 a 0.5,0.5 0 0 0 0.5,0.5 h 0.3 z M 38.9,70.65 a 0.5,0.5 0 0 0 0.5,0.5 h 13 a 0.5,0.5 0 0 0 0.5,-0.5 v -0.5 h 0.3 a 0.5,0.5 0 0 0 0.5,-0.5 v -2.1 a 0.5,0.5 0 0 0 -0.5,-0.5 h -0.3 v -5.8 h 0.3 a 0.5,0.5 0 0 0 0.5,-0.5 v -2.1 a 0.5,0.5 0 0 0 -0.5,-0.5 h -0.3 v -0.5 a 0.5,0.5 0 0 0 -0.5,-0.5 h -13 a 0.5,0.5 0 0 0 -0.5,0.5 v 0.5 h -0.3 a 0.5,0.5 0 0 0 -0.5,0.5 v 2.1 a 0.5,0.5 0 0 0 0.5,0.5 h 0.3 v 5.8 h -0.3 a 0.5,0.5 0 0 0 -0.5,0.5 v 2.1 a 0.5,0.5 0 0 0 0.5,0.5 h 0.3 z m 19.05,0 a 0.5,0.5 0 0 0 0.5,0.5 h 13 a 0.5,0.5 0 0 0 0.5,-0.5 v -0.5 h 0.3 a 0.5,0.5 0 0 0 0.5,-0.5 v -2.1 a 0.5,0.5 0 0 0 -0.5,-0.5 h -0.3 v -5.8 h 0.3 a 0.5,0.5 0 0 0 0.5,-0.5 v -2.1 a 0.5,0.5 0 0 0 -0.5,-0.5 h -0.3 v -0.5 a 0.5,0.5 0 0 0 -0.5,-0.5 h -13 a 0.5,0.5 0 0 0 -0.5,0.5 v 0.5 h -0.3 a 0.5,0.5 0 0 0 -0.5,0.5 v 2.1 a 0.5,0.5 0 0 0 0.5,0.5 h 0.3 v 5.8 h -0.3 a 0.5,0.5 0 0 0 -0.5,0.5 v 2.1 a 0.5,0.5 0 0 0 0.5,0.5 h 0.3 z m 19.05,0 a 0.5,0.5 0 0 0 0.5,0.5 h 13 a 0.5,0.5 0 0 0 0.5,-0.5 v -0.5 h 0.3 a 0.5,0.5 0 0 0 0.5,-0.5 v -2.1 a 0.5,0.5 0 0 0 -0.5,-0.5 H 91 v -5.8 h 0.3 a 0.5,0.5 0 0 0 0.5,-0.5 v -2.1 a 0.5,0.5 0 0 0 -0.5,-0.5 H 91 v -0.5 a 0.5,0.5 0 0 0 -0.5,-0.5 h -13 a 0.5,0.5 0 0 0 -0.5,0.5 v 0.5 h -0.3 a 0.5,0.5 0 0 0 -0.5,0.5 v 2.1 a 0.5,0.5 0 0 0 0.5,0.5 H 77 v 5.8 h -0.3 a 0.5,0.5 0 0 0 -0.5,0.5 v 2.1 a 0.5,0.5 0 0 0 0.5,0.5 H 77 Z m 19.05,0 a 0.5,0.5 0 0 0 0.5,0.5 h 13 a 0.5,0.5 0 0 0 0.5,-0.5 v -0.5 h 0.3 a 0.5,0.5 0 0 0 0.5,-0.5 v -2.1 a 0.5,0.5 0 0 0 -0.5,-0.5 h -0.3 v -5.8 h 0.3 a 0.5,0.5 0 0 0 0.5,-0.5 v -2.1 a 0.5,0.5 0 0 0 -0.5,-0.5 h -0.3 v -0.5 a 0.5,0.5 0 0 0 -0.5,-0.5 h -13 a 0.5,0.5 0 0 0 -0.5,0.5 v 0.5 h -0.3 a 0.5,0.5 0 0 0 -0.5,0.5 v 2.1 a 0.5,0.5 0 0 0 0.5,0.5 h 0.3 v 5.8 h -0.3 a 0.5,0.5 0 0 0 -0.5,0.5 v 2.1 a 0.5,0.5 0 0 0 0.5,0.5 h 0.3 z"
       id="path2"
       inkscape:connector-curvature="0"
       style="vector-effect:non-scaling-stroke;fill:none;fill-opacity:1;stroke:#000000;stroke-width:0.2;stroke-miterlimit:4;stroke-dasharray:none;stroke-opacity:1" />
  </g>
  <rect
     style="opacity:1;vector-effect:none;fill:none;fill-opacity:1;stroke:#000000;stroke-width:0.20426524;stroke-linecap:round;stroke-linejoin:miter;stroke-miterlimit:4;stroke-dasharray:none;stroke-dashoffset:0;stroke-opacity:1;paint-order:fill markers stroke"
     id="rect818"
     width="139.57823"
     height="100.24283"
     x="60.523075"
     y="28.421913"
     ry="5.5444889" />
  <ellipse
     style="opacity:1;vector-effect:none;fill:none;fill-opacity:1;stroke:#000000;stroke-width:0.19334792;stroke-linecap:round;stroke-linejoin:miter;stroke-miterlimit:4;stroke-dasharray:none;stroke-dashoffset:0;stroke-opacity:1;paint-order:fill markers stroke"
     id="path820"
     cx="66.720886"
     cy="123.9125"
     rx="1.403326"
     ry="1.4033259" />
  <ellipse
     style="opacity:1;vector-effect:none;fill:none;fill-opacity:1;stroke:#000000;stroke-width:0.19334792;stroke-linecap:round;stroke-linejoin:miter;stroke-miterlimit:4;stroke-dasharray:none;stroke-dashoffset:0;stroke-opacity:1;paint-order:fill markers stroke"
     id="path820-3"
     cx="65.620888"
     cy="35.806252"
     rx="1.403326"
     ry="1.4033259" />
  <ellipse
     cy="82.372917"
     cx="65.620888"
     id="circle843"
     style="opacity:1;vector-effect:none;fill:none;fill-opacity:1;stroke:#000000;stroke-width:0.19334792;stroke-linecap:round;stroke-linejoin:miter;stroke-miterlimit:4;stroke-dasharray:none;stroke-dashoffset:0;stroke-opacity:1;paint-order:fill markers stroke"
     rx="1.403326"
     ry="1.4033259" />
  <ellipse
     style="opacity:1;vector-effect:none;fill:none;fill-opacity:1;stroke:#000000;stroke-width:0.19334792;stroke-linecap:round;stroke-linejoin:miter;stroke-miterlimit:4;stroke-dasharray:none;stroke-dashoffset:0;stroke-opacity:1;paint-order:fill markers stroke"
     id="path820-3-6"
     cx="130.1209"
     cy="35.806252"
     rx="1.403326"
     ry="1.4033259" />
  <circle
     cy="123.86089"
     cx="130.1725"
     id="ellipse860"
     style="opacity:1;vector-effect:none;fill:none;fill-opacity:1;stroke:#000000;stroke-width:0.2;stroke-linecap:round;stroke-linejoin:miter;stroke-miterlimit:4;stroke-dasharray:none;stroke-dashoffset:0;stroke-opacity:1;paint-order:fill markers stroke"
     r="1.451607" />
  <ellipse
     style="opacity:1;vector-effect:none;fill:none;fill-opacity:1;stroke:#000000;stroke-width:0.19334792;stroke-linecap:round;stroke-linejoin:miter;stroke-miterlimit:4;stroke-dasharray:none;stroke-dashoffset:0;stroke-opacity:1;paint-order:fill markers stroke"
     id="path820-7"
     cx="194.38126"
     cy="123.9125"
     rx="1.403326"
     ry="1.4033259" />
  <circle
     style="opacity:1;vector-effect:none;fill:none;fill-opacity:1;stroke:#000000;stroke-width:0.19334793;stroke-linecap:round;stroke-linejoin:miter;stroke-miterlimit:4;stroke-dasharray:none;stroke-dashoffset:0;stroke-opacity:1;paint-order:fill markers stroke"
     id="path820-3-5"
     cx="194.38126"
     cy="35.806252"
     r="1.403326" />
  <ellipse
     cy="82.372917"
     cx="194.38126"
     id="circle843-3"
     style="opacity:1;vector-effect:none;fill:none;fill-opacity:1;stroke:#000000;stroke-width:0.19334792;stroke-linecap:round;stroke-linejoin:miter;stroke-miterlimit:4;stroke-dasharray:none;stroke-dashoffset:0;stroke-opacity:1;paint-order:fill markers stroke"
     rx="1.403326"
     ry="1.4033259" />
</svg>
