<svg width="337.185mm" height="112.665mm" viewBox="0 0 337.185 112.665" xmlns="http://www.w3.org/2000/svg"><g id="svgGroup" stroke-linecap="round" fill-rule="evenodd" font-size="9pt" stroke="#000" stroke-width="0.25mm" fill="none" style="stroke:#000;stroke-width:0.25mm;fill:none"><path d="M 0 112.665 L 337.185 112.665 L 337.185 0 L 0 0 L 0 112.665 Z M 51.103 4.43 L 65.103 4.43 L 65.103 18.43 L 51.103 18.43 L 51.103 4.43 Z M 10.145 2.525 L 24.145 2.525 L 24.145 16.525 L 10.145 16.525 L 10.145 2.525 Z M 70.153 3.477 L 84.153 3.477 L 84.153 17.478 L 70.153 17.478 L 70.153 3.477 Z M 250.175 3.477 L 264.175 3.477 L 264.175 17.478 L 250.175 17.478 L 250.175 3.477 Z M 32.052 4.43 L 46.052 4.43 L 46.052 18.43 L 32.052 18.43 L 32.052 4.43 Z M 269.225 4.43 L 283.225 4.43 L 283.225 18.43 L 269.225 18.43 L 269.225 4.43 Z M 288.275 4.43 L 302.275 4.43 L 302.275 18.43 L 288.275 18.43 L 288.275 4.43 Z M 307.325 4.43 L 321.325 4.43 L 321.325 18.43 L 307.325 18.43 L 307.325 4.43 Z M 6.335 21.575 L 20.335 21.575 L 20.335 35.575 L 6.335 35.575 L 6.335 21.575 Z M 247.318 22.528 L 261.318 22.528 L 261.318 36.528 L 247.318 36.528 L 247.318 22.528 Z M 33.005 23.48 L 47.005 23.48 L 47.005 37.48 L 33.005 37.48 L 33.005 23.48 Z M 56.817 23.48 L 70.818 23.48 L 70.818 37.48 L 56.817 37.48 L 56.817 23.48 Z M 266.368 23.48 L 280.368 23.48 L 280.368 37.48 L 266.368 37.48 L 266.368 23.48 Z M 285.417 23.48 L 299.417 23.48 L 299.417 37.48 L 285.417 37.48 L 285.417 23.48 Z M 309.23 23.48 L 323.23 23.48 L 323.23 37.48 L 309.23 37.48 L 309.23 23.48 Z M 2.525 40.625 L 16.525 40.625 L 16.525 54.625 L 2.525 54.625 L 2.525 40.625 Z M 31.576 42.53 L 45.576 42.53 L 45.576 56.53 L 31.576 56.53 L 31.576 42.53 Z M 57.77 42.53 L 71.77 42.53 L 71.77 56.53 L 57.77 56.53 L 57.77 42.53 Z M 254.938 42.53 L 268.938 42.53 L 268.938 56.53 L 254.938 56.53 L 254.938 42.53 Z M 273.988 42.53 L 287.988 42.53 L 287.988 56.53 L 273.988 56.53 L 273.988 42.53 Z M 304.944 42.53 L 318.944 42.53 L 318.944 56.53 L 304.944 56.53 L 304.944 42.53 Z M 31.576 61.58 L 45.576 61.58 L 45.576 75.58 L 31.576 75.58 L 31.576 61.58 Z M 62.533 61.58 L 76.533 61.58 L 76.533 75.58 L 62.533 75.58 L 62.533 61.58 Z M 249.223 61.58 L 263.222 61.58 L 263.222 75.58 L 249.223 75.58 L 249.223 61.58 Z M 268.273 61.58 L 282.273 61.58 L 282.273 75.58 L 268.273 75.58 L 268.273 61.58 Z M 294.466 61.58 L 308.466 61.58 L 308.466 75.58 L 294.466 75.58 L 294.466 61.58 Z M 320.66 61.58 L 334.66 61.58 L 334.66 75.58 L 320.66 75.58 L 320.66 61.58 Z M 24.432 80.63 L 38.433 80.63 L 38.433 94.63 L 24.432 94.63 L 24.432 80.63 Z M 309.23 80.63 L 323.23 80.63 L 323.23 94.63 L 309.23 94.63 L 309.23 80.63 Z M 129.465 13.669 L 143.159 16.58 L 140.248 30.274 L 126.554 27.363 L 129.465 13.669 Z M 98.485 26.559 L 112.179 29.47 L 109.269 43.164 L 95.574 40.254 L 98.485 26.559 Z M 92.197 5.747 L 105.891 8.658 L 102.981 22.352 L 89.287 19.441 L 92.197 5.747 Z M 110.831 9.708 L 124.525 12.619 L 121.614 26.313 L 107.92 23.402 L 110.831 9.708 Z M 117.119 30.52 L 130.813 33.431 L 127.902 47.125 L 114.208 44.214 L 117.119 30.52 Z M 187.982 34.566 L 201.676 31.656 L 204.587 45.35 L 190.893 48.26 L 187.982 34.566 Z M 117.817 50.144 L 131.511 53.055 L 128.6 66.749 L 114.906 63.838 L 117.817 50.144 Z M 144.833 94.838 L 158.527 97.749 L 155.617 111.443 L 141.923 108.532 L 144.833 94.838 Z M 210.108 10.388 L 223.802 7.477 L 226.713 21.171 L 213.019 24.082 L 210.108 10.388 Z M 228.742 6.427 L 242.436 3.516 L 245.347 17.21 L 231.653 20.121 L 228.742 6.427 Z M 148.099 17.63 L 161.793 20.54 L 158.882 34.234 L 145.188 31.324 L 148.099 17.63 Z M 79.852 22.599 L 93.546 25.51 L 90.635 39.204 L 76.941 36.293 L 79.852 22.599 Z M 135.753 34.481 L 149.447 37.392 L 146.536 51.086 L 132.842 48.175 L 135.753 34.481 Z M 80.549 42.223 L 94.243 45.133 L 91.333 58.827 L 77.638 55.917 L 80.549 42.223 Z M 99.183 46.183 L 112.877 49.094 L 109.966 62.788 L 96.272 59.877 L 99.183 46.183 Z M 136.45 54.105 L 150.144 57.016 L 147.234 70.71 L 133.54 67.799 L 136.45 54.105 Z M 84.974 62.639 L 98.668 65.549 L 95.757 79.243 L 82.063 76.333 L 84.974 62.639 Z M 103.607 66.599 L 117.301 69.51 L 114.391 83.204 L 100.697 80.293 L 103.607 66.599 Z M 122.241 70.56 L 135.935 73.471 L 133.024 87.165 L 119.33 84.254 L 122.241 70.56 Z M 140.875 74.521 L 154.569 77.432 L 151.658 91.126 L 137.964 88.215 L 140.875 74.521 Z M 114.554 88.402 L 128.248 91.312 L 125.337 105.007 L 111.643 102.096 L 114.554 88.402 Z M 80.815 82.204 L 94.509 85.115 L 91.598 98.809 L 77.904 95.898 L 80.815 82.204 Z M 172.841 18.309 L 186.535 15.398 L 189.446 29.092 L 175.752 32.003 L 172.841 18.309 Z M 191.475 14.348 L 205.169 11.438 L 208.079 25.132 L 194.385 28.042 L 191.475 14.348 Z M 169.348 38.527 L 183.042 35.616 L 185.953 49.31 L 172.259 52.221 L 169.348 38.527 Z M 206.616 30.606 L 220.31 27.695 L 223.22 41.389 L 209.526 44.3 L 206.616 30.606 Z M 225.249 26.645 L 238.943 23.734 L 241.854 37.428 L 228.16 40.339 L 225.249 26.645 Z M 176.104 56.567 L 189.798 53.656 L 192.709 67.35 L 179.015 70.261 L 176.104 56.567 Z M 194.738 52.606 L 208.432 49.695 L 211.342 63.389 L 197.648 66.3 L 194.738 52.606 Z M 213.371 48.645 L 227.065 45.734 L 229.976 59.429 L 216.282 62.339 L 213.371 48.645 Z M 232.005 44.685 L 245.699 41.774 L 248.61 55.468 L 234.916 58.379 L 232.005 44.685 Z M 171.679 76.983 L 185.374 74.072 L 188.284 87.766 L 174.59 90.677 L 171.679 76.983 Z M 190.313 73.022 L 204.007 70.111 L 206.918 83.805 L 193.224 86.716 L 190.313 73.022 Z M 208.947 69.061 L 222.641 66.151 L 225.552 79.845 L 211.858 82.755 L 208.947 69.061 Z M 227.581 65.101 L 241.275 62.19 L 244.185 75.884 L 230.491 78.795 L 227.581 65.101 Z M 191.945 92.151 L 205.639 89.24 L 208.55 102.934 L 194.855 105.845 L 191.945 92.151 Z M 232.671 84.468 L 246.365 81.557 L 249.276 95.251 L 235.582 98.162 L 232.671 84.468 Z M 129.446 92.59 L 136.293 94.045 L 133.175 108.717 L 126.328 107.262 L 129.446 92.59 Z M 106.092 87.625 L 112.939 89.081 L 109.82 103.753 L 102.973 102.298 L 106.092 87.625 Z M 207.253 89.919 L 214.1 88.464 L 217.219 103.136 L 210.372 104.591 L 207.253 89.919 Z M 183.899 94.883 L 190.746 93.428 L 193.865 108.1 L 187.018 109.556 L 183.899 94.883 Z M 296.506 43.53 L 303.506 43.53 L 303.506 58.53 L 296.506 58.53 L 296.506 43.53 Z M 320.382 43.53 L 327.382 43.53 L 327.382 58.53 L 320.382 58.53 L 320.382 43.53 Z M 23.138 62.58 L 30.138 62.58 L 30.138 77.58 L 23.138 77.58 L 23.138 62.58 Z M 47.014 62.58 L 54.014 62.58 L 54.014 77.58 L 47.014 77.58 L 47.014 62.58 Z" vector-effect="non-scaling-stroke"/></g></svg>